NimbusSanL-BoldCondItal.ufo
<glyph name="exclam" format="1">
  <advance width="273"/>
  <unicode hex="0021"/>
  <outline>
    <contour>
      <point x="221" y="141" type="line"/>
      <point x="197" y="0" type="line"/>
      <point x="77" y="0" type="line"/>
      <point x="102" y="141" type="line"/>
    </contour>
    <contour>
      <point x="293" y="535" type="line"/>
      <point x="202" y="199" type="line"/>
      <point x="141" y="199" type="line"/>
      <point x="167" y="535" type="line"/>
      <point x="199" y="718" type="line"/>
      <point x="325" y="718" type="line"/>
    </contour>
  </outline>
</glyph>
<glyph name="quotedbl" format="1">
  <advance width="389"/>
  <unicode hex="0022"/>
  <outline>
    <contour>
      <point x="305" y="447" type="line"/>
      <point x="353" y="718" type="line"/>
      <point x="433" y="718" type="line"/>
      <point x="386" y="447" type="line"/>
    </contour>
    <contour>
      <point x="158" y="447" type="line"/>
      <point x="205" y="718" type="line"/>
      <point x="286" y="718" type="line"/>
      <point x="238" y="447" type="line"/>
    </contour>
  </outline>
</glyph>
<glyph name="numbersign" format="1">
  <advance width="456"/>
  <unicode hex="0023"/>
  <outline>
    <contour>
      <point x="468" y="289" type="line"/>
      <point x="442" y="199" type="line"/>
      <point x="362" y="199" type="line"/>
      <point x="305" y="0" type="line"/>
      <point x="228" y="0" type="line"/>
      <point x="285" y="199" type="line"/>
      <point x="206" y="199" type="line"/>
      <point x="148" y="0" type="line"/>
      <point x="71" y="0" type="line"/>
      <point x="129" y="199" type="line"/>
      <point x="49" y="199" type="line"/>
      <point x="75" y="289" type="line"/>
      <point x="154" y="289" type="line"/>
      <point x="189" y="409" type="line"/>
      <point x="109" y="409" type="line"/>
      <point x="135" y="499" type="line"/>
      <point x="215" y="499" type="line"/>
      <point x="272" y="698" type="line"/>
      <point x="349" y="698" type="line"/>
      <point x="292" y="499" type="line"/>
      <point x="371" y="499" type="line"/>
      <point x="429" y="698" type="line"/>
      <point x="506" y="698" type="line"/>
      <point x="448" y="499" type="line"/>
      <point x="528" y="499" type="line"/>
      <point x="502" y="409" type="line"/>
      <point x="423" y="409" type="line"/>
      <point x="388" y="289" type="line"/>
    </contour>
    <contour>
      <point x="346" y="409" type="line"/>
      <point x="266" y="409" type="line"/>
      <point x="231" y="289" type="line"/>
      <point x="311" y="289" type="line"/>
    </contour>
  </outline>
</glyph>
<glyph name="quotesingle" format="1">
  <advance width="195"/>
  <unicode hex="0027"/>
  <outline>
    <contour>
      <point x="135" y="447" type="line"/>
      <point x="182" y="718" type="line"/>
      <point x="263" y="718" type="line"/>
      <point x="216" y="447" type="line"/>
    </contour>
  </outline>
</glyph>
<glyph name="parenleft" format="1">
  <advance width="273"/>
  <unicode hex="0028"/>
  <outline>
    <contour>
      <point x="221" y="-207" type="curve"/>
      <point x="136" y="-207" type="line"/>
      <point x="82" y="-76"/>
      <point x="62" y="12"/>
      <point x="62" y="126" type="curve" smooth="yes"/>
      <point x="62" y="228"/>
      <point x="83" y="334"/>
      <point x="123" y="435" type="curve" smooth="yes"/>
      <point x="164" y="539"/>
      <point x="207" y="611"/>
      <point x="301" y="734" type="curve"/>
      <point x="385" y="734" type="line"/>
      <point x="295" y="594"/>
      <point x="255" y="508"/>
      <point x="220" y="387" type="curve"/>
      <point x="192" y="286"/>
      <point x="175" y="171"/>
      <point x="175" y="78" type="curve" smooth="yes"/>
      <point x="175" y="-18"/>
      <point x="186" y="-85"/>
    </contour>
  </outline>
</glyph>
<glyph name="parenright" format="1">
  <advance width="273"/>
  <unicode hex="0029"/>
  <outline>
    <contour>
      <point x="143" y="734" type="curve"/>
      <point x="228" y="734" type="line"/>
      <point x="283" y="599"/>
      <point x="302" y="513"/>
      <point x="302" y="399" type="curve" smooth="yes"/>
      <point x="302" y="298"/>
      <point x="281" y="193"/>
      <point x="241" y="91" type="curve" smooth="yes"/>
      <point x="199" y="-15"/>
      <point x="156" y="-87"/>
      <point x="63" y="-207" type="curve"/>
      <point x="-21" y="-207" type="line"/>
      <point x="68" y="-70"/>
      <point x="109" y="16"/>
      <point x="144" y="139" type="curve" smooth="yes"/>
      <point x="172" y="240"/>
      <point x="189" y="354"/>
      <point x="189" y="448" type="curve" smooth="yes"/>
      <point x="189" y="543"/>
      <point x="178" y="611"/>
    </contour>
  </outline>
</glyph>
<glyph name="plus" format="1">
  <advance width="479"/>
  <unicode hex="002B"/>
  <outline>
    <contour>
      <point x="247" y="309" type="line"/>
      <point x="282" y="506" type="line"/>
      <point x="374" y="506" type="line"/>
      <point x="339" y="309" type="line"/>
      <point x="500" y="309" type="line"/>
      <point x="480" y="197" type="line"/>
      <point x="320" y="197" type="line"/>
      <point x="285" y="0" type="line"/>
      <point x="193" y="0" type="line"/>
      <point x="228" y="197" type="line"/>
      <point x="67" y="197" type="line"/>
      <point x="87" y="309" type="line"/>
    </contour>
  </outline>
</glyph>
<glyph name="comma" format="1">
  <advance width="228"/>
  <unicode hex="002C"/>
  <outline>
    <contour>
      <point x="201" y="146" type="line"/>
      <point x="179" y="20" type="line" smooth="yes"/>
      <point x="160" y="-86"/>
      <point x="109" y="-148"/>
      <point x="23" y="-168" type="curve"/>
      <point x="32" y="-115" type="line"/>
      <point x="83" y="-96"/>
      <point x="105" y="-67"/>
      <point x="121" y="0" type="curve"/>
      <point x="52" y="0" type="line"/>
      <point x="78" y="146" type="line"/>
    </contour>
  </outline>
</glyph>
<glyph name="slash" format="1">
  <advance width="228"/>
  <unicode hex="002F"/>
  <outline>
    <contour>
      <point x="383" y="737" type="line"/>
      <point x="66" y="-19" type="line"/>
      <point x="-30" y="-19" type="line"/>
      <point x="287" y="737" type="line"/>
    </contour>
  </outline>
</glyph>
<glyph name="one" format="1">
  <advance width="456"/>
  <unicode hex="0031"/>
  <outline>
    <contour>
      <point x="142" y="489" type="line"/>
      <point x="159" y="587" type="line"/>
      <point x="175" y="587" type="line" smooth="yes"/>
      <point x="263" y="587"/>
      <point x="318" y="628"/>
      <point x="340" y="710" type="curve"/>
      <point x="434" y="710" type="line"/>
      <point x="310" y="0" type="line"/>
      <point x="195" y="0" type="line"/>
      <point x="281" y="489" type="line"/>
    </contour>
  </outline>
</glyph>
<glyph name="two" format="1">
  <advance width="456"/>
  <unicode hex="0032"/>
  <outline>
    <contour>
      <point x="219" y="459" type="curve"/>
      <point x="108" y="459" type="line"/>
      <point x="125" y="542"/>
      <point x="141" y="581"/>
      <point x="173" y="624" type="curve" smooth="yes"/>
      <point x="214" y="679"/>
      <point x="275" y="710"/>
      <point x="343" y="710" type="curve" smooth="yes"/>
      <point x="444" y="710"/>
      <point x="508" y="644"/>
      <point x="508" y="539" type="curve" smooth="yes"/>
      <point x="508" y="464"/>
      <point x="480" y="390"/>
      <point x="432" y="334" type="curve" smooth="yes"/>
      <point x="403" y="301"/>
      <point x="400" y="299"/>
      <point x="293" y="219" type="curve" smooth="yes"/>
      <point x="219" y="163"/>
      <point x="205" y="150"/>
      <point x="188" y="124" type="curve"/>
      <point x="441" y="124" type="line"/>
      <point x="419" y="0" type="line"/>
      <point x="21" y="0" type="line"/>
      <point x="52" y="144"/>
      <point x="95" y="201"/>
      <point x="270" y="332" type="curve"/>
      <point x="358" y="400"/>
      <point x="391" y="450"/>
      <point x="391" y="515" type="curve" smooth="yes"/>
      <point x="391" y="563"/>
      <point x="366" y="592"/>
      <point x="324" y="592" type="curve" smooth="yes"/>
      <point x="267" y="592"/>
      <point x="238" y="555"/>
    </contour>
  </outline>
</glyph>
<glyph name="three" format="1">
  <advance width="456"/>
  <unicode hex="0033"/>
  <outline>
    <contour>
      <point x="229" y="311" type="curve"/>
      <point x="247" y="411" type="line"/>
      <point x="265" y="411" type="line" smooth="yes"/>
      <point x="303" y="411"/>
      <point x="328" y="419"/>
      <point x="348" y="439" type="curve" smooth="yes"/>
      <point x="368" y="459"/>
      <point x="381" y="495"/>
      <point x="381" y="530" type="curve" smooth="yes"/>
      <point x="381" y="574"/>
      <point x="360" y="598"/>
      <point x="321" y="598" type="curve" smooth="yes"/>
      <point x="269" y="598"/>
      <point x="237" y="560"/>
      <point x="223" y="482" type="curve"/>
      <point x="117" y="482" type="line"/>
      <point x="131" y="551"/>
      <point x="145" y="586"/>
      <point x="175" y="625" type="curve" smooth="yes"/>
      <point x="215" y="679"/>
      <point x="277" y="710"/>
      <point x="345" y="710" type="curve" smooth="yes"/>
      <point x="440" y="710"/>
      <point x="499" y="653"/>
      <point x="499" y="559" type="curve" smooth="yes"/>
      <point x="499" y="476"/>
      <point x="465" y="413"/>
      <point x="399" y="376" type="curve"/>
      <point x="415" y="368"/>
      <point x="423" y="363"/>
      <point x="430" y="356" type="curve" smooth="yes"/>
      <point x="450" y="335"/>
      <point x="464" y="295"/>
      <point x="464" y="257" type="curve" smooth="yes"/>
      <point x="464" y="194"/>
      <point x="440" y="125"/>
      <point x="402" y="75" type="curve" smooth="yes"/>
      <point x="356" y="14"/>
      <point x="291" y="-19"/>
      <point x="219" y="-19" type="curve" smooth="yes"/>
      <point x="117" y="-19"/>
      <point x="54" y="43"/>
      <point x="54" y="143" type="curve" smooth="yes"/>
      <point x="54" y="161"/>
      <point x="56" y="188"/>
      <point x="61" y="218" type="curve"/>
      <point x="173" y="218" type="line"/>
      <point x="169" y="197"/>
      <point x="168" y="186"/>
      <point x="168" y="174" type="curve" smooth="yes"/>
      <point x="168" y="123"/>
      <point x="192" y="93"/>
      <point x="235" y="93" type="curve" smooth="yes"/>
      <point x="294" y="93"/>
      <point x="344" y="158"/>
      <point x="344" y="236" type="curve" smooth="yes"/>
      <point x="344" y="290"/>
      <point x="313" y="310"/>
    </contour>
  </outline>
</glyph>
<glyph name="five" format="1">
  <advance width="456"/>
  <unicode hex="0035"/>
  <outline>
    <contour>
      <point x="265" y="580" type="line"/>
      <point x="217" y="426" type="line"/>
      <point x="256" y="454"/>
      <point x="286" y="465"/>
      <point x="325" y="465" type="curve" smooth="yes"/>
      <point x="413" y="465"/>
      <point x="470" y="398"/>
      <point x="470" y="295" type="curve" smooth="yes"/>
      <point x="470" y="220"/>
      <point x="443" y="136"/>
      <point x="398" y="77" type="curve"/>
      <point x="353" y="16"/>
      <point x="286" y="-19"/>
      <point x="213" y="-19" type="curve" smooth="yes"/>
      <point x="118" y="-19"/>
      <point x="53" y="46"/>
      <point x="53" y="143" type="curve" smooth="yes"/>
      <point x="53" y="155"/>
      <point x="54" y="171"/>
      <point x="56" y="190" type="curve"/>
      <point x="171" y="190" type="line"/>
      <point x="170" y="181"/>
      <point x="170" y="176"/>
      <point x="170" y="169" type="curve" smooth="yes"/>
      <point x="170" y="121"/>
      <point x="194" y="93"/>
      <point x="234" y="93" type="curve" smooth="yes"/>
      <point x="297" y="93"/>
      <point x="348" y="171"/>
      <point x="348" y="265" type="curve" smooth="yes"/>
      <point x="348" y="322"/>
      <point x="324" y="353"/>
      <point x="279" y="353" type="curve" smooth="yes"/>
      <point x="245" y="353"/>
      <point x="219" y="337"/>
      <point x="196" y="302" type="curve"/>
      <point x="94" y="308" type="line"/>
      <point x="202" y="698" type="line"/>
      <point x="522" y="698" type="line"/>
      <point x="501" y="580" type="line"/>
    </contour>
  </outline>
</glyph>
<glyph name="six" format="1">
  <advance width="456"/>
  <unicode hex="0036"/>
  <outline>
    <contour>
      <point x="507" y="530" type="line"/>
      <point x="393" y="530" type="line"/>
      <point x="394" y="535"/>
      <point x="394" y="540"/>
      <point x="394" y="542" type="curve" smooth="yes"/>
      <point x="394" y="577"/>
      <point x="373" y="598"/>
      <point x="339" y="598" type="curve" smooth="yes"/>
      <point x="278" y="598"/>
      <point x="241" y="541"/>
      <point x="207" y="397" type="curve"/>
      <point x="243" y="442"/>
      <point x="277" y="459"/>
      <point x="328" y="459" type="curve" smooth="yes"/>
      <point x="417" y="459"/>
      <point x="472" y="395"/>
      <point x="472" y="291" type="curve" smooth="yes"/>
      <point x="472" y="215"/>
      <point x="444" y="133"/>
      <point x="399" y="72" type="curve"/>
      <point x="353" y="12"/>
      <point x="295" y="-19"/>
      <point x="229" y="-19" type="curve" smooth="yes"/>
      <point x="127" y="-19"/>
      <point x="70" y="53"/>
      <point x="70" y="182" type="curve" smooth="yes"/>
      <point x="70" y="306"/>
      <point x="106" y="473"/>
      <point x="153" y="564" type="curve" smooth="yes"/>
      <point x="201" y="658"/>
      <point x="275" y="710"/>
      <point x="359" y="710" type="curve" smooth="yes"/>
      <point x="457" y="710"/>
      <point x="507" y="657"/>
      <point x="507" y="555" type="curve" smooth="yes"/>
    </contour>
    <contour>
      <point x="288" y="347" type="curve" smooth="yes"/>
      <point x="225" y="347"/>
      <point x="177" y="277"/>
      <point x="177" y="187" type="curve" smooth="yes"/>
      <point x="177" y="130"/>
      <point x="205" y="93"/>
      <point x="247" y="93" type="curve" smooth="yes"/>
      <point x="306" y="93"/>
      <point x="355" y="172"/>
      <point x="355" y="265" type="curve" smooth="yes"/>
      <point x="355" y="315"/>
      <point x="329" y="347"/>
    </contour>
  </outline>
</glyph>
<glyph name="seven" format="1">
  <advance width="456"/>
  <unicode hex="0037"/>
  <outline>
    <contour>
      <point x="555" y="698" type="line"/>
      <point x="536" y="590" type="line"/>
      <point x="374" y="412"/>
      <point x="273" y="223"/>
      <point x="220" y="0" type="curve"/>
      <point x="102" y="0" type="line"/>
      <point x="150" y="207"/>
      <point x="255" y="402"/>
      <point x="410" y="574" type="curve"/>
      <point x="120" y="574" type="line"/>
      <point x="144" y="698" type="line"/>
    </contour>
  </outline>
</glyph>
<glyph name="nine" format="1">
  <advance width="456"/>
  <unicode hex="0039"/>
  <outline>
    <contour>
      <point x="65" y="164" type="curve"/>
      <point x="179" y="164" type="line"/>
      <point x="178" y="115"/>
      <point x="195" y="93"/>
      <point x="232" y="93" type="curve" smooth="yes"/>
      <point x="263" y="93"/>
      <point x="290" y="110"/>
      <point x="314" y="147" type="curve" smooth="yes"/>
      <point x="336" y="181"/>
      <point x="349" y="218"/>
      <point x="365" y="296" type="curve"/>
      <point x="330" y="251"/>
      <point x="295" y="233"/>
      <point x="242" y="233" type="curve" smooth="yes"/>
      <point x="155" y="233"/>
      <point x="100" y="297"/>
      <point x="100" y="400" type="curve" smooth="yes"/>
      <point x="100" y="477"/>
      <point x="128" y="564"/>
      <point x="170" y="620" type="curve" smooth="yes"/>
      <point x="214" y="678"/>
      <point x="276" y="710"/>
      <point x="346" y="710" type="curve" smooth="yes"/>
      <point x="448" y="710"/>
      <point x="504" y="638"/>
      <point x="504" y="506" type="curve" smooth="yes"/>
      <point x="504" y="355"/>
      <point x="452" y="164"/>
      <point x="389" y="81" type="curve" smooth="yes"/>
      <point x="338" y="14"/>
      <point x="279" y="-19"/>
      <point x="211" y="-19" type="curve" smooth="yes"/>
      <point x="123" y="-19"/>
      <point x="64" y="43"/>
      <point x="64" y="135" type="curve" smooth="yes"/>
      <point x="64" y="143"/>
      <point x="64" y="153"/>
    </contour>
    <contour>
      <point x="327" y="595" type="curve" smooth="yes"/>
      <point x="263" y="595"/>
      <point x="218" y="525"/>
      <point x="218" y="424" type="curve" smooth="yes"/>
      <point x="218" y="373"/>
      <point x="241" y="345"/>
      <point x="283" y="345" type="curve" smooth="yes"/>
      <point x="347" y="345"/>
      <point x="395" y="415"/>
      <point x="395" y="509" type="curve" smooth="yes"/>
      <point x="395" y="564"/>
      <point x="371" y="595"/>
    </contour>
  </outline>
</glyph>
<glyph name="colon" format="1">
  <advance width="273"/>
  <unicode hex="003A"/>
  <outline>
    <contour>
      <point x="224" y="146" type="line"/>
      <point x="198" y="0" type="line"/>
      <point x="75" y="0" type="line"/>
      <point x="100" y="146" type="line"/>
    </contour>
    <contour>
      <point x="288" y="512" type="line"/>
      <point x="263" y="366" type="line"/>
      <point x="139" y="366" type="line"/>
      <point x="165" y="512" type="line"/>
    </contour>
  </outline>
</glyph>
<glyph name="less" format="1">
  <advance width="479"/>
  <unicode hex="003C"/>
  <outline>
    <contour>
      <point x="443" y="-15" type="line"/>
      <point x="67" y="199" type="line"/>
      <point x="86" y="307" type="line"/>
      <point x="537" y="521" type="line"/>
      <point x="516" y="399" type="line"/>
      <point x="207" y="253" type="line"/>
      <point x="465" y="107" type="line"/>
    </contour>
  </outline>
</glyph>
<glyph name="equal" format="1">
  <advance width="479"/>
  <unicode hex="003D"/>
  <outline>
    <contour>
      <point x="519" y="419" type="line"/>
      <point x="499" y="307" type="line"/>
      <point x="86" y="307" type="line"/>
      <point x="106" y="419" type="line"/>
    </contour>
    <contour>
      <point x="481" y="199" type="line"/>
      <point x="461" y="87" type="line"/>
      <point x="48" y="87" type="line"/>
      <point x="67" y="199" type="line"/>
    </contour>
  </outline>
</glyph>
<glyph name="question" format="1">
  <advance width="501"/>
  <unicode hex="003F"/>
  <outline>
    <contour>
      <point x="343" y="208" type="curve"/>
      <point x="235" y="208" type="line"/>
      <point x="253" y="315"/>
      <point x="273" y="349"/>
      <point x="353" y="411" type="curve" smooth="yes"/>
      <point x="404" y="450"/>
      <point x="424" y="487"/>
      <point x="424" y="538" type="curve" smooth="yes"/>
      <point x="424" y="583"/>
      <point x="400" y="609"/>
      <point x="357" y="609" type="curve" smooth="yes"/>
      <point x="328" y="609"/>
      <point x="301" y="595"/>
      <point x="283" y="570" type="curve" smooth="yes"/>
      <point x="273" y="557"/>
      <point x="258" y="525"/>
      <point x="254" y="509" type="curve" smooth="yes"/>
      <point x="251" y="493" type="line"/>
      <point x="135" y="493" type="line"/>
      <point x="150" y="563"/>
      <point x="164" y="597"/>
      <point x="194" y="636" type="curve" smooth="yes"/>
      <point x="238" y="694"/>
      <point x="304" y="727"/>
      <point x="374" y="727" type="curve" smooth="yes"/>
      <point x="410" y="727"/>
      <point x="447" y="718"/>
      <point x="476" y="702" type="curve" smooth="yes"/>
      <point x="524" y="677"/>
      <point x="550" y="629"/>
      <point x="550" y="565" type="curve" smooth="yes"/>
      <point x="550" y="510"/>
      <point x="533" y="456"/>
      <point x="504" y="416" type="curve" smooth="yes"/>
      <point x="484" y="388"/>
      <point x="462" y="367"/>
      <point x="414" y="330" type="curve" smooth="yes"/>
      <point x="367" y="294"/>
      <point x="355" y="274"/>
    </contour>
    <contour>
      <point x="339" y="141" type="line"/>
      <point x="315" y="0" type="line"/>
      <point x="195" y="0" type="line"/>
      <point x="220" y="141" type="line"/>
    </contour>
  </outline>
</glyph>
<glyph name="L" format="1">
  <advance width="501"/>
  <unicode hex="004C"/>
  <outline>
    <contour>
      <point x="310" y="718" type="line"/>
      <point x="208" y="130" type="line"/>
      <point x="501" y="130" type="line"/>
      <point x="478" y="0" type="line"/>
      <point x="62" y="0" type="line"/>
      <point x="187" y="718" type="line"/>
    </contour>
  </outline>
</glyph>
<glyph name="M" format="1">
  <advance width="683"/>
  <unicode hex="004D"/>
  <outline>
    <contour>
      <point x="752" y="718" type="line"/>
      <point x="627" y="0" type="line"/>
      <point x="512" y="0" type="line"/>
      <point x="618" y="609" type="line"/>
      <point x="401" y="0" type="line"/>
      <point x="281" y="0" type="line"/>
      <point x="278" y="609" type="line"/>
      <point x="172" y="0" type="line"/>
      <point x="57" y="0" type="line"/>
      <point x="182" y="718" type="line"/>
      <point x="361" y="718" type="line"/>
      <point x="369" y="148" type="line"/>
      <point x="574" y="718" type="line"/>
    </contour>
  </outline>
</glyph>
<glyph name="P" format="1">
  <advance width="547"/>
  <unicode hex="0050"/>
  <outline>
    <contour>
      <point x="230" y="259" type="line"/>
      <point x="185" y="0" type="line"/>
      <point x="62" y="0" type="line"/>
      <point x="187" y="718" type="line"/>
      <point x="456" y="718" type="line" smooth="yes"/>
      <point x="550" y="718"/>
      <point x="605" y="656"/>
      <point x="605" y="551" type="curve" smooth="yes"/>
      <point x="605" y="478"/>
      <point x="579" y="401"/>
      <point x="537" y="345" type="curve" smooth="yes"/>
      <point x="493" y="288"/>
      <point x="438" y="259"/>
      <point x="371" y="259" type="curve" smooth="yes"/>
    </contour>
    <contour>
      <point x="252" y="383" type="line"/>
      <point x="366" y="383" type="line" smooth="yes"/>
      <point x="410" y="383"/>
      <point x="441" y="401"/>
      <point x="460" y="437" type="curve" smooth="yes"/>
      <point x="472" y="460"/>
      <point x="480" y="496"/>
      <point x="480" y="525" type="curve" smooth="yes"/>
      <point x="480" y="573"/>
      <point x="451" y="594"/>
      <point x="386" y="594" type="curve" smooth="yes"/>
      <point x="289" y="594" type="line"/>
    </contour>
  </outline>
</glyph>
<glyph name="bracketleft" format="1">
  <advance width="273"/>
  <unicode hex="005B"/>
  <outline>
    <contour>
      <point x="261" y="626" type="line"/>
      <point x="134" y="-100" type="line"/>
      <point x="236" y="-100" type="line"/>
      <point x="219" y="-196" type="line"/>
      <point x="17" y="-196" type="line"/>
      <point x="177" y="722" type="line"/>
      <point x="379" y="722" type="line"/>
      <point x="362" y="626" type="line"/>
    </contour>
  </outline>
</glyph>
<glyph name="bracketright" format="1">
  <advance width="273"/>
  <unicode hex="005D"/>
  <outline>
    <contour>
      <point x="104" y="-100" type="line"/>
      <point x="230" y="626" type="line"/>
      <point x="129" y="626" type="line"/>
      <point x="146" y="722" type="line"/>
      <point x="347" y="722" type="line"/>
      <point x="187" y="-196" type="line"/>
      <point x="-14" y="-196" type="line"/>
      <point x="3" y="-100" type="line"/>
    </contour>
  </outline>
</glyph>
<glyph name="grave" format="1">
  <advance width="273"/>
  <unicode hex="0060"/>
  <outline>
    <contour>
      <point x="207" y="604" type="line"/>
      <point x="112" y="750" type="line"/>
      <point x="238" y="750" type="line"/>
      <point x="290" y="604" type="line"/>
    </contour>
  </outline>
</glyph>
<glyph name="b" format="1">
  <advance width="501"/>
  <unicode hex="0062"/>
  <outline>
    <contour>
      <point x="290" y="718" type="line"/>
      <point x="245" y="460" type="line"/>
      <point x="291" y="522"/>
      <point x="331" y="546"/>
      <point x="387" y="546" type="curve" smooth="yes"/>
      <point x="475" y="546"/>
      <point x="529" y="474"/>
      <point x="529" y="358" type="curve" smooth="yes"/>
      <point x="529" y="255"/>
      <point x="495" y="143"/>
      <point x="443" y="73" type="curve" smooth="yes"/>
      <point x="400" y="15"/>
      <point x="348" y="-14"/>
      <point x="288" y="-14" type="curve" smooth="yes"/>
      <point x="229" y="-14"/>
      <point x="194" y="12"/>
      <point x="175" y="70" type="curve"/>
      <point x="162" y="0" type="line"/>
      <point x="50" y="0" type="line"/>
      <point x="175" y="718" type="line"/>
    </contour>
    <contour>
      <point x="332" y="425" type="curve" smooth="yes"/>
      <point x="292" y="425"/>
      <point x="258" y="401"/>
      <point x="235" y="355" type="curve" smooth="yes"/>
      <point x="214" y="313"/>
      <point x="200" y="253"/>
      <point x="200" y="203" type="curve" smooth="yes"/>
      <point x="200" y="139"/>
      <point x="229" y="101"/>
      <point x="278" y="101" type="curve" smooth="yes"/>
      <point x="316" y="101"/>
      <point x="348" y="126"/>
      <point x="373" y="174" type="curve" smooth="yes"/>
      <point x="394" y="216"/>
      <point x="407" y="271"/>
      <point x="407" y="323" type="curve" smooth="yes"/>
      <point x="407" y="389"/>
      <point x="381" y="425"/>
    </contour>
  </outline>
</glyph>
<glyph name="d" format="1">
  <advance width="501"/>
  <unicode hex="0064"/>
  <outline>
    <contour>
      <point x="577" y="718" type="line"/>
      <point x="452" y="0" type="line"/>
      <point x="339" y="0" type="line"/>
      <point x="352" y="70" type="line"/>
      <point x="312" y="12"/>
      <point x="267" y="-14"/>
      <point x="208" y="-14" type="curve" smooth="yes"/>
      <point x="119" y="-14"/>
      <point x="67" y="57"/>
      <point x="67" y="180" type="curve" smooth="yes"/>
      <point x="67" y="383"/>
      <point x="173" y="546"/>
      <point x="305" y="546" type="curve" smooth="yes"/>
      <point x="361" y="546"/>
      <point x="393" y="521"/>
      <point x="417" y="460" type="curve"/>
      <point x="462" y="718" type="line"/>
    </contour>
    <contour>
      <point x="318" y="425" type="curve" smooth="yes"/>
      <point x="278" y="425"/>
      <point x="244" y="400"/>
      <point x="221" y="355" type="curve" smooth="yes"/>
      <point x="201" y="315"/>
      <point x="187" y="257"/>
      <point x="187" y="209" type="curve" smooth="yes"/>
      <point x="187" y="139"/>
      <point x="212" y="101"/>
      <point x="259" y="101" type="curve" smooth="yes"/>
      <point x="335" y="101"/>
      <point x="393" y="196"/>
      <point x="393" y="321" type="curve" smooth="yes"/>
      <point x="393" y="390"/>
      <point x="367" y="425"/>
    </contour>
  </outline>
</glyph>
<glyph name="f" format="1">
  <advance width="273"/>
  <unicode hex="0066"/>
  <outline>
    <contour>
      <point x="261" y="432" type="line"/>
      <point x="186" y="0" type="line"/>
      <point x="71" y="0" type="line"/>
      <point x="146" y="432" type="line"/>
      <point x="83" y="432" type="line"/>
      <point x="101" y="532" type="line"/>
      <point x="164" y="532" type="line"/>
      <point x="171" y="575" type="line"/>
      <point x="190" y="680"/>
      <point x="240" y="727"/>
      <point x="333" y="727" type="curve" smooth="yes"/>
      <point x="352" y="727"/>
      <point x="370" y="726"/>
      <point x="385" y="725" type="curve"/>
      <point x="365" y="612" type="line"/>
      <point x="333" y="612" type="line" smooth="yes"/>
      <point x="298" y="612"/>
      <point x="292" y="605"/>
      <point x="283" y="553" type="curve" smooth="yes"/>
      <point x="279" y="532" type="line"/>
      <point x="354" y="532" type="line"/>
      <point x="336" y="432" type="line"/>
    </contour>
  </outline>
</glyph>
<glyph name="h" format="1">
  <advance width="501"/>
  <unicode hex="0068"/>
  <outline>
    <contour>
      <point x="293" y="718" type="line"/>
      <point x="248" y="459" type="line"/>
      <point x="281" y="516"/>
      <point x="331" y="546"/>
      <point x="393" y="546" type="curve" smooth="yes"/>
      <point x="469" y="546"/>
      <point x="516" y="495"/>
      <point x="516" y="413" type="curve" smooth="yes"/>
      <point x="516" y="399"/>
      <point x="515" y="384"/>
      <point x="512" y="368" type="curve" smooth="yes"/>
      <point x="448" y="0" type="line"/>
      <point x="333" y="0" type="line"/>
      <point x="389" y="323" type="line" smooth="yes"/>
      <point x="392" y="341"/>
      <point x="394" y="358"/>
      <point x="394" y="368" type="curve" smooth="yes"/>
      <point x="394" y="406"/>
      <point x="372" y="428"/>
      <point x="334" y="428" type="curve" smooth="yes"/>
      <point x="278" y="428"/>
      <point x="234" y="381"/>
      <point x="221" y="305" type="curve" smooth="yes"/>
      <point x="168" y="0" type="line"/>
      <point x="53" y="0" type="line"/>
      <point x="178" y="718" type="line"/>
    </contour>
  </outline>
</glyph>
<glyph name="j" format="1">
  <advance width="228"/>
  <unicode hex="006A"/>
  <outline>
    <contour>
      <point x="264" y="532" type="line"/>
      <point x="162" y="-56" type="line" smooth="yes"/>
      <point x="141" y="-175"/>
      <point x="100" y="-214"/>
      <point x="-6" y="-214" type="curve" smooth="yes"/>
      <point x="-35" y="-214" type="line"/>
      <point x="-15" y="-102" type="line"/>
      <point x="5" y="-102" type="line" smooth="yes"/>
      <point x="29" y="-102"/>
      <point x="41" y="-88"/>
      <point x="47" y="-53" type="curve" smooth="yes"/>
      <point x="149" y="532" type="line"/>
    </contour>
    <contour>
      <point x="298" y="725" type="line"/>
      <point x="275" y="595" type="line"/>
      <point x="160" y="595" type="line"/>
      <point x="183" y="725" type="line"/>
    </contour>
  </outline>
</glyph>
<glyph name="k" format="1">
  <advance width="456"/>
  <unicode hex="006B"/>
  <outline>
    <contour>
      <point x="201" y="168" type="line"/>
      <point x="172" y="0" type="line"/>
      <point x="57" y="0" type="line"/>
      <point x="182" y="718" type="line"/>
      <point x="297" y="718" type="line"/>
      <point x="229" y="330" type="line"/>
      <point x="408" y="532" type="line"/>
      <point x="549" y="532" type="line"/>
      <point x="359" y="326" type="line"/>
      <point x="461" y="0" type="line"/>
      <point x="323" y="0" type="line"/>
      <point x="259" y="228" type="line"/>
    </contour>
  </outline>
</glyph>
<glyph name="n" format="1">
  <advance width="501"/>
  <unicode hex="006E"/>
  <outline>
    <contour>
      <point x="256" y="532" type="line"/>
      <point x="242" y="451" type="line"/>
      <point x="288" y="519"/>
      <point x="330" y="546"/>
      <point x="391" y="546" type="curve" smooth="yes"/>
      <point x="469" y="546"/>
      <point x="516" y="496"/>
      <point x="516" y="413" type="curve" smooth="yes"/>
      <point x="516" y="399"/>
      <point x="515" y="384"/>
      <point x="512" y="368" type="curve" smooth="yes"/>
      <point x="448" y="0" type="line"/>
      <point x="333" y="0" type="line"/>
      <point x="389" y="323" type="line" smooth="yes"/>
      <point x="392" y="341"/>
      <point x="394" y="358"/>
      <point x="394" y="368" type="curve" smooth="yes"/>
      <point x="394" y="406"/>
      <point x="372" y="428"/>
      <point x="334" y="428" type="curve" smooth="yes"/>
      <point x="278" y="428"/>
      <point x="234" y="381"/>
      <point x="221" y="305" type="curve" smooth="yes"/>
      <point x="168" y="0" type="line"/>
      <point x="53" y="0" type="line"/>
      <point x="146" y="532" type="line"/>
    </contour>
  </outline>
</glyph>
<glyph name="q" format="1">
  <advance width="501"/>
  <unicode hex="0071"/>
  <outline>
    <contour>
      <point x="435" y="532" type="line"/>
      <point x="545" y="532" type="line"/>
      <point x="416" y="-207" type="line"/>
      <point x="301" y="-207" type="line"/>
      <point x="350" y="69" type="line"/>
      <point x="310" y="10"/>
      <point x="270" y="-14"/>
      <point x="210" y="-14" type="curve" smooth="yes"/>
      <point x="119" y="-14"/>
      <point x="66" y="57"/>
      <point x="66" y="179" type="curve" smooth="yes"/>
      <point x="66" y="279"/>
      <point x="99" y="386"/>
      <point x="153" y="456" type="curve"/>
      <point x="197" y="515"/>
      <point x="251" y="546"/>
      <point x="312" y="546" type="curve" smooth="yes"/>
      <point x="370" y="546"/>
      <point x="399" y="520"/>
      <point x="421" y="450" type="curve"/>
    </contour>
    <contour>
      <point x="315" y="425" type="curve" smooth="yes"/>
      <point x="278" y="425"/>
      <point x="243" y="399"/>
      <point x="221" y="355" type="curve" smooth="yes"/>
      <point x="199" y="312"/>
      <point x="185" y="250"/>
      <point x="185" y="197" type="curve" smooth="yes"/>
      <point x="185" y="137"/>
      <point x="212" y="104"/>
      <point x="261" y="104" type="curve" smooth="yes"/>
      <point x="334" y="104"/>
      <point x="391" y="198"/>
      <point x="391" y="321" type="curve" smooth="yes"/>
      <point x="391" y="385"/>
      <point x="362" y="425"/>
    </contour>
  </outline>
</glyph>
<glyph name="r" format="1">
  <advance width="319"/>
  <unicode hex="0072"/>
  <outline>
    <contour>
      <point x="52" y="0" type="line"/>
      <point x="145" y="532" type="line"/>
      <point x="255" y="532" type="line"/>
      <point x="238" y="437" type="line"/>
      <point x="291" y="521"/>
      <point x="323" y="546"/>
      <point x="379" y="546" type="curve" smooth="yes"/>
      <point x="383" y="546"/>
      <point x="389" y="545"/>
      <point x="401" y="544" type="curve"/>
      <point x="376" y="402" type="line"/>
      <point x="365" y="404"/>
      <point x="360" y="404"/>
      <point x="347" y="404" type="curve" smooth="yes"/>
      <point x="273" y="404"/>
      <point x="230" y="363"/>
      <point x="215" y="277" type="curve" smooth="yes"/>
      <point x="167" y="0" type="line"/>
    </contour>
  </outline>
</glyph>
<glyph name="t" format="1">
  <advance width="273"/>
  <unicode hex="0074"/>
  <outline>
    <contour>
      <point x="300" y="676" type="line"/>
      <point x="275" y="532" type="line"/>
      <point x="346" y="532" type="line"/>
      <point x="329" y="432" type="line"/>
      <point x="257" y="432" type="line"/>
      <point x="207" y="143" type="line" smooth="yes"/>
      <point x="205" y="134"/>
      <point x="204" y="125"/>
      <point x="204" y="120" type="curve" smooth="yes"/>
      <point x="204" y="106"/>
      <point x="216" y="100"/>
      <point x="246" y="100" type="curve" smooth="yes"/>
      <point x="252" y="100"/>
      <point x="259" y="101"/>
      <point x="271" y="102" type="curve"/>
      <point x="252" y="-4" type="line"/>
      <point x="212" y="-6"/>
      <point x="211" y="-6"/>
      <point x="198" y="-6" type="curve" smooth="yes"/>
      <point x="183" y="-6" type="line" smooth="yes"/>
      <point x="113" y="-6"/>
      <point x="82" y="17"/>
      <point x="82" y="68" type="curve" smooth="yes"/>
      <point x="82" y="81"/>
      <point x="83" y="95"/>
      <point x="86" y="109" type="curve" smooth="yes"/>
      <point x="142" y="432" type="line"/>
      <point x="83" y="432" type="line"/>
      <point x="100" y="532" type="line"/>
      <point x="160" y="532" type="line"/>
      <point x="185" y="676" type="line"/>
    </contour>
  </outline>
</glyph>
<glyph name="v" format="1">
  <advance width="456"/>
  <unicode hex="0076"/>
  <outline>
    <contour>
      <point x="538" y="532" type="line"/>
      <point x="288" y="0" type="line"/>
      <point x="167" y="0" type="line"/>
      <point x="103" y="532" type="line"/>
      <point x="231" y="532" type="line"/>
      <point x="253" y="136" type="line"/>
      <point x="416" y="532" type="line"/>
    </contour>
  </outline>
</glyph>
<glyph name="w" format="1">
  <advance width="638"/>
  <unicode hex="0077"/>
  <outline>
    <contour>
      <point x="723" y="532" type="line"/>
      <point x="505" y="0" type="line"/>
      <point x="387" y="0" type="line"/>
      <point x="387" y="393" type="line"/>
      <point x="249" y="0" type="line"/>
      <point x="131" y="0" type="line"/>
      <point x="101" y="532" type="line"/>
      <point x="223" y="532" type="line"/>
      <point x="225" y="145" type="line"/>
      <point x="354" y="532" type="line"/>
      <point x="470" y="532" type="line"/>
      <point x="470" y="145" type="line"/>
      <point x="605" y="532" type="line"/>
    </contour>
  </outline>
</glyph>
<glyph name="x" format="1">
  <advance width="456"/>
  <unicode hex="0078"/>
  <outline>
    <contour>
      <point x="342" y="271" type="line"/>
      <point x="443" y="0" type="line"/>
      <point x="301" y="0" type="line"/>
      <point x="254" y="160" type="line"/>
      <point x="151" y="0" type="line"/>
      <point x="12" y="0" type="line"/>
      <point x="208" y="271" type="line"/>
      <point x="110" y="532" type="line"/>
      <point x="250" y="532" type="line"/>
      <point x="297" y="377" type="line"/>
      <point x="396" y="532" type="line"/>
      <point x="531" y="532" type="line"/>
    </contour>
  </outline>
</glyph>
<glyph name="braceleft" format="1">
  <advance width="319"/>
  <unicode hex="007B"/>
  <outline>
    <contour>
      <point x="280" y="-108" type="line"/>
      <point x="265" y="-196" type="line"/>
      <point x="197" y="-196" type="line" smooth="yes"/>
      <point x="142" y="-196"/>
      <point x="103" y="-153"/>
      <point x="103" y="-91" type="curve" smooth="yes"/>
      <point x="103" y="-82"/>
      <point x="104" y="-70"/>
      <point x="106" y="-59" type="curve" smooth="yes"/>
      <point x="141" y="141" type="line" smooth="yes"/>
      <point x="142" y="147"/>
      <point x="143" y="153"/>
      <point x="143" y="157" type="curve" smooth="yes"/>
      <point x="145" y="191"/>
      <point x="120" y="214"/>
      <point x="77" y="217" type="curve"/>
      <point x="93" y="309" type="line"/>
      <point x="141" y="311"/>
      <point x="176" y="341"/>
      <point x="183" y="385" type="curve" smooth="yes"/>
      <point x="218" y="585" type="line" smooth="yes"/>
      <point x="232" y="663"/>
      <point x="291" y="722"/>
      <point x="357" y="722" type="curve" smooth="yes"/>
      <point x="425" y="722" type="line"/>
      <point x="410" y="634" type="line"/>
      <point x="373" y="634" type="line" smooth="yes"/>
      <point x="340" y="634"/>
      <point x="323" y="615"/>
      <point x="315" y="568" type="curve" smooth="yes"/>
      <point x="281" y="372" type="line"/>
      <point x="268" y="313"/>
      <point x="220" y="269"/>
      <point x="164" y="263" type="curve"/>
      <point x="190" y="258"/>
      <point x="202" y="253"/>
      <point x="214" y="242" type="curve" smooth="yes"/>
      <point x="233" y="225"/>
      <point x="245" y="198"/>
      <point x="245" y="170" type="curve" smooth="yes"/>
      <point x="245" y="167"/>
      <point x="244" y="160"/>
      <point x="243" y="154" type="curve" smooth="yes"/>
      <point x="209" y="-42" type="line" smooth="yes"/>
      <point x="207" y="-53"/>
      <point x="206" y="-63"/>
      <point x="206" y="-70" type="curve" smooth="yes"/>
      <point x="206" y="-95"/>
      <point x="219" y="-108"/>
      <point x="243" y="-108" type="curve" smooth="yes"/>
    </contour>
  </outline>
</glyph>
<glyph name="bar" format="1">
  <advance width="230"/>
  <unicode hex="007C"/>
  <outline>
    <contour>
      <point x="66" y="-19" type="line"/>
      <point x="197" y="737" type="line"/>
      <point x="289" y="737" type="line"/>
      <point x="158" y="-19" type="line"/>
    </contour>
  </outline>
</glyph>
<glyph name="braceright" format="1">
  <advance width="319"/>
  <unicode hex="007D"/>
  <outline>
    <contour>
      <point x="333" y="309" type="curve"/>
      <point x="317" y="217" type="line"/>
      <point x="270" y="215"/>
      <point x="234" y="185"/>
      <point x="227" y="141" type="curve" smooth="yes"/>
      <point x="192" y="-59" type="line" smooth="yes"/>
      <point x="179" y="-137"/>
      <point x="119" y="-196"/>
      <point x="54" y="-196" type="curve" smooth="yes"/>
      <point x="-14" y="-196" type="line"/>
      <point x="1" y="-108" type="line"/>
      <point x="38" y="-108" type="line" smooth="yes"/>
      <point x="70" y="-108"/>
      <point x="87" y="-88"/>
      <point x="95" y="-42" type="curve" smooth="yes"/>
      <point x="129" y="154" type="line"/>
      <point x="143" y="213"/>
      <point x="190" y="257"/>
      <point x="246" y="263" type="curve"/>
      <point x="220" y="268"/>
      <point x="209" y="273"/>
      <point x="196" y="284" type="curve" smooth="yes"/>
      <point x="178" y="301"/>
      <point x="166" y="328"/>
      <point x="166" y="356" type="curve" smooth="yes"/>
      <point x="166" y="362"/>
      <point x="166" y="367"/>
      <point x="167" y="372" type="curve" smooth="yes"/>
      <point x="201" y="568" type="line" smooth="yes"/>
      <point x="203" y="578"/>
      <point x="204" y="587"/>
      <point x="204" y="596" type="curve" smooth="yes"/>
      <point x="204" y="621"/>
      <point x="191" y="634"/>
      <point x="167" y="634" type="curve" smooth="yes"/>
      <point x="130" y="634" type="line"/>
      <point x="146" y="722" type="line"/>
      <point x="213" y="722" type="line" smooth="yes"/>
      <point x="268" y="722"/>
      <point x="307" y="679"/>
      <point x="307" y="617" type="curve" smooth="yes"/>
      <point x="307" y="607"/>
      <point x="306" y="596"/>
      <point x="304" y="585" type="curve" smooth="yes"/>
      <point x="269" y="385" type="line" smooth="yes"/>
      <point x="268" y="379"/>
      <point x="268" y="375"/>
      <point x="268" y="369" type="curve" smooth="yes"/>
      <point x="268" y="333"/>
      <point x="291" y="312"/>
    </contour>
  </outline>
</glyph>
<glyph name="asciitilde" format="1">
  <advance width="479"/>
  <unicode hex="007E"/>
  <outline>
    <contour>
      <point x="431" y="321" type="curve"/>
      <point x="473" y="267" type="line"/>
      <point x="428" y="199"/>
      <point x="395" y="173"/>
      <point x="350" y="173" type="curve" smooth="yes"/>
      <point x="328" y="173"/>
      <point x="308" y="180"/>
      <point x="277" y="198" type="curve" smooth="yes"/>
      <point x="244" y="217"/>
      <point x="223" y="224"/>
      <point x="198" y="224" type="curve" smooth="yes"/>
      <point x="172" y="224"/>
      <point x="158" y="216"/>
      <point x="136" y="187" type="curve"/>
      <point x="94" y="242" type="line"/>
      <point x="139" y="311"/>
      <point x="173" y="336"/>
      <point x="218" y="336" type="curve" smooth="yes"/>
      <point x="239" y="336"/>
      <point x="259" y="329"/>
      <point x="290" y="311" type="curve" smooth="yes"/>
      <point x="323" y="292"/>
      <point x="344" y="285"/>
      <point x="369" y="285" type="curve" smooth="yes"/>
      <point x="395" y="285"/>
      <point x="409" y="294"/>
    </contour>
  </outline>
</glyph>
<glyph name="cent" format="1">
  <advance width="456"/>
  <unicode hex="00A2"/>
  <outline>
    <contour>
      <point x="489" y="342" type="curve"/>
      <point x="373" y="342" type="line"/>
      <point x="373" y="373"/>
      <point x="368" y="396"/>
      <point x="357" y="410" type="curve"/>
      <point x="233" y="105" type="line"/>
      <point x="238" y="102"/>
      <point x="244" y="101"/>
      <point x="251" y="101" type="curve" smooth="yes"/>
      <point x="294" y="101"/>
      <point x="332" y="138"/>
      <point x="346" y="194" type="curve"/>
      <point x="463" y="194" type="line"/>
      <point x="422" y="59"/>
      <point x="339" y="-14"/>
      <point x="227" y="-14" type="curve" smooth="yes"/>
      <point x="212" y="-14"/>
      <point x="198" y="-13"/>
      <point x="186" y="-10" type="curve"/>
      <point x="142" y="-118" type="line"/>
      <point x="100" y="-118" type="line"/>
      <point x="148" y="2" type="line"/>
      <point x="121" y="18"/>
      <point x="108" y="29"/>
      <point x="97" y="46" type="curve" smooth="yes"/>
      <point x="76" y="80"/>
      <point x="65" y="123"/>
      <point x="65" y="168" type="curve" smooth="yes"/>
      <point x="65" y="268"/>
      <point x="101" y="388"/>
      <point x="150" y="453" type="curve" smooth="yes"/>
      <point x="197" y="515"/>
      <point x="258" y="546"/>
      <point x="332" y="546" type="curve" smooth="yes"/>
      <point x="342" y="546"/>
      <point x="356" y="545"/>
      <point x="369" y="543" type="curve"/>
      <point x="403" y="628" type="line"/>
      <point x="446" y="628" type="line"/>
      <point x="406" y="530" type="line"/>
      <point x="434" y="515"/>
      <point x="447" y="505"/>
      <point x="459" y="488" type="curve" smooth="yes"/>
      <point x="480" y="460"/>
      <point x="491" y="423"/>
      <point x="491" y="384" type="curve" smooth="yes"/>
      <point x="491" y="373"/>
      <point x="490" y="358"/>
    </contour>
    <contour>
      <point x="200" y="129" type="curve"/>
      <point x="322" y="428" type="line"/>
      <point x="312" y="428" type="line" smooth="yes"/>
      <point x="275" y="428"/>
      <point x="244" y="405"/>
      <point x="222" y="361" type="curve"/>
      <point x="200" y="320"/>
      <point x="185" y="248"/>
      <point x="185" y="192" type="curve" smooth="yes"/>
      <point x="185" y="166"/>
      <point x="189" y="149"/>
    </contour>
  </outline>
</glyph>
<glyph name="brokenbar" format="1">
  <advance width="230"/>
  <unicode hex="00A6"/>
  <outline>
    <contour>
      <point x="66" y="-19" type="line"/>
      <point x="116" y="271" type="line"/>
      <point x="208" y="271" type="line"/>
      <point x="158" y="-19" type="line"/>
    </contour>
    <contour>
      <point x="147" y="447" type="line"/>
      <point x="197" y="737" type="line"/>
      <point x="289" y="737" type="line"/>
      <point x="239" y="447" type="line"/>
    </contour>
  </outline>
</glyph>
<glyph name="dieresis" format="1">
  <advance width="273"/>
  <unicode hex="00A8"/>
  <outline>
    <contour>
      <point x="235" y="729" type="line"/>
      <point x="215" y="614" type="line"/>
      <point x="112" y="614" type="line"/>
      <point x="132" y="729" type="line"/>
    </contour>
    <contour>
      <point x="395" y="729" type="line"/>
      <point x="375" y="614" type="line"/>
      <point x="272" y="614" type="line"/>
      <point x="292" y="729" type="line"/>
    </contour>
  </outline>
</glyph>
<glyph name="ordfeminine" format="1">
  <advance width="303"/>
  <unicode hex="00AA"/>
  <outline>
    <contour>
      <point x="209" y="625" type="curve"/>
      <point x="137" y="625" type="line"/>
      <point x="161" y="705"/>
      <point x="201" y="737"/>
      <point x="280" y="737" type="curve" smooth="yes"/>
      <point x="345" y="737"/>
      <point x="381" y="710"/>
      <point x="381" y="663" type="curve" smooth="yes"/>
      <point x="381" y="657"/>
      <point x="380" y="650"/>
      <point x="379" y="644" type="curve" smooth="yes"/>
      <point x="349" y="471" type="line" smooth="yes"/>
      <point x="347" y="460"/>
      <point x="346" y="449"/>
      <point x="346" y="444" type="curve" smooth="yes"/>
      <point x="346" y="432"/>
      <point x="350" y="425"/>
      <point x="358" y="422" type="curve"/>
      <point x="356" y="409" type="line"/>
      <point x="275" y="409" type="line"/>
      <point x="274" y="417"/>
      <point x="274" y="421"/>
      <point x="274" y="426" type="curve" smooth="yes"/>
      <point x="274" y="431"/>
      <point x="274" y="436"/>
      <point x="275" y="447" type="curve"/>
      <point x="240" y="413"/>
      <point x="214" y="401"/>
      <point x="177" y="401" type="curve" smooth="yes"/>
      <point x="131" y="401"/>
      <point x="102" y="428"/>
      <point x="102" y="472" type="curve" smooth="yes"/>
      <point x="102" y="536"/>
      <point x="145" y="588"/>
      <point x="206" y="598" type="curve" smooth="yes"/>
      <point x="275" y="609" type="line" smooth="yes"/>
      <point x="297" y="613"/>
      <point x="306" y="621"/>
      <point x="306" y="639" type="curve" smooth="yes"/>
      <point x="306" y="657"/>
      <point x="293" y="666"/>
      <point x="266" y="666" type="curve" smooth="yes"/>
      <point x="234" y="666"/>
      <point x="219" y="656"/>
    </contour>
    <contour>
      <point x="286" y="525" type="curve" smooth="yes"/>
      <point x="293" y="565" type="line"/>
      <point x="281" y="557"/>
      <point x="268" y="553"/>
      <point x="240" y="548" type="curve" smooth="yes"/>
      <point x="200" y="541"/>
      <point x="181" y="522"/>
      <point x="181" y="490" type="curve" smooth="yes"/>
      <point x="181" y="473"/>
      <point x="192" y="462"/>
      <point x="210" y="462" type="curve" smooth="yes"/>
      <point x="246" y="462"/>
      <point x="280" y="490"/>
    </contour>
    <contour>
      <point x="89" y="356" type="line"/>
      <point x="335" y="356" type="line"/>
      <point x="321" y="276" type="line"/>
      <point x="75" y="276" type="line"/>
    </contour>
  </outline>
</glyph>
<glyph name="logicalnot" format="1">
  <advance width="479"/>
  <unicode hex="00AC"/>
  <outline>
    <contour>
      <point x="373" y="108" type="line"/>
      <point x="408" y="307" type="line"/>
      <point x="86" y="307" type="line"/>
      <point x="106" y="419" type="line"/>
      <point x="519" y="419" type="line"/>
      <point x="465" y="108" type="line"/>
    </contour>
  </outline>
</glyph>
<glyph name="registered" format="1">
  <advance width="604"/>
  <unicode hex="00AE"/>
  <outline>
    <contour>
      <point x="307" y="327" type="line"/>
      <point x="278" y="156" type="line"/>
      <point x="206" y="156" type="line"/>
      <point x="277" y="563" type="line"/>
      <point x="402" y="563" type="line" smooth="yes"/>
      <point x="483" y="563"/>
      <point x="521" y="535"/>
      <point x="521" y="474" type="curve" smooth="yes"/>
      <point x="521" y="432"/>
      <point x="506" y="388"/>
      <point x="484" y="364" type="curve" smooth="yes"/>
      <point x="467" y="346"/>
      <point x="450" y="338"/>
      <point x="419" y="334" type="curve"/>
      <point x="473" y="156" type="line"/>
      <point x="388" y="156" type="line"/>
      <point x="341" y="327" type="line"/>
    </contour>
    <contour>
      <point x="319" y="396" type="line"/>
      <point x="383" y="396" type="line" smooth="yes"/>
      <point x="408" y="396"/>
      <point x="422" y="402"/>
      <point x="432" y="416" type="curve" smooth="yes"/>
      <point x="439" y="426"/>
      <point x="444" y="445"/>
      <point x="444" y="459" type="curve" smooth="yes"/>
      <point x="444" y="484"/>
      <point x="427" y="494"/>
      <point x="387" y="494" type="curve" smooth="yes"/>
      <point x="337" y="494" type="line"/>
    </contour>
    <contour>
      <point x="431" y="737" type="curve" smooth="yes"/>
      <point x="582" y="737"/>
      <point x="684" y="621"/>
      <point x="684" y="449" type="curve" smooth="yes"/>
      <point x="684" y="195"/>
      <point x="507" y="-19"/>
      <point x="298" y="-19" type="curve" smooth="yes"/>
      <point x="146" y="-19"/>
      <point x="45" y="97"/>
      <point x="45" y="269" type="curve" smooth="yes"/>
      <point x="45" y="523"/>
      <point x="221" y="737"/>
    </contour>
    <contour>
      <point x="414" y="649" type="curve" smooth="yes"/>
      <point x="266" y="649"/>
      <point x="136" y="480"/>
      <point x="136" y="287" type="curve" smooth="yes"/>
      <point x="136" y="155"/>
      <point x="206" y="69"/>
      <point x="314" y="69" type="curve" smooth="yes"/>
      <point x="462" y="69"/>
      <point x="592" y="238"/>
      <point x="592" y="429" type="curve" smooth="yes"/>
      <point x="592" y="561"/>
      <point x="520" y="649"/>
    </contour>
  </outline>
</glyph>
<glyph name="plusminus" format="1">
  <advance width="479"/>
  <unicode hex="00B1"/>
  <outline>
    <contour>
      <point x="260" y="381" type="line"/>
      <point x="294" y="578" type="line"/>
      <point x="386" y="578" type="line"/>
      <point x="352" y="381" type="line"/>
      <point x="512" y="381" type="line"/>
      <point x="493" y="269" type="line"/>
      <point x="332" y="269" type="line"/>
      <point x="310" y="143" type="line"/>
      <point x="218" y="143" type="line"/>
      <point x="240" y="269" type="line"/>
      <point x="80" y="269" type="line"/>
      <point x="99" y="381" type="line"/>
    </contour>
    <contour>
      <point x="33" y="0" type="line"/>
      <point x="52" y="112" type="line"/>
      <point x="465" y="112" type="line"/>
      <point x="446" y="0" type="line"/>
    </contour>
  </outline>
</glyph>
<glyph name="twosuperior" format="1">
  <advance width="273"/>
  <unicode hex="00B2"/>
  <outline>
    <contour>
      <point x="181" y="558" type="curve"/>
      <point x="109" y="558" type="line"/>
      <point x="119" y="609"/>
      <point x="129" y="634"/>
      <point x="148" y="662" type="curve" smooth="yes"/>
      <point x="175" y="700"/>
      <point x="217" y="722"/>
      <point x="261" y="722" type="curve" smooth="yes"/>
      <point x="326" y="722"/>
      <point x="368" y="676"/>
      <point x="368" y="606" type="curve" smooth="yes"/>
      <point x="368" y="561"/>
      <point x="351" y="516"/>
      <point x="322" y="481" type="curve"/>
      <point x="303" y="460"/>
      <point x="301" y="458"/>
      <point x="239" y="416" type="curve" smooth="yes"/>
      <point x="211" y="396"/>
      <point x="188" y="377"/>
      <point x="177" y="365" type="curve"/>
      <point x="330" y="365" type="line"/>
      <point x="315" y="283" type="line"/>
      <point x="57" y="283" type="line"/>
      <point x="77" y="370"/>
      <point x="107" y="409"/>
      <point x="212" y="482" type="curve"/>
      <point x="267" y="522"/>
      <point x="290" y="555"/>
      <point x="290" y="593" type="curve" smooth="yes"/>
      <point x="290" y="622"/>
      <point x="273" y="643"/>
      <point x="248" y="643" type="curve" smooth="yes"/>
      <point x="213" y="643"/>
      <point x="192" y="617"/>
    </contour>
  </outline>
</glyph>
<glyph name="threesuperior" format="1">
  <advance width="273"/>
  <unicode hex="00B3"/>
  <outline>
    <contour>
      <point x="78" y="425" type="curve"/>
      <point x="151" y="425" type="line"/>
      <point x="150" y="416"/>
      <point x="149" y="408"/>
      <point x="149" y="403" type="curve" smooth="yes"/>
      <point x="149" y="366"/>
      <point x="165" y="346"/>
      <point x="194" y="346" type="curve" smooth="yes"/>
      <point x="232" y="346"/>
      <point x="259" y="383"/>
      <point x="259" y="435" type="curve" smooth="yes"/>
      <point x="259" y="467"/>
      <point x="240" y="479"/>
      <point x="187" y="479" type="curve"/>
      <point x="198" y="543" type="line"/>
      <point x="210" y="543" type="line" smooth="yes"/>
      <point x="258" y="543"/>
      <point x="281" y="565"/>
      <point x="281" y="610" type="curve" smooth="yes"/>
      <point x="281" y="634"/>
      <point x="268" y="647"/>
      <point x="244" y="647" type="curve" smooth="yes"/>
      <point x="211" y="647"/>
      <point x="190" y="627"/>
      <point x="182" y="585" type="curve"/>
      <point x="112" y="585" type="line"/>
      <point x="121" y="625"/>
      <point x="129" y="645"/>
      <point x="147" y="668" type="curve" smooth="yes"/>
      <point x="173" y="702"/>
      <point x="214" y="722"/>
      <point x="259" y="722" type="curve" smooth="yes"/>
      <point x="322" y="722"/>
      <point x="361" y="687"/>
      <point x="361" y="630" type="curve" smooth="yes"/>
      <point x="361" y="579"/>
      <point x="339" y="541"/>
      <point x="297" y="520" type="curve"/>
      <point x="327" y="507"/>
      <point x="341" y="484"/>
      <point x="341" y="446" type="curve" smooth="yes"/>
      <point x="341" y="350"/>
      <point x="269" y="271"/>
      <point x="181" y="271" type="curve" smooth="yes"/>
      <point x="115" y="271"/>
      <point x="75" y="312"/>
      <point x="75" y="379" type="curve" smooth="yes"/>
      <point x="75" y="390"/>
      <point x="76" y="408"/>
    </contour>
  </outline>
</glyph>
<glyph name="cedilla" format="1">
  <advance width="273"/>
  <unicode hex="00B8"/>
  <outline>
    <contour>
      <point x="28" y="-84" type="line"/>
      <point x="88" y="0" type="line"/>
      <point x="136" y="0" type="line"/>
      <point x="96" y="-55" type="line"/>
      <point x="106" y="-52"/>
      <point x="113" y="-51"/>
      <point x="120" y="-51" type="curve" smooth="yes"/>
      <point x="156" y="-51"/>
      <point x="180" y="-76"/>
      <point x="180" y="-111" type="curve" smooth="yes"/>
      <point x="180" y="-176"/>
      <point x="126" y="-228"/>
      <point x="57" y="-228" type="curve" smooth="yes"/>
      <point x="30" y="-228"/>
      <point x="12" y="-223"/>
      <point x="-30" y="-203" type="curve"/>
      <point x="-4" y="-155" type="line"/>
      <point x="26" y="-166"/>
      <point x="43" y="-171"/>
      <point x="56" y="-171" type="curve" smooth="yes"/>
      <point x="81" y="-171"/>
      <point x="103" y="-149"/>
      <point x="103" y="-124" type="curve" smooth="yes"/>
      <point x="103" y="-107"/>
      <point x="92" y="-96"/>
      <point x="76" y="-96" type="curve" smooth="yes"/>
      <point x="69" y="-96"/>
      <point x="57" y="-99"/>
      <point x="42" y="-104" type="curve"/>
    </contour>
  </outline>
</glyph>
<glyph name="onesuperior" format="1">
  <advance width="273"/>
  <unicode hex="00B9"/>
  <outline>
    <contour>
      <point x="121" y="574" type="line"/>
      <point x="132" y="636" type="line"/>
      <point x="143" y="636" type="line" smooth="yes"/>
      <point x="200" y="636"/>
      <point x="235" y="661"/>
      <point x="248" y="710" type="curve"/>
      <point x="318" y="710" type="line"/>
      <point x="243" y="283" type="line"/>
      <point x="161" y="283" type="line"/>
      <point x="211" y="574" type="line"/>
    </contour>
  </outline>
</glyph>
<glyph name="ordmasculine" format="1">
  <advance width="299"/>
  <unicode hex="00BA"/>
  <outline>
    <contour>
      <point x="279" y="737" type="curve" smooth="yes"/>
      <point x="353" y="737"/>
      <point x="398" y="688"/>
      <point x="398" y="606" type="curve" smooth="yes"/>
      <point x="398" y="493"/>
      <point x="318" y="401"/>
      <point x="220" y="401" type="curve" smooth="yes"/>
      <point x="146" y="401"/>
      <point x="101" y="450"/>
      <point x="101" y="531" type="curve" smooth="yes"/>
      <point x="101" y="644"/>
      <point x="181" y="737"/>
    </contour>
    <contour>
      <point x="266" y="665" type="curve" smooth="yes"/>
      <point x="221" y="665"/>
      <point x="182" y="608"/>
      <point x="182" y="541" type="curve" smooth="yes"/>
      <point x="182" y="499"/>
      <point x="201" y="473"/>
      <point x="233" y="473" type="curve" smooth="yes"/>
      <point x="278" y="473"/>
      <point x="317" y="530"/>
      <point x="317" y="597" type="curve" smooth="yes"/>
      <point x="317" y="639"/>
      <point x="297" y="665"/>
    </contour>
    <contour>
      <point x="89" y="356" type="line"/>
      <point x="335" y="356" type="line"/>
      <point x="321" y="276" type="line"/>
      <point x="75" y="276" type="line"/>
    </contour>
  </outline>
</glyph>
<glyph name="onequarter" format="1">
  <advance width="684"/>
  <unicode hex="00BC"/>
  <outline>
    <contour>
      <point x="661" y="424" type="line"/>
      <point x="615" y="159" type="line"/>
      <point x="656" y="159" type="line"/>
      <point x="644" y="90" type="line"/>
      <point x="603" y="90" type="line"/>
      <point x="587" y="0" type="line"/>
      <point x="509" y="0" type="line"/>
      <point x="525" y="90" type="line"/>
      <point x="375" y="90" type="line"/>
      <point x="388" y="164" type="line"/>
      <point x="572" y="424" type="line"/>
    </contour>
    <contour>
      <point x="445" y="157" type="line"/>
      <point x="540" y="157" type="line"/>
      <point x="559" y="264"/>
      <point x="563" y="288"/>
      <point x="574" y="343" type="curve"/>
    </contour>
    <contour>
      <point x="108" y="-19" type="line"/>
      <point x="586" y="710" type="line"/>
      <point x="650" y="710" type="line"/>
      <point x="173" y="-19" type="line"/>
    </contour>
    <contour>
      <point x="121" y="574" type="line"/>
      <point x="132" y="636" type="line"/>
      <point x="143" y="636" type="line" smooth="yes"/>
      <point x="200" y="636"/>
      <point x="235" y="661"/>
      <point x="248" y="710" type="curve"/>
      <point x="318" y="710" type="line"/>
      <point x="244" y="283" type="line"/>
      <point x="161" y="283" type="line"/>
      <point x="211" y="574" type="line"/>
    </contour>
  </outline>
</glyph>
<glyph name="onehalf" format="1">
  <advance width="684"/>
  <unicode hex="00BD"/>
  <outline>
    <contour>
      <point x="108" y="-19" type="line"/>
      <point x="586" y="710" type="line"/>
      <point x="650" y="710" type="line"/>
      <point x="173" y="-19" type="line"/>
    </contour>
    <contour>
      <point x="121" y="574" type="line"/>
      <point x="132" y="636" type="line"/>
      <point x="143" y="636" type="line" smooth="yes"/>
      <point x="200" y="636"/>
      <point x="235" y="661"/>
      <point x="248" y="710" type="curve"/>
      <point x="318" y="710" type="line"/>
      <point x="244" y="283" type="line"/>
      <point x="161" y="283" type="line"/>
      <point x="211" y="574" type="line"/>
    </contour>
    <contour>
      <point x="517" y="275" type="curve"/>
      <point x="445" y="275" type="line"/>
      <point x="455" y="326"/>
      <point x="464" y="351"/>
      <point x="484" y="379" type="curve" smooth="yes"/>
      <point x="510" y="417"/>
      <point x="552" y="439"/>
      <point x="597" y="439" type="curve" smooth="yes"/>
      <point x="662" y="439"/>
      <point x="704" y="393"/>
      <point x="704" y="323" type="curve" smooth="yes"/>
      <point x="704" y="278"/>
      <point x="687" y="233"/>
      <point x="658" y="198" type="curve"/>
      <point x="639" y="177"/>
      <point x="637" y="175"/>
      <point x="575" y="133" type="curve" smooth="yes"/>
      <point x="549" y="115"/>
      <point x="523" y="93"/>
      <point x="513" y="82" type="curve"/>
      <point x="666" y="82" type="line"/>
      <point x="651" y="0" type="line"/>
      <point x="393" y="0" type="line"/>
      <point x="412" y="87"/>
      <point x="443" y="126"/>
      <point x="548" y="199" type="curve"/>
      <point x="603" y="239"/>
      <point x="626" y="272"/>
      <point x="626" y="310" type="curve" smooth="yes"/>
      <point x="626" y="339"/>
      <point x="609" y="360"/>
      <point x="584" y="360" type="curve" smooth="yes"/>
      <point x="549" y="360"/>
      <point x="528" y="334"/>
    </contour>
  </outline>
</glyph>
<glyph name="threequarters" format="1">
  <advance width="684"/>
  <unicode hex="00BE"/>
  <outline>
    <contour>
      <point x="688" y="424" type="line"/>
      <point x="642" y="159" type="line"/>
      <point x="683" y="159" type="line"/>
      <point x="671" y="90" type="line"/>
      <point x="630" y="90" type="line"/>
      <point x="614" y="0" type="line"/>
      <point x="536" y="0" type="line"/>
      <point x="552" y="90" type="line"/>
      <point x="402" y="90" type="line"/>
      <point x="415" y="164" type="line"/>
      <point x="599" y="424" type="line"/>
    </contour>
    <contour>
      <point x="472" y="159" type="line"/>
      <point x="564" y="159" type="line"/>
      <point x="582" y="260"/>
      <point x="587" y="290"/>
      <point x="597" y="339" type="curve"/>
    </contour>
    <contour>
      <point x="144" y="-19" type="line"/>
      <point x="622" y="710" type="line"/>
      <point x="686" y="710" type="line"/>
      <point x="209" y="-19" type="line"/>
    </contour>
    <contour>
      <point x="85" y="425" type="curve"/>
      <point x="159" y="425" type="line"/>
      <point x="157" y="415"/>
      <point x="156" y="406"/>
      <point x="156" y="401" type="curve" smooth="yes"/>
      <point x="156" y="366"/>
      <point x="172" y="346"/>
      <point x="201" y="346" type="curve" smooth="yes"/>
      <point x="239" y="346"/>
      <point x="265" y="383"/>
      <point x="265" y="435" type="curve" smooth="yes"/>
      <point x="265" y="467"/>
      <point x="247" y="479"/>
      <point x="194" y="479" type="curve"/>
      <point x="205" y="543" type="line"/>
      <point x="217" y="543" type="line" smooth="yes"/>
      <point x="265" y="543"/>
      <point x="288" y="565"/>
      <point x="288" y="610" type="curve" smooth="yes"/>
      <point x="288" y="635"/>
      <point x="275" y="647"/>
      <point x="251" y="647" type="curve" smooth="yes"/>
      <point x="218" y="647"/>
      <point x="197" y="626"/>
      <point x="189" y="585" type="curve"/>
      <point x="119" y="585" type="line"/>
      <point x="128" y="625"/>
      <point x="136" y="645"/>
      <point x="154" y="668" type="curve" smooth="yes"/>
      <point x="180" y="702"/>
      <point x="221" y="722"/>
      <point x="266" y="722" type="curve" smooth="yes"/>
      <point x="329" y="722"/>
      <point x="368" y="687"/>
      <point x="368" y="630" type="curve" smooth="yes"/>
      <point x="368" y="579"/>
      <point x="346" y="541"/>
      <point x="304" y="520" type="curve"/>
      <point x="333" y="507"/>
      <point x="347" y="484"/>
      <point x="347" y="446" type="curve" smooth="yes"/>
      <point x="347" y="350"/>
      <point x="275" y="271"/>
      <point x="188" y="271" type="curve" smooth="yes"/>
      <point x="123" y="271"/>
      <point x="82" y="312"/>
      <point x="82" y="378" type="curve" smooth="yes"/>
      <point x="82" y="390"/>
      <point x="83" y="407"/>
    </contour>
  </outline>
</glyph>
<glyph name="Egrave" format="1">
  <advance width="547"/>
  <unicode hex="00C8"/>
  <outline>
    <contour>
      <point x="620" y="718" type="line"/>
      <point x="598" y="591" type="line"/>
      <point x="285" y="591" type="line"/>
      <point x="259" y="440" type="line"/>
      <point x="546" y="440" type="line"/>
      <point x="524" y="313" type="line"/>
      <point x="237" y="313" type="line"/>
      <point x="205" y="127" type="line"/>
      <point x="531" y="127" type="line"/>
      <point x="509" y="0" type="line"/>
      <point x="62" y="0" type="line"/>
      <point x="187" y="718" type="line"/>
    </contour>
    <contour>
      <point x="376" y="790" type="line"/>
      <point x="281" y="936" type="line"/>
      <point x="407" y="936" type="line"/>
      <point x="459" y="790" type="line"/>
    </contour>
  </outline>
</glyph>
<glyph name="Igrave" format="1">
  <advance width="228"/>
  <unicode hex="00CC"/>
  <outline>
    <contour>
      <point x="301" y="718" type="line"/>
      <point x="175" y="0" type="line"/>
      <point x="52" y="0" type="line"/>
      <point x="178" y="718" type="line"/>
    </contour>
    <contour>
      <point x="217" y="790" type="line"/>
      <point x="122" y="936" type="line"/>
      <point x="248" y="936" type="line"/>
      <point x="300" y="790" type="line"/>
    </contour>
  </outline>
</glyph>
<glyph name="Iacute" format="1">
  <advance width="228"/>
  <unicode hex="00CD"/>
  <outline>
    <contour>
      <point x="301" y="718" type="line"/>
      <point x="175" y="0" type="line"/>
      <point x="52" y="0" type="line"/>
      <point x="178" y="718" type="line"/>
    </contour>
    <contour>
      <point x="433" y="936" type="line"/>
      <point x="287" y="790" type="line"/>
      <point x="204" y="790" type="line"/>
      <point x="307" y="936" type="line"/>
    </contour>
  </outline>
</glyph>
<glyph name="Icircumflex" format="1">
  <advance width="228"/>
  <unicode hex="00CE"/>
  <outline>
    <contour>
      <point x="301" y="718" type="line"/>
      <point x="175" y="0" type="line"/>
      <point x="52" y="0" type="line"/>
      <point x="178" y="718" type="line"/>
    </contour>
    <contour>
      <point x="329" y="936" type="line"/>
      <point x="397" y="790" type="line"/>
      <point x="304" y="790" type="line"/>
      <point x="266" y="872" type="line"/>
      <point x="200" y="790" type="line"/>
      <point x="107" y="790" type="line"/>
      <point x="226" y="936" type="line"/>
    </contour>
  </outline>
</glyph>
<glyph name="Ntilde" format="1">
  <advance width="592"/>
  <unicode hex="00D1"/>
  <outline>
    <contour>
      <point x="459" y="214" type="line"/>
      <point x="546" y="718" type="line"/>
      <point x="661" y="718" type="line"/>
      <point x="536" y="0" type="line"/>
      <point x="413" y="0" type="line"/>
      <point x="261" y="515" type="line"/>
      <point x="172" y="0" type="line"/>
      <point x="57" y="0" type="line"/>
      <point x="182" y="718" type="line"/>
      <point x="311" y="718" type="line"/>
    </contour>
    <contour>
      <point x="555" y="923" type="curve"/>
      <point x="608" y="923" type="line"/>
      <point x="581" y="843"/>
      <point x="544" y="803"/>
      <point x="498" y="803" type="curve" smooth="yes"/>
      <point x="481" y="803"/>
      <point x="453" y="812"/>
      <point x="419" y="828" type="curve" smooth="yes"/>
      <point x="401" y="836"/>
      <point x="391" y="839"/>
      <point x="383" y="839" type="curve" smooth="yes"/>
      <point x="364" y="839"/>
      <point x="348" y="824"/>
      <point x="337" y="796" type="curve"/>
      <point x="285" y="796" type="line"/>
      <point x="315" y="881"/>
      <point x="352" y="919"/>
      <point x="405" y="919" type="curve" smooth="yes"/>
      <point x="421" y="919"/>
      <point x="429" y="916"/>
      <point x="461" y="900" type="curve" smooth="yes"/>
      <point x="488" y="887"/>
      <point x="498" y="883"/>
      <point x="509" y="883" type="curve" smooth="yes"/>
      <point x="530" y="883"/>
      <point x="544" y="895"/>
    </contour>
  </outline>
</glyph>
<glyph name="Oslash" format="1">
  <advance width="638"/>
  <unicode hex="00D8"/>
  <outline>
    <contour>
      <point x="733" y="707" type="line"/>
      <point x="648" y="615" type="line"/>
      <point x="669" y="563"/>
      <point x="675" y="530"/>
      <point x="675" y="473" type="curve" smooth="yes"/>
      <point x="675" y="346"/>
      <point x="630" y="197"/>
      <point x="567" y="114" type="curve" smooth="yes"/>
      <point x="503" y="30"/>
      <point x="410" y="-19"/>
      <point x="316" y="-19" type="curve" smooth="yes"/>
      <point x="278" y="-19"/>
      <point x="241" y="-11"/>
      <point x="208" y="6" type="curve" smooth="yes"/>
      <point x="182" y="19"/>
      <point x="167" y="31"/>
      <point x="140" y="63" type="curve"/>
      <point x="57" y="-27" type="line"/>
      <point x="29" y="11" type="line"/>
      <point x="115" y="104" type="line"/>
      <point x="95" y="154"/>
      <point x="88" y="189"/>
      <point x="88" y="246" type="curve" smooth="yes"/>
      <point x="88" y="373"/>
      <point x="133" y="522"/>
      <point x="196" y="604" type="curve"/>
      <point x="259" y="688"/>
      <point x="353" y="737"/>
      <point x="446" y="737" type="curve" smooth="yes"/>
      <point x="483" y="737"/>
      <point x="520" y="729"/>
      <point x="552" y="713" type="curve" smooth="yes"/>
      <point x="579" y="700"/>
      <point x="594" y="688"/>
      <point x="623" y="656" type="curve"/>
      <point x="705" y="745" type="line"/>
    </contour>
    <contour>
      <point x="219" y="218" type="curve"/>
      <point x="526" y="551" type="line"/>
      <point x="499" y="593"/>
      <point x="469" y="610"/>
      <point x="425" y="610" type="curve" smooth="yes"/>
      <point x="362" y="610"/>
      <point x="299" y="564"/>
      <point x="264" y="493" type="curve"/>
      <point x="234" y="429"/>
      <point x="214" y="344"/>
      <point x="214" y="274" type="curve" smooth="yes"/>
      <point x="214" y="253"/>
      <point x="215" y="242"/>
    </contour>
    <contour>
      <point x="543" y="501" type="curve"/>
      <point x="236" y="168" type="line"/>
      <point x="262" y="126"/>
      <point x="293" y="108"/>
      <point x="337" y="108" type="curve" smooth="yes"/>
      <point x="401" y="108"/>
      <point x="464" y="153"/>
      <point x="498" y="224" type="curve" smooth="yes"/>
      <point x="530" y="289"/>
      <point x="549" y="373"/>
      <point x="549" y="444" type="curve" smooth="yes"/>
      <point x="549" y="467"/>
      <point x="548" y="477"/>
    </contour>
  </outline>
</glyph>
<glyph name="Uacute" format="1">
  <advance width="592"/>
  <unicode hex="00DA"/>
  <outline>
    <contour>
      <point x="659" y="718" type="line"/>
      <point x="578" y="251" type="line" smooth="yes"/>
      <point x="547" y="76"/>
      <point x="448" y="-19"/>
      <point x="294" y="-19" type="curve" smooth="yes"/>
      <point x="167" y="-19"/>
      <point x="96" y="49"/>
      <point x="96" y="169" type="curve" smooth="yes"/>
      <point x="96" y="194"/>
      <point x="98" y="218"/>
      <point x="102" y="242" type="curve" smooth="yes"/>
      <point x="185" y="718" type="line"/>
      <point x="310" y="718" type="line"/>
      <point x="229" y="252" type="line" smooth="yes"/>
      <point x="227" y="237"/>
      <point x="225" y="220"/>
      <point x="225" y="208" type="curve" smooth="yes"/>
      <point x="225" y="142"/>
      <point x="256" y="108"/>
      <point x="314" y="108" type="curve" smooth="yes"/>
      <point x="388" y="108"/>
      <point x="436" y="155"/>
      <point x="451" y="245" type="curve" smooth="yes"/>
      <point x="534" y="718" type="line"/>
    </contour>
    <contour>
      <point x="616" y="936" type="line"/>
      <point x="470" y="790" type="line"/>
      <point x="387" y="790" type="line"/>
      <point x="490" y="936" type="line"/>
    </contour>
  </outline>
</glyph>
<glyph name="Thorn" format="1">
  <advance width="547"/>
  <unicode hex="00DE"/>
  <outline>
    <contour>
      <point x="62" y="0" type="line"/>
      <point x="187" y="718" type="line"/>
      <point x="310" y="718" type="line"/>
      <point x="293" y="620" type="line"/>
      <point x="439" y="620" type="line" smooth="yes"/>
      <point x="533" y="620"/>
      <point x="588" y="558"/>
      <point x="588" y="451" type="curve" smooth="yes"/>
      <point x="588" y="378"/>
      <point x="562" y="301"/>
      <point x="520" y="245" type="curve" smooth="yes"/>
      <point x="476" y="188"/>
      <point x="421" y="159"/>
      <point x="354" y="159" type="curve" smooth="yes"/>
      <point x="213" y="159" type="line"/>
      <point x="185" y="0" type="line"/>
    </contour>
    <contour>
      <point x="234" y="283" type="line"/>
      <point x="349" y="283" type="line" smooth="yes"/>
      <point x="393" y="283"/>
      <point x="424" y="301"/>
      <point x="443" y="337" type="curve" smooth="yes"/>
      <point x="455" y="360"/>
      <point x="463" y="396"/>
      <point x="463" y="425" type="curve" smooth="yes"/>
      <point x="463" y="474"/>
      <point x="433" y="496"/>
      <point x="369" y="496" type="curve" smooth="yes"/>
      <point x="272" y="496" type="line"/>
    </contour>
  </outline>
</glyph>
<glyph name="germandbls" format="1">
  <advance width="501"/>
  <unicode hex="00DF"/>
  <outline>
    <contour>
      <point x="228" y="-8" type="curve"/>
      <point x="247" y="102" type="line"/>
      <point x="250" y="102" type="line"/>
      <point x="254" y="101"/>
      <point x="264" y="101"/>
      <point x="271" y="101" type="curve" smooth="yes"/>
      <point x="316" y="101"/>
      <point x="350" y="118"/>
      <point x="373" y="152" type="curve" smooth="yes"/>
      <point x="390" y="178"/>
      <point x="402" y="223"/>
      <point x="402" y="260" type="curve" smooth="yes"/>
      <point x="402" y="318"/>
      <point x="375" y="340"/>
      <point x="295" y="347" type="curve"/>
      <point x="312" y="444" type="line"/>
      <point x="357" y="446"/>
      <point x="376" y="452"/>
      <point x="392" y="469" type="curve" smooth="yes"/>
      <point x="409" y="487"/>
      <point x="421" y="522"/>
      <point x="421" y="556" type="curve" smooth="yes"/>
      <point x="421" y="596"/>
      <point x="396" y="619"/>
      <point x="354" y="619" type="curve" smooth="yes"/>
      <point x="308" y="619"/>
      <point x="273" y="585"/>
      <point x="264" y="530" type="curve" smooth="yes"/>
      <point x="172" y="0" type="line"/>
      <point x="57" y="0" type="line"/>
      <point x="151" y="539" type="line" smooth="yes"/>
      <point x="171" y="656"/>
      <point x="259" y="731"/>
      <point x="377" y="731" type="curve" smooth="yes"/>
      <point x="481" y="731"/>
      <point x="539" y="679"/>
      <point x="539" y="585" type="curve" smooth="yes"/>
      <point x="539" y="506"/>
      <point x="509" y="445"/>
      <point x="453" y="411" type="curve"/>
      <point x="502" y="377"/>
      <point x="520" y="344"/>
      <point x="520" y="285" type="curve" smooth="yes"/>
      <point x="520" y="216"/>
      <point x="491" y="128"/>
      <point x="451" y="76" type="curve" smooth="yes"/>
      <point x="407" y="17"/>
      <point x="345" y="-14"/>
      <point x="274" y="-14" type="curve" smooth="yes"/>
      <point x="260" y="-14"/>
      <point x="252" y="-13"/>
    </contour>
  </outline>
</glyph>
<glyph name="ae" format="1">
  <advance width="729"/>
  <unicode hex="00E6"/>
  <outline>
    <contour>
      <point x="608" y="156" type="curve"/>
      <point x="726" y="156" type="line"/>
      <point x="696" y="90"/>
      <point x="673" y="59"/>
      <point x="632" y="29" type="curve" smooth="yes"/>
      <point x="592" y="0"/>
      <point x="549" y="-14"/>
      <point x="498" y="-14" type="curve" smooth="yes"/>
      <point x="423" y="-14"/>
      <point x="386" y="8"/>
      <point x="357" y="72" type="curve"/>
      <point x="314" y="15"/>
      <point x="252" y="-14"/>
      <point x="176" y="-14" type="curve" smooth="yes"/>
      <point x="91" y="-14"/>
      <point x="46" y="27"/>
      <point x="46" y="105" type="curve" smooth="yes"/>
      <point x="46" y="207"/>
      <point x="102" y="284"/>
      <point x="187" y="301" type="curve" smooth="yes"/>
      <point x="299" y="323" type="line" smooth="yes"/>
      <point x="333" y="330"/>
      <point x="347" y="335"/>
      <point x="355" y="345" type="curve" smooth="yes"/>
      <point x="362" y="353"/>
      <point x="368" y="374"/>
      <point x="368" y="393" type="curve" smooth="yes"/>
      <point x="368" y="419"/>
      <point x="344" y="434"/>
      <point x="302" y="434" type="curve" smooth="yes"/>
      <point x="252" y="434"/>
      <point x="225" y="411"/>
      <point x="215" y="359" type="curve"/>
      <point x="102" y="359" type="line"/>
      <point x="117" y="414"/>
      <point x="130" y="442"/>
      <point x="155" y="473" type="curve" smooth="yes"/>
      <point x="193" y="520"/>
      <point x="254" y="546"/>
      <point x="327" y="546" type="curve" smooth="yes"/>
      <point x="385" y="546"/>
      <point x="421" y="529"/>
      <point x="456" y="487" type="curve"/>
      <point x="511" y="531"/>
      <point x="547" y="546"/>
      <point x="598" y="546" type="curve" smooth="yes"/>
      <point x="699" y="546"/>
      <point x="757" y="474"/>
      <point x="757" y="351" type="curve" smooth="yes"/>
      <point x="757" y="319"/>
      <point x="754" y="286"/>
      <point x="748" y="253" type="curve" smooth="yes"/>
      <point x="744" y="228" type="line"/>
      <point x="444" y="228" type="line"/>
      <point x="443" y="213"/>
      <point x="442" y="197"/>
      <point x="442" y="188" type="curve" smooth="yes"/>
      <point x="442" y="131"/>
      <point x="471" y="98"/>
      <point x="522" y="98" type="curve" smooth="yes"/>
      <point x="561" y="98"/>
      <point x="591" y="118"/>
    </contour>
    <contour>
      <point x="332" y="188" type="curve"/>
      <point x="343" y="255" type="line"/>
      <point x="328" y="241"/>
      <point x="309" y="235"/>
      <point x="253" y="225" type="curve" smooth="yes"/>
      <point x="214" y="218"/>
      <point x="199" y="211"/>
      <point x="186" y="197" type="curve" smooth="yes"/>
      <point x="173" y="182"/>
      <point x="164" y="156"/>
      <point x="164" y="133" type="curve" smooth="yes"/>
      <point x="164" y="104"/>
      <point x="184" y="86"/>
      <point x="215" y="86" type="curve" smooth="yes"/>
      <point x="268" y="86"/>
      <point x="322" y="134"/>
    </contour>
    <contour>
      <point x="464" y="319" type="curve"/>
      <point x="642" y="319" type="line"/>
      <point x="643" y="344" type="line"/>
      <point x="643" y="398"/>
      <point x="616" y="431"/>
      <point x="571" y="431" type="curve" smooth="yes"/>
      <point x="520" y="431"/>
      <point x="487" y="396"/>
    </contour>
  </outline>
</glyph>
<glyph name="icircumflex" format="1">
  <advance width="228"/>
  <unicode hex="00EE"/>
  <outline>
    <contour>
      <point x="150" y="532" type="line"/>
      <point x="264" y="532" type="line"/>
      <point x="171" y="0" type="line"/>
      <point x="57" y="0" type="line"/>
    </contour>
    <contour>
      <point x="297" y="750" type="line"/>
      <point x="365" y="604" type="line"/>
      <point x="272" y="604" type="line"/>
      <point x="234" y="686" type="line"/>
      <point x="168" y="604" type="line"/>
      <point x="75" y="604" type="line"/>
      <point x="194" y="750" type="line"/>
    </contour>
  </outline>
</glyph>
<glyph name="eth" format="1">
  <advance width="501"/>
  <unicode hex="00F0"/>
  <outline>
    <contour>
      <point x="549" y="685" type="line"/>
      <point x="459" y="641" type="line"/>
      <point x="513" y="554"/>
      <point x="534" y="484"/>
      <point x="534" y="388" type="curve" smooth="yes"/>
      <point x="534" y="279"/>
      <point x="499" y="163"/>
      <point x="444" y="91" type="curve" smooth="yes"/>
      <point x="392" y="23"/>
      <point x="323" y="-14"/>
      <point x="248" y="-14" type="curve" smooth="yes"/>
      <point x="136" y="-14"/>
      <point x="67" y="64"/>
      <point x="67" y="189" type="curve" smooth="yes"/>
      <point x="67" y="371"/>
      <point x="182" y="523"/>
      <point x="319" y="523" type="curve" smooth="yes"/>
      <point x="365" y="523"/>
      <point x="393" y="506"/>
      <point x="417" y="460" type="curve"/>
      <point x="406" y="510"/>
      <point x="390" y="545"/>
      <point x="356" y="591" type="curve"/>
      <point x="260" y="544" type="line"/>
      <point x="217" y="596" type="line"/>
      <point x="314" y="643" type="line"/>
      <point x="293" y="664"/>
      <point x="277" y="678"/>
      <point x="262" y="688" type="curve"/>
      <point x="359" y="737" type="line"/>
      <point x="381" y="724"/>
      <point x="397" y="712"/>
      <point x="416" y="693" type="curve"/>
      <point x="507" y="737" type="line"/>
    </contour>
    <contour>
      <point x="323" y="405" type="curve" smooth="yes"/>
      <point x="247" y="405"/>
      <point x="186" y="318"/>
      <point x="186" y="210" type="curve" smooth="yes"/>
      <point x="186" y="142"/>
      <point x="216" y="104"/>
      <point x="270" y="104" type="curve" smooth="yes"/>
      <point x="313" y="104"/>
      <point x="349" y="130"/>
      <point x="374" y="177" type="curve"/>
      <point x="393" y="216"/>
      <point x="405" y="262"/>
      <point x="405" y="301" type="curve" smooth="yes"/>
      <point x="405" y="366"/>
      <point x="374" y="405"/>
    </contour>
  </outline>
</glyph>
<glyph name="ntilde" format="1">
  <advance width="501"/>
  <unicode hex="00F1"/>
  <outline>
    <contour>
      <point x="256" y="532" type="line"/>
      <point x="242" y="451" type="line"/>
      <point x="288" y="519"/>
      <point x="330" y="546"/>
      <point x="391" y="546" type="curve" smooth="yes"/>
      <point x="469" y="546"/>
      <point x="516" y="496"/>
      <point x="516" y="413" type="curve" smooth="yes"/>
      <point x="516" y="399"/>
      <point x="515" y="384"/>
      <point x="512" y="368" type="curve" smooth="yes"/>
      <point x="448" y="0" type="line"/>
      <point x="333" y="0" type="line"/>
      <point x="389" y="323" type="line" smooth="yes"/>
      <point x="392" y="341"/>
      <point x="394" y="358"/>
      <point x="394" y="368" type="curve" smooth="yes"/>
      <point x="394" y="406"/>
      <point x="372" y="428"/>
      <point x="334" y="428" type="curve" smooth="yes"/>
      <point x="278" y="428"/>
      <point x="234" y="381"/>
      <point x="221" y="305" type="curve" smooth="yes"/>
      <point x="168" y="0" type="line"/>
      <point x="53" y="0" type="line"/>
      <point x="146" y="532" type="line"/>
    </contour>
    <contour>
      <point x="476" y="737" type="curve"/>
      <point x="529" y="737" type="line"/>
      <point x="502" y="657"/>
      <point x="465" y="617"/>
      <point x="419" y="617" type="curve" smooth="yes"/>
      <point x="402" y="617"/>
      <point x="374" y="626"/>
      <point x="340" y="642" type="curve" smooth="yes"/>
      <point x="322" y="650"/>
      <point x="312" y="653"/>
      <point x="304" y="653" type="curve" smooth="yes"/>
      <point x="285" y="653"/>
      <point x="269" y="638"/>
      <point x="258" y="610" type="curve"/>
      <point x="206" y="610" type="line"/>
      <point x="236" y="695"/>
      <point x="273" y="733"/>
      <point x="326" y="733" type="curve" smooth="yes"/>
      <point x="342" y="733"/>
      <point x="350" y="730"/>
      <point x="382" y="714" type="curve" smooth="yes"/>
      <point x="409" y="701"/>
      <point x="419" y="697"/>
      <point x="430" y="697" type="curve" smooth="yes"/>
      <point x="451" y="697"/>
      <point x="465" y="709"/>
    </contour>
  </outline>
</glyph>
<glyph name="divide" format="1">
  <advance width="479"/>
  <unicode hex="00F7"/>
  <outline>
    <contour>
      <point x="480" y="197" type="line"/>
      <point x="67" y="197" type="line"/>
      <point x="87" y="309" type="line"/>
      <point x="500" y="309" type="line"/>
    </contour>
    <contour>
      <point x="336" y="548" type="curve" smooth="yes"/>
      <point x="369" y="548"/>
      <point x="394" y="517"/>
      <point x="394" y="476" type="curve" smooth="yes"/>
      <point x="394" y="425"/>
      <point x="348" y="371"/>
      <point x="305" y="371" type="curve" smooth="yes"/>
      <point x="272" y="371"/>
      <point x="246" y="401"/>
      <point x="246" y="441" type="curve" smooth="yes"/>
      <point x="246" y="496"/>
      <point x="290" y="548"/>
    </contour>
    <contour>
      <point x="264" y="135" type="curve" smooth="yes"/>
      <point x="297" y="135"/>
      <point x="322" y="104"/>
      <point x="322" y="63" type="curve" smooth="yes"/>
      <point x="322" y="12"/>
      <point x="276" y="-42"/>
      <point x="233" y="-42" type="curve" smooth="yes"/>
      <point x="200" y="-42"/>
      <point x="174" y="-11"/>
      <point x="174" y="28" type="curve" smooth="yes"/>
      <point x="174" y="83"/>
      <point x="218" y="135"/>
    </contour>
  </outline>
</glyph>
<glyph name="yacute" format="1">
  <advance width="456"/>
  <unicode hex="00FD"/>
  <outline>
    <contour>
      <point x="535" y="532" type="line"/>
      <point x="293" y="9" type="line" smooth="yes"/>
      <point x="198" y="-197"/>
      <point x="183" y="-214"/>
      <point x="88" y="-214" type="curve" smooth="yes"/>
      <point x="77" y="-214"/>
      <point x="61" y="-213"/>
      <point x="34" y="-212" type="curve"/>
      <point x="54" y="-100" type="line"/>
      <point x="61" y="-101"/>
      <point x="69" y="-102"/>
      <point x="78" y="-102" type="curve" smooth="yes"/>
      <point x="126" y="-102"/>
      <point x="143" y="-87"/>
      <point x="165" y="-22" type="curve"/>
      <point x="101" y="532" type="line"/>
      <point x="229" y="532" type="line"/>
      <point x="254" y="136" type="line"/>
      <point x="413" y="532" type="line"/>
    </contour>
    <contour>
      <point x="515" y="750" type="line"/>
      <point x="369" y="604" type="line"/>
      <point x="286" y="604" type="line"/>
      <point x="389" y="750" type="line"/>
    </contour>
  </outline>
</glyph>
<glyph name="thorn" format="1">
  <advance width="501"/>
  <unicode hex="00FE"/>
  <outline>
    <contour>
      <point x="178" y="71" type="curve"/>
      <point x="130" y="-207" type="line"/>
      <point x="15" y="-207" type="line"/>
      <point x="176" y="718" type="line"/>
      <point x="291" y="718" type="line"/>
      <point x="246" y="461" type="line"/>
      <point x="291" y="522"/>
      <point x="331" y="546"/>
      <point x="387" y="546" type="curve" smooth="yes"/>
      <point x="475" y="546"/>
      <point x="529" y="474"/>
      <point x="529" y="358" type="curve" smooth="yes"/>
      <point x="529" y="255"/>
      <point x="495" y="143"/>
      <point x="443" y="73" type="curve" smooth="yes"/>
      <point x="400" y="15"/>
      <point x="348" y="-14"/>
      <point x="288" y="-14" type="curve" smooth="yes"/>
      <point x="228" y="-14"/>
      <point x="198" y="10"/>
    </contour>
    <contour>
      <point x="332" y="425" type="curve" smooth="yes"/>
      <point x="292" y="425"/>
      <point x="258" y="401"/>
      <point x="237" y="357" type="curve" smooth="yes"/>
      <point x="215" y="312"/>
      <point x="201" y="252"/>
      <point x="201" y="202" type="curve" smooth="yes"/>
      <point x="201" y="138"/>
      <point x="229" y="101"/>
      <point x="278" y="101" type="curve" smooth="yes"/>
      <point x="316" y="101"/>
      <point x="349" y="126"/>
      <point x="373" y="174" type="curve" smooth="yes"/>
      <point x="394" y="217"/>
      <point x="407" y="272"/>
      <point x="407" y="321" type="curve" smooth="yes"/>
      <point x="407" y="389"/>
      <point x="381" y="425"/>
    </contour>
  </outline>
</glyph>
<glyph name="Abreve" format="1">
  <advance width="592"/>
  <unicode hex="0102"/>
  <outline>
    <contour>
      <point x="213" y="148" type="line"/>
      <point x="146" y="0" type="line"/>
      <point x="16" y="0" type="line"/>
      <point x="352" y="718" type="line"/>
      <point x="494" y="718" type="line"/>
      <point x="576" y="0" type="line"/>
      <point x="442" y="0" type="line"/>
      <point x="430" y="148" type="line"/>
    </contour>
    <contour>
      <point x="394" y="559" type="line"/>
      <point x="267" y="272" type="line"/>
      <point x="417" y="272" type="line"/>
    </contour>
    <contour>
      <point x="544" y="936" type="curve"/>
      <point x="597" y="936" type="line"/>
      <point x="570" y="839"/>
      <point x="513" y="790"/>
      <point x="429" y="790" type="curve" smooth="yes"/>
      <point x="359" y="790"/>
      <point x="320" y="832"/>
      <point x="320" y="908" type="curve" smooth="yes"/>
      <point x="320" y="914"/>
      <point x="320" y="924"/>
      <point x="321" y="936" type="curve"/>
      <point x="375" y="936" type="line"/>
      <point x="375" y="930" type="line" smooth="yes"/>
      <point x="375" y="885"/>
      <point x="396" y="866"/>
      <point x="447" y="866" type="curve" smooth="yes"/>
      <point x="500" y="866"/>
      <point x="524" y="883"/>
    </contour>
  </outline>
</glyph>
<glyph name="Ccircumflex" format="1">
  <advance width="592"/>
  <unicode hex="0108"/>
  <outline>
    <contour>
      <point x="524" y="964" type="line"/>
      <point x="592" y="818" type="line"/>
      <point x="499" y="818" type="line"/>
      <point x="461" y="900" type="line"/>
      <point x="395" y="818" type="line"/>
      <point x="302" y="818" type="line"/>
      <point x="421" y="964" type="line"/>
    </contour>
    <contour>
      <point x="646" y="483" type="curve"/>
      <point x="522" y="483" type="line"/>
      <point x="520" y="522"/>
      <point x="517" y="538"/>
      <point x="506" y="559" type="curve" smooth="yes"/>
      <point x="491" y="589"/>
      <point x="459" y="607"/>
      <point x="418" y="607" type="curve" smooth="yes"/>
      <point x="365" y="607"/>
      <point x="319" y="579"/>
      <point x="283" y="524" type="curve" smooth="yes"/>
      <point x="244" y="464"/>
      <point x="216" y="359"/>
      <point x="216" y="266" type="curve" smooth="yes"/>
      <point x="216" y="167"/>
      <point x="256" y="111"/>
      <point x="327" y="111" type="curve" smooth="yes"/>
      <point x="370" y="111"/>
      <point x="409" y="130"/>
      <point x="439" y="167" type="curve" smooth="yes"/>
      <point x="456" y="188"/>
      <point x="465" y="205"/>
      <point x="481" y="246" type="curve"/>
      <point x="604" y="246" type="line"/>
      <point x="573" y="161"/>
      <point x="550" y="120"/>
      <point x="508" y="74" type="curve" smooth="yes"/>
      <point x="453" y="14"/>
      <point x="381" y="-19"/>
      <point x="303" y="-19" type="curve" smooth="yes"/>
      <point x="242" y="-19"/>
      <point x="188" y="2"/>
      <point x="152" y="39" type="curve" smooth="yes"/>
      <point x="113" y="80"/>
      <point x="88" y="158"/>
      <point x="88" y="241" type="curve" smooth="yes"/>
      <point x="88" y="376"/>
      <point x="132" y="521"/>
      <point x="199" y="609" type="curve" smooth="yes"/>
      <point x="263" y="693"/>
      <point x="345" y="737"/>
      <point x="438" y="737" type="curve" smooth="yes"/>
      <point x="563" y="737"/>
      <point x="647" y="650"/>
      <point x="647" y="519" type="curve" smooth="yes"/>
      <point x="647" y="510"/>
      <point x="647" y="499"/>
    </contour>
  </outline>
</glyph>
<glyph name="Dcaron" format="1">
  <advance width="592"/>
  <unicode hex="010E"/>
  <outline>
    <contour>
      <point x="62" y="0" type="line"/>
      <point x="187" y="718" type="line"/>
      <point x="448" y="718" type="line" smooth="yes"/>
      <point x="502" y="718"/>
      <point x="551" y="700"/>
      <point x="581" y="668" type="curve" smooth="yes"/>
      <point x="615" y="633"/>
      <point x="637" y="561"/>
      <point x="637" y="486" type="curve" smooth="yes"/>
      <point x="637" y="352"/>
      <point x="593" y="206"/>
      <point x="524" y="114" type="curve" smooth="yes"/>
      <point x="467" y="37"/>
      <point x="399" y="0"/>
      <point x="317" y="0" type="curve" smooth="yes"/>
    </contour>
    <contour>
      <point x="286" y="594" type="line"/>
      <point x="204" y="124" type="line"/>
      <point x="324" y="124" type="line" smooth="yes"/>
      <point x="376" y="124"/>
      <point x="422" y="158"/>
      <point x="455" y="223" type="curve" smooth="yes"/>
      <point x="488" y="287"/>
      <point x="509" y="381"/>
      <point x="509" y="462" type="curve" smooth="yes"/>
      <point x="509" y="552"/>
      <point x="476" y="594"/>
      <point x="405" y="594" type="curve" smooth="yes"/>
    </contour>
    <contour>
      <point x="584" y="936" type="line"/>
      <point x="465" y="790" type="line"/>
      <point x="363" y="790" type="line"/>
      <point x="295" y="936" type="line"/>
      <point x="388" y="936" type="line"/>
      <point x="425" y="854" type="line"/>
      <point x="491" y="936" type="line"/>
    </contour>
  </outline>
</glyph>
<glyph name="dcaron" format="1">
  <advance width="561"/>
  <unicode hex="010F"/>
  <outline>
    <contour>
      <point x="577" y="718" type="line"/>
      <point x="452" y="0" type="line"/>
      <point x="339" y="0" type="line"/>
      <point x="352" y="70" type="line"/>
      <point x="312" y="12"/>
      <point x="267" y="-14"/>
      <point x="208" y="-14" type="curve" smooth="yes"/>
      <point x="119" y="-14"/>
      <point x="67" y="57"/>
      <point x="67" y="180" type="curve" smooth="yes"/>
      <point x="67" y="383"/>
      <point x="173" y="546"/>
      <point x="305" y="546" type="curve" smooth="yes"/>
      <point x="361" y="546"/>
      <point x="393" y="521"/>
      <point x="417" y="460" type="curve"/>
      <point x="462" y="718" type="line"/>
    </contour>
    <contour>
      <point x="318" y="425" type="curve" smooth="yes"/>
      <point x="278" y="425"/>
      <point x="244" y="400"/>
      <point x="221" y="355" type="curve" smooth="yes"/>
      <point x="201" y="315"/>
      <point x="187" y="257"/>
      <point x="187" y="209" type="curve" smooth="yes"/>
      <point x="187" y="139"/>
      <point x="212" y="101"/>
      <point x="259" y="101" type="curve" smooth="yes"/>
      <point x="335" y="101"/>
      <point x="393" y="196"/>
      <point x="393" y="321" type="curve" smooth="yes"/>
      <point x="393" y="390"/>
      <point x="367" y="425"/>
    </contour>
    <contour>
      <point x="603" y="718" type="line"/>
      <point x="701" y="718" type="line"/>
      <point x="684" y="623" type="line"/>
      <point x="675" y="545"/>
      <point x="624" y="486"/>
      <point x="561" y="480" type="curve"/>
      <point x="569" y="523" type="line"/>
      <point x="607" y="531"/>
      <point x="635" y="565"/>
      <point x="640" y="611" type="curve"/>
      <point x="584" y="611" type="line"/>
    </contour>
  </outline>
</glyph>
<glyph name="Eogonek" format="1">
  <advance width="547"/>
  <unicode hex="0118"/>
  <outline>
    <contour>
      <point x="620" y="718" type="line"/>
      <point x="598" y="591" type="line"/>
      <point x="285" y="591" type="line"/>
      <point x="259" y="440" type="line"/>
      <point x="546" y="440" type="line"/>
      <point x="524" y="313" type="line"/>
      <point x="237" y="313" type="line"/>
      <point x="205" y="127" type="line"/>
      <point x="531" y="127" type="line"/>
      <point x="509" y="0" type="line"/>
      <point x="444" y="-46"/>
      <point x="405" y="-97"/>
      <point x="405" y="-136" type="curve" smooth="yes"/>
      <point x="405" y="-157"/>
      <point x="418" y="-172"/>
      <point x="435" y="-172" type="curve" smooth="yes"/>
      <point x="450" y="-172"/>
      <point x="473" y="-166"/>
      <point x="500" y="-155" type="curve"/>
      <point x="506" y="-204" type="line"/>
      <point x="462" y="-222"/>
      <point x="441" y="-228"/>
      <point x="414" y="-228" type="curve" smooth="yes"/>
      <point x="362" y="-228"/>
      <point x="326" y="-197"/>
      <point x="326" y="-151" type="curve" smooth="yes"/>
      <point x="326" y="-115"/>
      <point x="346" y="-71"/>
      <point x="378" y="-40" type="curve" smooth="yes"/>
      <point x="395" y="-24"/>
      <point x="406" y="-17"/>
      <point x="440" y="0" type="curve"/>
      <point x="62" y="0" type="line"/>
      <point x="187" y="718" type="line"/>
    </contour>
  </outline>
</glyph>
<glyph name="Gbreve" format="1">
  <advance width="638"/>
  <unicode hex="011E"/>
  <outline>
    <contour>
      <point x="385" y="266" type="line"/>
      <point x="406" y="387" type="line"/>
      <point x="653" y="387" type="line"/>
      <point x="585" y="0" type="line"/>
      <point x="503" y="0" type="line"/>
      <point x="506" y="90" type="line"/>
      <point x="435" y="9"/>
      <point x="383" y="-19"/>
      <point x="304" y="-19" type="curve" smooth="yes"/>
      <point x="172" y="-19"/>
      <point x="89" y="84"/>
      <point x="89" y="249" type="curve" smooth="yes"/>
      <point x="89" y="377"/>
      <point x="131" y="512"/>
      <point x="200" y="603" type="curve" smooth="yes"/>
      <point x="267" y="691"/>
      <point x="353" y="737"/>
      <point x="453" y="737" type="curve" smooth="yes"/>
      <point x="584" y="737"/>
      <point x="670" y="653"/>
      <point x="670" y="525" type="curve" smooth="yes"/>
      <point x="670" y="518"/>
      <point x="670" y="508"/>
      <point x="669" y="495" type="curve"/>
      <point x="546" y="495" type="line"/>
      <point x="546" y="501" type="line" smooth="yes"/>
      <point x="546" y="563"/>
      <point x="497" y="613"/>
      <point x="436" y="613" type="curve" smooth="yes"/>
      <point x="379" y="613"/>
      <point x="323" y="579"/>
      <point x="284" y="520" type="curve" smooth="yes"/>
      <point x="244" y="460"/>
      <point x="216" y="357"/>
      <point x="216" y="268" type="curve" smooth="yes"/>
      <point x="216" y="166"/>
      <point x="264" y="108"/>
      <point x="347" y="108" type="curve" smooth="yes"/>
      <point x="385" y="108"/>
      <point x="421" y="123"/>
      <point x="452" y="151" type="curve" smooth="yes"/>
      <point x="482" y="179"/>
      <point x="498" y="205"/>
      <point x="522" y="266" type="curve"/>
    </contour>
    <contour>
      <point x="567" y="936" type="curve"/>
      <point x="620" y="936" type="line"/>
      <point x="593" y="839"/>
      <point x="536" y="790"/>
      <point x="452" y="790" type="curve" smooth="yes"/>
      <point x="382" y="790"/>
      <point x="343" y="832"/>
      <point x="343" y="908" type="curve" smooth="yes"/>
      <point x="343" y="914"/>
      <point x="343" y="924"/>
      <point x="344" y="936" type="curve"/>
      <point x="398" y="936" type="line"/>
      <point x="398" y="930" type="line" smooth="yes"/>
      <point x="398" y="885"/>
      <point x="419" y="866"/>
      <point x="470" y="866" type="curve" smooth="yes"/>
      <point x="523" y="866"/>
      <point x="547" y="883"/>
    </contour>
  </outline>
</glyph>
<glyph name="Gcommaaccent" format="1">
  <advance width="638"/>
  <unicode hex="0122"/>
  <outline>
    <contour>
      <point x="385" y="266" type="line"/>
      <point x="406" y="387" type="line"/>
      <point x="653" y="387" type="line"/>
      <point x="585" y="0" type="line"/>
      <point x="503" y="0" type="line"/>
      <point x="506" y="90" type="line"/>
      <point x="435" y="9"/>
      <point x="383" y="-19"/>
      <point x="304" y="-19" type="curve" smooth="yes"/>
      <point x="172" y="-19"/>
      <point x="89" y="84"/>
      <point x="89" y="249" type="curve" smooth="yes"/>
      <point x="89" y="377"/>
      <point x="131" y="512"/>
      <point x="200" y="603" type="curve" smooth="yes"/>
      <point x="267" y="691"/>
      <point x="353" y="737"/>
      <point x="453" y="737" type="curve" smooth="yes"/>
      <point x="584" y="737"/>
      <point x="670" y="653"/>
      <point x="670" y="525" type="curve" smooth="yes"/>
      <point x="670" y="518"/>
      <point x="670" y="508"/>
      <point x="669" y="495" type="curve"/>
      <point x="546" y="495" type="line"/>
      <point x="546" y="501" type="line" smooth="yes"/>
      <point x="546" y="563"/>
      <point x="497" y="613"/>
      <point x="436" y="613" type="curve" smooth="yes"/>
      <point x="379" y="613"/>
      <point x="323" y="579"/>
      <point x="284" y="520" type="curve" smooth="yes"/>
      <point x="244" y="460"/>
      <point x="216" y="357"/>
      <point x="216" y="268" type="curve" smooth="yes"/>
      <point x="216" y="166"/>
      <point x="264" y="108"/>
      <point x="347" y="108" type="curve" smooth="yes"/>
      <point x="385" y="108"/>
      <point x="421" y="123"/>
      <point x="452" y="151" type="curve" smooth="yes"/>
      <point x="482" y="179"/>
      <point x="498" y="205"/>
      <point x="522" y="266" type="curve"/>
    </contour>
    <contour>
      <point x="259" y="-60" type="line"/>
      <point x="357" y="-60" type="line"/>
      <point x="340" y="-155" type="line"/>
      <point x="331" y="-233"/>
      <point x="280" y="-292"/>
      <point x="217" y="-298" type="curve"/>
      <point x="225" y="-255" type="line"/>
      <point x="263" y="-247"/>
      <point x="291" y="-213"/>
      <point x="296" y="-167" type="curve"/>
      <point x="240" y="-167" type="line"/>
    </contour>
  </outline>
</glyph>
<glyph name="Hcircumflex" format="1">
  <advance width="592"/>
  <unicode hex="0124"/>
  <outline>
    <contour>
      <point x="516" y="964" type="line"/>
      <point x="584" y="818" type="line"/>
      <point x="491" y="818" type="line"/>
      <point x="453" y="900" type="line"/>
      <point x="387" y="818" type="line"/>
      <point x="294" y="818" type="line"/>
      <point x="413" y="964" type="line"/>
    </contour>
    <contour>
      <point x="467" y="322" type="line"/>
      <point x="237" y="322" type="line"/>
      <point x="181" y="0" type="line"/>
      <point x="58" y="0" type="line"/>
      <point x="183" y="718" type="line"/>
      <point x="306" y="718" type="line"/>
      <point x="259" y="446" type="line"/>
      <point x="489" y="446" type="line"/>
      <point x="536" y="718" type="line"/>
      <point x="659" y="718" type="line"/>
      <point x="534" y="0" type="line"/>
      <point x="411" y="0" type="line"/>
    </contour>
  </outline>
</glyph>
<glyph name="hcircumflex" format="1">
  <advance width="501"/>
  <unicode hex="0125"/>
  <outline>
    <contour>
      <point x="470" y="964" type="line"/>
      <point x="538" y="818" type="line"/>
      <point x="445" y="818" type="line"/>
      <point x="407" y="900" type="line"/>
      <point x="341" y="818" type="line"/>
      <point x="248" y="818" type="line"/>
      <point x="367" y="964" type="line"/>
    </contour>
    <contour>
      <point x="293" y="718" type="line"/>
      <point x="248" y="459" type="line"/>
      <point x="281" y="516"/>
      <point x="331" y="546"/>
      <point x="393" y="546" type="curve" smooth="yes"/>
      <point x="469" y="546"/>
      <point x="516" y="495"/>
      <point x="516" y="413" type="curve" smooth="yes"/>
      <point x="516" y="399"/>
      <point x="515" y="384"/>
      <point x="512" y="368" type="curve" smooth="yes"/>
      <point x="448" y="0" type="line"/>
      <point x="333" y="0" type="line"/>
      <point x="389" y="323" type="line" smooth="yes"/>
      <point x="392" y="341"/>
      <point x="394" y="358"/>
      <point x="394" y="368" type="curve" smooth="yes"/>
      <point x="394" y="406"/>
      <point x="372" y="428"/>
      <point x="334" y="428" type="curve" smooth="yes"/>
      <point x="278" y="428"/>
      <point x="234" y="381"/>
      <point x="221" y="305" type="curve" smooth="yes"/>
      <point x="168" y="0" type="line"/>
      <point x="53" y="0" type="line"/>
      <point x="178" y="718" type="line"/>
    </contour>
  </outline>
</glyph>
<glyph name="Hbar" format="1">
  <advance width="678"/>
  <unicode hex="0126"/>
  <outline>
    <contour>
      <point x="512" y="322" type="line"/>
      <point x="282" y="322" type="line"/>
      <point x="226" y="0" type="line"/>
      <point x="103" y="0" type="line"/>
      <point x="195" y="527" type="line"/>
      <point x="114" y="527" type="line"/>
      <point x="132" y="629" type="line"/>
      <point x="213" y="629" type="line"/>
      <point x="228" y="718" type="line"/>
      <point x="351" y="718" type="line"/>
      <point x="336" y="629" type="line"/>
      <point x="566" y="629" type="line"/>
      <point x="581" y="718" type="line"/>
      <point x="704" y="718" type="line"/>
      <point x="689" y="629" type="line"/>
      <point x="765" y="629" type="line"/>
      <point x="747" y="527" type="line"/>
      <point x="671" y="527" type="line"/>
      <point x="579" y="0" type="line"/>
      <point x="456" y="0" type="line"/>
    </contour>
    <contour>
      <point x="548" y="527" type="line"/>
      <point x="318" y="527" type="line"/>
      <point x="304" y="446" type="line"/>
      <point x="534" y="446" type="line"/>
    </contour>
  </outline>
</glyph>
<glyph name="hbar" format="1">
  <advance width="541"/>
  <unicode hex="0127"/>
  <outline>
    <contour>
      <point x="204" y="639" type="line"/>
      <point x="218" y="718" type="line"/>
      <point x="333" y="718" type="line"/>
      <point x="319" y="639" type="line"/>
      <point x="410" y="639" type="line"/>
      <point x="396" y="557" type="line"/>
      <point x="305" y="557" type="line"/>
      <point x="288" y="459" type="line"/>
      <point x="321" y="516"/>
      <point x="371" y="546"/>
      <point x="433" y="546" type="curve" smooth="yes"/>
      <point x="509" y="546"/>
      <point x="556" y="495"/>
      <point x="556" y="413" type="curve" smooth="yes"/>
      <point x="556" y="399"/>
      <point x="555" y="384"/>
      <point x="552" y="368" type="curve" smooth="yes"/>
      <point x="488" y="0" type="line"/>
      <point x="373" y="0" type="line"/>
      <point x="429" y="323" type="line" smooth="yes"/>
      <point x="432" y="341"/>
      <point x="434" y="358"/>
      <point x="434" y="368" type="curve" smooth="yes"/>
      <point x="434" y="406"/>
      <point x="412" y="428"/>
      <point x="374" y="428" type="curve" smooth="yes"/>
      <point x="318" y="428"/>
      <point x="274" y="381"/>
      <point x="261" y="305" type="curve" smooth="yes"/>
      <point x="208" y="0" type="line"/>
      <point x="93" y="0" type="line"/>
      <point x="190" y="557" type="line"/>
      <point x="113" y="557" type="line"/>
      <point x="127" y="639" type="line"/>
    </contour>
  </outline>
</glyph>
<glyph name="Itilde" format="1">
  <advance width="228"/>
  <unicode hex="0128"/>
  <outline>
    <contour>
      <point x="376" y="945" type="curve"/>
      <point x="429" y="945" type="line"/>
      <point x="402" y="865"/>
      <point x="365" y="825"/>
      <point x="319" y="825" type="curve" smooth="yes"/>
      <point x="302" y="825"/>
      <point x="274" y="834"/>
      <point x="240" y="850" type="curve" smooth="yes"/>
      <point x="222" y="858"/>
      <point x="212" y="861"/>
      <point x="204" y="861" type="curve" smooth="yes"/>
      <point x="185" y="861"/>
      <point x="169" y="846"/>
      <point x="158" y="818" type="curve"/>
      <point x="106" y="818" type="line"/>
      <point x="136" y="903"/>
      <point x="173" y="941"/>
      <point x="226" y="941" type="curve" smooth="yes"/>
      <point x="242" y="941"/>
      <point x="250" y="938"/>
      <point x="282" y="922" type="curve" smooth="yes"/>
      <point x="309" y="909"/>
      <point x="319" y="905"/>
      <point x="330" y="905" type="curve" smooth="yes"/>
      <point x="351" y="905"/>
      <point x="365" y="917"/>
    </contour>
    <contour>
      <point x="301" y="718" type="line"/>
      <point x="175" y="0" type="line"/>
      <point x="52" y="0" type="line"/>
      <point x="178" y="718" type="line"/>
    </contour>
  </outline>
</glyph>
<glyph name="itilde" format="1">
  <advance width="228"/>
  <unicode hex="0129"/>
  <outline>
    <contour>
      <point x="344" y="759" type="curve"/>
      <point x="397" y="759" type="line"/>
      <point x="370" y="679"/>
      <point x="333" y="639"/>
      <point x="287" y="639" type="curve" smooth="yes"/>
      <point x="270" y="639"/>
      <point x="242" y="648"/>
      <point x="208" y="664" type="curve" smooth="yes"/>
      <point x="190" y="672"/>
      <point x="180" y="675"/>
      <point x="172" y="675" type="curve" smooth="yes"/>
      <point x="153" y="675"/>
      <point x="137" y="660"/>
      <point x="126" y="632" type="curve"/>
      <point x="74" y="632" type="line"/>
      <point x="104" y="717"/>
      <point x="141" y="755"/>
      <point x="194" y="755" type="curve" smooth="yes"/>
      <point x="210" y="755"/>
      <point x="218" y="752"/>
      <point x="250" y="736" type="curve" smooth="yes"/>
      <point x="277" y="723"/>
      <point x="287" y="719"/>
      <point x="298" y="719" type="curve" smooth="yes"/>
      <point x="319" y="719"/>
      <point x="333" y="731"/>
    </contour>
    <contour>
      <point x="150" y="532" type="line"/>
      <point x="264" y="532" type="line"/>
      <point x="171" y="0" type="line"/>
      <point x="57" y="0" type="line"/>
    </contour>
  </outline>
</glyph>
<glyph name="Imacron" format="1">
  <advance width="228"/>
  <unicode hex="012A"/>
  <outline>
    <contour>
      <point x="301" y="718" type="line"/>
      <point x="175" y="0" type="line"/>
      <point x="52" y="0" type="line"/>
      <point x="178" y="718" type="line"/>
    </contour>
    <contour>
      <point x="406" y="864" type="line"/>
      <point x="393" y="790" type="line"/>
      <point x="110" y="790" type="line"/>
      <point x="123" y="864" type="line"/>
    </contour>
  </outline>
</glyph>
<glyph name="Ibreve" format="1">
  <advance width="228"/>
  <unicode hex="012C"/>
  <outline>
    <contour>
      <point x="367" y="964" type="curve"/>
      <point x="420" y="964" type="line"/>
      <point x="393" y="867"/>
      <point x="336" y="818"/>
      <point x="252" y="818" type="curve" smooth="yes"/>
      <point x="182" y="818"/>
      <point x="143" y="860"/>
      <point x="143" y="936" type="curve" smooth="yes"/>
      <point x="143" y="942"/>
      <point x="143" y="952"/>
      <point x="144" y="964" type="curve"/>
      <point x="198" y="964" type="line"/>
      <point x="198" y="958" type="line" smooth="yes"/>
      <point x="198" y="913"/>
      <point x="219" y="894"/>
      <point x="270" y="894" type="curve" smooth="yes"/>
      <point x="323" y="894"/>
      <point x="347" y="911"/>
    </contour>
    <contour>
      <point x="301" y="718" type="line"/>
      <point x="175" y="0" type="line"/>
      <point x="52" y="0" type="line"/>
      <point x="178" y="718" type="line"/>
    </contour>
  </outline>
</glyph>
<glyph name="ibreve" format="1">
  <advance width="228"/>
  <unicode hex="012D"/>
  <outline>
    <contour>
      <point x="335" y="778" type="curve"/>
      <point x="388" y="778" type="line"/>
      <point x="361" y="681"/>
      <point x="304" y="632"/>
      <point x="220" y="632" type="curve" smooth="yes"/>
      <point x="150" y="632"/>
      <point x="111" y="674"/>
      <point x="111" y="750" type="curve" smooth="yes"/>
      <point x="111" y="756"/>
      <point x="111" y="766"/>
      <point x="112" y="778" type="curve"/>
      <point x="166" y="778" type="line"/>
      <point x="166" y="772" type="line" smooth="yes"/>
      <point x="166" y="727"/>
      <point x="187" y="708"/>
      <point x="238" y="708" type="curve" smooth="yes"/>
      <point x="291" y="708"/>
      <point x="315" y="725"/>
    </contour>
    <contour>
      <point x="150" y="532" type="line"/>
      <point x="264" y="532" type="line"/>
      <point x="171" y="0" type="line"/>
      <point x="57" y="0" type="line"/>
    </contour>
  </outline>
</glyph>
<glyph name="Iogonek" format="1">
  <advance width="228"/>
  <unicode hex="012E"/>
  <outline>
    <contour>
      <point x="301" y="718" type="line"/>
      <point x="175" y="0" type="line"/>
      <point x="110" y="-46"/>
      <point x="71" y="-97"/>
      <point x="71" y="-136" type="curve" smooth="yes"/>
      <point x="71" y="-157"/>
      <point x="84" y="-172"/>
      <point x="101" y="-172" type="curve" smooth="yes"/>
      <point x="116" y="-172"/>
      <point x="140" y="-166"/>
      <point x="166" y="-155" type="curve"/>
      <point x="172" y="-204" type="line"/>
      <point x="128" y="-222"/>
      <point x="107" y="-228"/>
      <point x="80" y="-228" type="curve" smooth="yes"/>
      <point x="28" y="-228"/>
      <point x="-8" y="-197"/>
      <point x="-8" y="-151" type="curve" smooth="yes"/>
      <point x="-8" y="-115"/>
      <point x="12" y="-71"/>
      <point x="44" y="-40" type="curve" smooth="yes"/>
      <point x="62" y="-23"/>
      <point x="71" y="-17"/>
      <point x="106" y="0" type="curve"/>
      <point x="52" y="0" type="line"/>
      <point x="177" y="718" type="line"/>
    </contour>
  </outline>
</glyph>
<glyph name="iogonek" format="1">
  <advance width="228"/>
  <unicode hex="012F"/>
  <outline>
    <contour>
      <point x="265" y="532" type="line"/>
      <point x="172" y="0" type="line"/>
      <point x="107" y="-46"/>
      <point x="68" y="-97"/>
      <point x="68" y="-136" type="curve" smooth="yes"/>
      <point x="68" y="-157"/>
      <point x="81" y="-172"/>
      <point x="98" y="-172" type="curve" smooth="yes"/>
      <point x="113" y="-172"/>
      <point x="137" y="-166"/>
      <point x="163" y="-155" type="curve"/>
      <point x="169" y="-204" type="line"/>
      <point x="125" y="-222"/>
      <point x="104" y="-228"/>
      <point x="77" y="-228" type="curve" smooth="yes"/>
      <point x="25" y="-228"/>
      <point x="-11" y="-197"/>
      <point x="-11" y="-151" type="curve" smooth="yes"/>
      <point x="-11" y="-115"/>
      <point x="9" y="-71"/>
      <point x="41" y="-40" type="curve" smooth="yes"/>
      <point x="59" y="-23"/>
      <point x="68" y="-17"/>
      <point x="103" y="0" type="curve"/>
      <point x="57" y="0" type="line"/>
      <point x="150" y="532" type="line"/>
    </contour>
    <contour>
      <point x="298" y="725" type="line"/>
      <point x="276" y="595" type="line"/>
      <point x="161" y="595" type="line"/>
      <point x="184" y="725" type="line"/>
    </contour>
  </outline>
</glyph>
<glyph name="Idotaccent" format="1">
  <advance width="228"/>
  <unicode hex="0130"/>
  <outline>
    <contour>
      <point x="301" y="718" type="line"/>
      <point x="175" y="0" type="line"/>
      <point x="52" y="0" type="line"/>
      <point x="178" y="718" type="line"/>
    </contour>
    <contour>
      <point x="326" y="915" type="line"/>
      <point x="306" y="800" type="line"/>
      <point x="202" y="800" type="line"/>
      <point x="222" y="915" type="line"/>
    </contour>
  </outline>
</glyph>
<glyph name="IJ" format="1">
  <advance width="650"/>
  <unicode hex="0132"/>
  <outline>
    <contour>
      <point x="722" y="718" type="line"/>
      <point x="633" y="208" type="line" smooth="yes"/>
      <point x="607" y="58"/>
      <point x="531" y="-18"/>
      <point x="408" y="-18" type="curve" smooth="yes"/>
      <point x="300" y="-18"/>
      <point x="249" y="31"/>
      <point x="249" y="134" type="curve" smooth="yes"/>
      <point x="249" y="167"/>
      <point x="253" y="200"/>
      <point x="265" y="271" type="curve"/>
      <point x="380" y="271" type="line"/>
      <point x="371" y="214"/>
      <point x="368" y="190"/>
      <point x="368" y="166" type="curve" smooth="yes"/>
      <point x="368" y="122"/>
      <point x="385" y="103"/>
      <point x="424" y="103" type="curve" smooth="yes"/>
      <point x="474" y="103"/>
      <point x="497" y="130"/>
      <point x="510" y="208" type="curve" smooth="yes"/>
      <point x="599" y="718" type="line"/>
    </contour>
    <contour>
      <point x="301" y="718" type="line"/>
      <point x="175" y="0" type="line"/>
      <point x="52" y="0" type="line"/>
      <point x="178" y="718" type="line"/>
    </contour>
  </outline>
</glyph>
<glyph name="ij" format="1">
  <advance width="432"/>
  <unicode hex="0133"/>
  <outline>
    <contour>
      <point x="464" y="532" type="line"/>
      <point x="362" y="-56" type="line" smooth="yes"/>
      <point x="341" y="-175"/>
      <point x="300" y="-214"/>
      <point x="194" y="-214" type="curve" smooth="yes"/>
      <point x="165" y="-214" type="line"/>
      <point x="185" y="-102" type="line"/>
      <point x="205" y="-102" type="line" smooth="yes"/>
      <point x="229" y="-102"/>
      <point x="241" y="-88"/>
      <point x="247" y="-53" type="curve" smooth="yes"/>
      <point x="349" y="532" type="line"/>
    </contour>
    <contour>
      <point x="498" y="725" type="line"/>
      <point x="475" y="595" type="line"/>
      <point x="360" y="595" type="line"/>
      <point x="383" y="725" type="line"/>
    </contour>
    <contour>
      <point x="150" y="532" type="line"/>
      <point x="264" y="532" type="line"/>
      <point x="172" y="0" type="line"/>
      <point x="57" y="0" type="line"/>
    </contour>
    <contour>
      <point x="298" y="725" type="line"/>
      <point x="275" y="595" type="line"/>
      <point x="161" y="595" type="line"/>
      <point x="183" y="725" type="line"/>
    </contour>
  </outline>
</glyph>
<glyph name="Jcircumflex" format="1">
  <advance width="456"/>
  <unicode hex="0134"/>
  <outline>
    <contour>
      <point x="427" y="964" type="line"/>
      <point x="495" y="818" type="line"/>
      <point x="402" y="818" type="line"/>
      <point x="364" y="900" type="line"/>
      <point x="298" y="818" type="line"/>
      <point x="205" y="818" type="line"/>
      <point x="324" y="964" type="line"/>
    </contour>
    <contour>
      <point x="522" y="718" type="line"/>
      <point x="433" y="208" type="line" smooth="yes"/>
      <point x="407" y="58"/>
      <point x="331" y="-18"/>
      <point x="208" y="-18" type="curve" smooth="yes"/>
      <point x="100" y="-18"/>
      <point x="49" y="31"/>
      <point x="49" y="134" type="curve" smooth="yes"/>
      <point x="49" y="167"/>
      <point x="53" y="200"/>
      <point x="65" y="271" type="curve"/>
      <point x="180" y="271" type="line"/>
      <point x="171" y="214"/>
      <point x="168" y="190"/>
      <point x="168" y="166" type="curve" smooth="yes"/>
      <point x="168" y="122"/>
      <point x="185" y="103"/>
      <point x="224" y="103" type="curve" smooth="yes"/>
      <point x="274" y="103"/>
      <point x="297" y="130"/>
      <point x="310" y="208" type="curve" smooth="yes"/>
      <point x="399" y="718" type="line"/>
    </contour>
  </outline>
</glyph>
<glyph name="jcircumflex" format="1">
  <advance width="228"/>
  <unicode hex="0135"/>
  <outline>
    <contour>
      <point x="264" y="532" type="line"/>
      <point x="162" y="-56" type="line" smooth="yes"/>
      <point x="141" y="-175"/>
      <point x="100" y="-214"/>
      <point x="-6" y="-214" type="curve" smooth="yes"/>
      <point x="-35" y="-214" type="line"/>
      <point x="-15" y="-102" type="line"/>
      <point x="5" y="-102" type="line" smooth="yes"/>
      <point x="29" y="-102"/>
      <point x="41" y="-88"/>
      <point x="47" y="-53" type="curve" smooth="yes"/>
      <point x="149" y="532" type="line"/>
    </contour>
    <contour>
      <point x="319" y="750" type="line"/>
      <point x="387" y="604" type="line"/>
      <point x="294" y="604" type="line"/>
      <point x="256" y="686" type="line"/>
      <point x="190" y="604" type="line"/>
      <point x="97" y="604" type="line"/>
      <point x="216" y="750" type="line"/>
    </contour>
  </outline>
</glyph>
<glyph name="Kcommaaccent" format="1">
  <advance width="592"/>
  <unicode hex="0136"/>
  <outline>
    <contour>
      <point x="236" y="243" type="line"/>
      <point x="194" y="0" type="line"/>
      <point x="71" y="0" type="line"/>
      <point x="196" y="718" type="line"/>
      <point x="319" y="718" type="line"/>
      <point x="268" y="426" type="line"/>
      <point x="544" y="718" type="line"/>
      <point x="703" y="718" type="line"/>
      <point x="411" y="424" type="line"/>
      <point x="592" y="0" type="line"/>
      <point x="433" y="0" type="line"/>
      <point x="306" y="315" type="line"/>
    </contour>
    <contour>
      <point x="236" y="-60" type="line"/>
      <point x="334" y="-60" type="line"/>
      <point x="317" y="-155" type="line"/>
      <point x="308" y="-233"/>
      <point x="257" y="-292"/>
      <point x="194" y="-298" type="curve"/>
      <point x="202" y="-255" type="line"/>
      <point x="240" y="-247"/>
      <point x="268" y="-213"/>
      <point x="273" y="-167" type="curve"/>
      <point x="217" y="-167" type="line"/>
    </contour>
  </outline>
</glyph>
<glyph name="kcommaaccent" format="1">
  <advance width="456"/>
  <unicode hex="0137"/>
  <outline>
    <contour>
      <point x="201" y="168" type="line"/>
      <point x="172" y="0" type="line"/>
      <point x="57" y="0" type="line"/>
      <point x="182" y="718" type="line"/>
      <point x="297" y="718" type="line"/>
      <point x="229" y="330" type="line"/>
      <point x="408" y="532" type="line"/>
      <point x="549" y="532" type="line"/>
      <point x="359" y="326" type="line"/>
      <point x="461" y="0" type="line"/>
      <point x="323" y="0" type="line"/>
      <point x="259" y="228" type="line"/>
    </contour>
    <contour>
      <point x="168" y="-60" type="line"/>
      <point x="266" y="-60" type="line"/>
      <point x="249" y="-155" type="line"/>
      <point x="240" y="-233"/>
      <point x="189" y="-292"/>
      <point x="126" y="-298" type="curve"/>
      <point x="134" y="-255" type="line"/>
      <point x="172" y="-247"/>
      <point x="200" y="-213"/>
      <point x="205" y="-167" type="curve"/>
      <point x="149" y="-167" type="line"/>
    </contour>
  </outline>
</glyph>
<glyph name="Lacute" format="1">
  <advance width="501"/>
  <unicode hex="0139"/>
  <outline>
    <contour>
      <point x="310" y="718" type="line"/>
      <point x="208" y="130" type="line"/>
      <point x="501" y="130" type="line"/>
      <point x="478" y="0" type="line"/>
      <point x="62" y="0" type="line"/>
      <point x="187" y="718" type="line"/>
    </contour>
    <contour>
      <point x="489" y="936" type="line"/>
      <point x="343" y="790" type="line"/>
      <point x="260" y="790" type="line"/>
      <point x="363" y="936" type="line"/>
    </contour>
  </outline>
</glyph>
<glyph name="Lcommaaccent" format="1">
  <advance width="501"/>
  <unicode hex="013B"/>
  <outline>
    <contour>
      <point x="310" y="718" type="line"/>
      <point x="208" y="130" type="line"/>
      <point x="501" y="130" type="line"/>
      <point x="478" y="0" type="line"/>
      <point x="62" y="0" type="line"/>
      <point x="187" y="718" type="line"/>
    </contour>
    <contour>
      <point x="191" y="-60" type="line"/>
      <point x="289" y="-60" type="line"/>
      <point x="272" y="-155" type="line"/>
      <point x="263" y="-233"/>
      <point x="212" y="-292"/>
      <point x="149" y="-298" type="curve"/>
      <point x="157" y="-255" type="line"/>
      <point x="195" y="-247"/>
      <point x="223" y="-213"/>
      <point x="228" y="-167" type="curve"/>
      <point x="172" y="-167" type="line"/>
    </contour>
  </outline>
</glyph>
<glyph name="lcommaaccent" format="1">
  <advance width="228"/>
  <unicode hex="013C"/>
  <outline>
    <contour>
      <point x="297" y="718" type="line"/>
      <point x="172" y="0" type="line"/>
      <point x="57" y="0" type="line"/>
      <point x="182" y="718" type="line"/>
    </contour>
    <contour>
      <point x="54" y="-60" type="line"/>
      <point x="152" y="-60" type="line"/>
      <point x="135" y="-155" type="line"/>
      <point x="126" y="-233"/>
      <point x="75" y="-292"/>
      <point x="12" y="-298" type="curve"/>
      <point x="20" y="-255" type="line"/>
      <point x="58" y="-247"/>
      <point x="86" y="-213"/>
      <point x="91" y="-167" type="curve"/>
      <point x="35" y="-167" type="line"/>
    </contour>
  </outline>
</glyph>
<glyph name="Lcaron" format="1">
  <advance width="501"/>
  <unicode hex="013D"/>
  <outline>
    <contour>
      <point x="310" y="718" type="line"/>
      <point x="208" y="130" type="line"/>
      <point x="501" y="130" type="line"/>
      <point x="478" y="0" type="line"/>
      <point x="62" y="0" type="line"/>
      <point x="187" y="718" type="line"/>
    </contour>
    <contour>
      <point x="475" y="718" type="line"/>
      <point x="573" y="718" type="line"/>
      <point x="556" y="623" type="line"/>
      <point x="547" y="545"/>
      <point x="496" y="486"/>
      <point x="433" y="480" type="curve"/>
      <point x="441" y="523" type="line"/>
      <point x="479" y="531"/>
      <point x="507" y="565"/>
      <point x="512" y="611" type="curve"/>
      <point x="456" y="611" type="line"/>
    </contour>
  </outline>
</glyph>
<glyph name="lcaron" format="1">
  <advance width="283"/>
  <unicode hex="013E"/>
  <outline>
    <contour>
      <point x="297" y="718" type="line"/>
      <point x="172" y="0" type="line"/>
      <point x="57" y="0" type="line"/>
      <point x="182" y="718" type="line"/>
    </contour>
    <contour>
      <point x="324" y="718" type="line"/>
      <point x="422" y="718" type="line"/>
      <point x="405" y="623" type="line"/>
      <point x="396" y="545"/>
      <point x="345" y="486"/>
      <point x="282" y="480" type="curve"/>
      <point x="290" y="523" type="line"/>
      <point x="328" y="531"/>
      <point x="356" y="565"/>
      <point x="361" y="611" type="curve"/>
      <point x="305" y="611" type="line"/>
    </contour>
  </outline>
</glyph>
<glyph name="Ldot" format="1">
  <advance width="501"/>
  <unicode hex="013F"/>
  <outline>
    <contour>
      <point x="389" y="440" type="curve" smooth="yes"/>
      <point x="420" y="440"/>
      <point x="443" y="413"/>
      <point x="443" y="376" type="curve" smooth="yes"/>
      <point x="443" y="325"/>
      <point x="404" y="278"/>
      <point x="361" y="278" type="curve" smooth="yes"/>
      <point x="329" y="278"/>
      <point x="307" y="304"/>
      <point x="307" y="341" type="curve" smooth="yes"/>
      <point x="307" y="392"/>
      <point x="347" y="440"/>
    </contour>
    <contour>
      <point x="310" y="718" type="line"/>
      <point x="208" y="130" type="line"/>
      <point x="501" y="130" type="line"/>
      <point x="478" y="0" type="line"/>
      <point x="62" y="0" type="line"/>
      <point x="187" y="718" type="line"/>
    </contour>
  </outline>
</glyph>
<glyph name="ldot" format="1">
  <advance width="456"/>
  <unicode hex="0140"/>
  <outline>
    <contour>
      <point x="400" y="334" type="curve" smooth="yes"/>
      <point x="431" y="334"/>
      <point x="454" y="307"/>
      <point x="454" y="270" type="curve" smooth="yes"/>
      <point x="454" y="219"/>
      <point x="415" y="172"/>
      <point x="372" y="172" type="curve" smooth="yes"/>
      <point x="340" y="172"/>
      <point x="318" y="198"/>
      <point x="318" y="235" type="curve" smooth="yes"/>
      <point x="318" y="286"/>
      <point x="358" y="334"/>
    </contour>
    <contour>
      <point x="297" y="718" type="line"/>
      <point x="172" y="0" type="line"/>
      <point x="57" y="0" type="line"/>
      <point x="182" y="718" type="line"/>
    </contour>
  </outline>
</glyph>
<glyph name="Lslash" format="1">
  <advance width="501"/>
  <unicode hex="0141"/>
  <outline>
    <contour>
      <point x="370" y="459" type="line"/>
      <point x="253" y="386" type="line"/>
      <point x="208" y="130" type="line"/>
      <point x="501" y="130" type="line"/>
      <point x="478" y="0" type="line"/>
      <point x="62" y="0" type="line"/>
      <point x="116" y="311" type="line"/>
      <point x="28" y="256" type="line"/>
      <point x="42" y="334" type="line"/>
      <point x="130" y="389" type="line"/>
      <point x="187" y="718" type="line"/>
      <point x="311" y="718" type="line"/>
      <point x="266" y="464" type="line"/>
      <point x="384" y="537" type="line"/>
    </contour>
  </outline>
</glyph>
<glyph name="Nacute" format="1">
  <advance width="592"/>
  <unicode hex="0143"/>
  <outline>
    <contour>
      <point x="459" y="214" type="line"/>
      <point x="546" y="718" type="line"/>
      <point x="661" y="718" type="line"/>
      <point x="536" y="0" type="line"/>
      <point x="413" y="0" type="line"/>
      <point x="261" y="515" type="line"/>
      <point x="172" y="0" type="line"/>
      <point x="57" y="0" type="line"/>
      <point x="182" y="718" type="line"/>
      <point x="311" y="718" type="line"/>
    </contour>
    <contour>
      <point x="615" y="936" type="line"/>
      <point x="469" y="790" type="line"/>
      <point x="386" y="790" type="line"/>
      <point x="489" y="936" type="line"/>
    </contour>
  </outline>
</glyph>
<glyph name="Ncommaaccent" format="1">
  <advance width="592"/>
  <unicode hex="0145"/>
  <outline>
    <contour>
      <point x="459" y="214" type="line"/>
      <point x="546" y="718" type="line"/>
      <point x="661" y="718" type="line"/>
      <point x="536" y="0" type="line"/>
      <point x="413" y="0" type="line"/>
      <point x="261" y="515" type="line"/>
      <point x="172" y="0" type="line"/>
      <point x="57" y="0" type="line"/>
      <point x="182" y="718" type="line"/>
      <point x="311" y="718" type="line"/>
    </contour>
    <contour>
      <point x="236" y="-60" type="line"/>
      <point x="334" y="-60" type="line"/>
      <point x="317" y="-155" type="line"/>
      <point x="308" y="-233"/>
      <point x="257" y="-292"/>
      <point x="194" y="-298" type="curve"/>
      <point x="202" y="-255" type="line"/>
      <point x="240" y="-247"/>
      <point x="268" y="-213"/>
      <point x="273" y="-167" type="curve"/>
      <point x="217" y="-167" type="line"/>
    </contour>
  </outline>
</glyph>
<glyph name="ncommaaccent" format="1">
  <advance width="501"/>
  <unicode hex="0146"/>
  <outline>
    <contour>
      <point x="256" y="532" type="line"/>
      <point x="242" y="451" type="line"/>
      <point x="288" y="519"/>
      <point x="330" y="546"/>
      <point x="391" y="546" type="curve" smooth="yes"/>
      <point x="469" y="546"/>
      <point x="516" y="496"/>
      <point x="516" y="413" type="curve" smooth="yes"/>
      <point x="516" y="399"/>
      <point x="515" y="384"/>
      <point x="512" y="368" type="curve" smooth="yes"/>
      <point x="448" y="0" type="line"/>
      <point x="333" y="0" type="line"/>
      <point x="389" y="323" type="line" smooth="yes"/>
      <point x="392" y="341"/>
      <point x="394" y="358"/>
      <point x="394" y="368" type="curve" smooth="yes"/>
      <point x="394" y="406"/>
      <point x="372" y="428"/>
      <point x="334" y="428" type="curve" smooth="yes"/>
      <point x="278" y="428"/>
      <point x="234" y="381"/>
      <point x="221" y="305" type="curve" smooth="yes"/>
      <point x="168" y="0" type="line"/>
      <point x="53" y="0" type="line"/>
      <point x="146" y="532" type="line"/>
    </contour>
    <contour>
      <point x="191" y="-60" type="line"/>
      <point x="289" y="-60" type="line"/>
      <point x="272" y="-155" type="line"/>
      <point x="263" y="-233"/>
      <point x="212" y="-292"/>
      <point x="149" y="-298" type="curve"/>
      <point x="157" y="-255" type="line"/>
      <point x="195" y="-247"/>
      <point x="223" y="-213"/>
      <point x="228" y="-167" type="curve"/>
      <point x="172" y="-167" type="line"/>
    </contour>
  </outline>
</glyph>
<glyph name="napostrophe" format="1">
  <advance width="501"/>
  <unicode hex="0149"/>
  <outline>
    <contour>
      <point x="184" y="731" type="line"/>
      <point x="206" y="858" type="line"/>
      <point x="321" y="858" type="line"/>
      <point x="303" y="756" type="line" smooth="yes"/>
      <point x="285" y="659"/>
      <point x="240" y="605"/>
      <point x="161" y="585" type="curve"/>
      <point x="170" y="636" type="line"/>
      <point x="217" y="654"/>
      <point x="236" y="678"/>
      <point x="247" y="731" type="curve"/>
    </contour>
    <contour>
      <point x="256" y="532" type="line"/>
      <point x="242" y="451" type="line"/>
      <point x="288" y="519"/>
      <point x="330" y="546"/>
      <point x="391" y="546" type="curve" smooth="yes"/>
      <point x="469" y="546"/>
      <point x="516" y="496"/>
      <point x="516" y="413" type="curve" smooth="yes"/>
      <point x="516" y="399"/>
      <point x="515" y="384"/>
      <point x="512" y="368" type="curve" smooth="yes"/>
      <point x="448" y="0" type="line"/>
      <point x="333" y="0" type="line"/>
      <point x="389" y="323" type="line" smooth="yes"/>
      <point x="392" y="341"/>
      <point x="394" y="358"/>
      <point x="394" y="368" type="curve" smooth="yes"/>
      <point x="394" y="406"/>
      <point x="372" y="428"/>
      <point x="334" y="428" type="curve" smooth="yes"/>
      <point x="278" y="428"/>
      <point x="234" y="381"/>
      <point x="221" y="305" type="curve" smooth="yes"/>
      <point x="168" y="0" type="line"/>
      <point x="53" y="0" type="line"/>
      <point x="146" y="532" type="line"/>
    </contour>
  </outline>
</glyph>
<glyph name="Eng" format="1">
  <advance width="592"/>
  <unicode hex="014A"/>
  <outline>
    <contour>
      <point x="536" y="0" type="line" smooth="yes"/>
      <point x="514" y="-126"/>
      <point x="449" y="-138"/>
      <point x="314" y="-138" type="curve"/>
      <point x="314" y="-59" type="line"/>
      <point x="372" y="-59"/>
      <point x="414" y="-36"/>
      <point x="414" y="-8" type="curve" smooth="yes"/>
      <point x="414" y="-5"/>
      <point x="414" y="-3"/>
      <point x="413" y="0" type="curve" smooth="yes"/>
      <point x="261" y="515" type="line"/>
      <point x="172" y="0" type="line"/>
      <point x="57" y="0" type="line"/>
      <point x="182" y="718" type="line"/>
      <point x="311" y="718" type="line"/>
      <point x="459" y="214" type="line"/>
      <point x="546" y="718" type="line"/>
      <point x="661" y="718" type="line"/>
    </contour>
  </outline>
</glyph>
<glyph name="eng" format="1">
  <advance width="501"/>
  <unicode hex="014B"/>
  <outline>
    <contour>
      <point x="333" y="-2" type="curve" smooth="yes"/>
      <point x="389" y="323" type="line" smooth="yes"/>
      <point x="392" y="341"/>
      <point x="394" y="358"/>
      <point x="394" y="368" type="curve" smooth="yes"/>
      <point x="394" y="406"/>
      <point x="372" y="428"/>
      <point x="334" y="428" type="curve" smooth="yes"/>
      <point x="278" y="428"/>
      <point x="234" y="381"/>
      <point x="221" y="305" type="curve" smooth="yes"/>
      <point x="168" y="0" type="line"/>
      <point x="53" y="0" type="line"/>
      <point x="146" y="532" type="line"/>
      <point x="256" y="532" type="line"/>
      <point x="242" y="451" type="line"/>
      <point x="288" y="519"/>
      <point x="330" y="546"/>
      <point x="391" y="546" type="curve" smooth="yes"/>
      <point x="469" y="546"/>
      <point x="516" y="496"/>
      <point x="516" y="413" type="curve" smooth="yes"/>
      <point x="516" y="399"/>
      <point x="515" y="384"/>
      <point x="512" y="368" type="curve" smooth="yes"/>
      <point x="447" y="-2" type="line" smooth="yes"/>
      <point x="430" y="-98"/>
      <point x="408" y="-135"/>
      <point x="273" y="-135" type="curve"/>
      <point x="273" y="-62" type="line"/>
      <point x="311" y="-62"/>
      <point x="327" y="-36"/>
    </contour>
  </outline>
</glyph>
<glyph name="Obreve" format="1">
  <advance width="638"/>
  <unicode hex="014E"/>
  <outline>
    <contour>
      <point x="572" y="964" type="curve"/>
      <point x="625" y="964" type="line"/>
      <point x="598" y="867"/>
      <point x="541" y="818"/>
      <point x="457" y="818" type="curve" smooth="yes"/>
      <point x="387" y="818"/>
      <point x="348" y="860"/>
      <point x="348" y="936" type="curve" smooth="yes"/>
      <point x="348" y="942"/>
      <point x="348" y="952"/>
      <point x="349" y="964" type="curve"/>
      <point x="403" y="964" type="line"/>
      <point x="403" y="958" type="line" smooth="yes"/>
      <point x="403" y="913"/>
      <point x="424" y="894"/>
      <point x="475" y="894" type="curve" smooth="yes"/>
      <point x="528" y="894"/>
      <point x="552" y="911"/>
    </contour>
    <contour>
      <point x="449" y="737" type="curve" smooth="yes"/>
      <point x="511" y="737"/>
      <point x="568" y="714"/>
      <point x="610" y="672" type="curve" smooth="yes"/>
      <point x="651" y="631"/>
      <point x="675" y="557"/>
      <point x="675" y="474" type="curve" smooth="yes"/>
      <point x="675" y="342"/>
      <point x="632" y="198"/>
      <point x="568" y="114" type="curve" smooth="yes"/>
      <point x="504" y="30"/>
      <point x="411" y="-19"/>
      <point x="315" y="-19" type="curve" smooth="yes"/>
      <point x="175" y="-19"/>
      <point x="88" y="82"/>
      <point x="88" y="245" type="curve" smooth="yes"/>
      <point x="88" y="372"/>
      <point x="133" y="522"/>
      <point x="196" y="604" type="curve" smooth="yes"/>
      <point x="260" y="688"/>
      <point x="353" y="737"/>
    </contour>
    <contour>
      <point x="426" y="610" type="curve" smooth="yes"/>
      <point x="362" y="610"/>
      <point x="301" y="567"/>
      <point x="264" y="493" type="curve" smooth="yes"/>
      <point x="233" y="432"/>
      <point x="214" y="348"/>
      <point x="214" y="271" type="curve" smooth="yes"/>
      <point x="214" y="169"/>
      <point x="261" y="108"/>
      <point x="339" y="108" type="curve" smooth="yes"/>
      <point x="457" y="108"/>
      <point x="550" y="257"/>
      <point x="550" y="447" type="curve" smooth="yes"/>
      <point x="550" y="548"/>
      <point x="503" y="610"/>
    </contour>
  </outline>
</glyph>
<glyph name="OE" format="1">
  <advance width="820"/>
  <unicode hex="0152"/>
  <outline>
    <contour>
      <point x="618" y="591" type="line"/>
      <point x="591" y="440" type="line"/>
      <point x="846" y="440" type="line"/>
      <point x="824" y="313" type="line"/>
      <point x="569" y="313" type="line"/>
      <point x="537" y="127" type="line"/>
      <point x="810" y="127" type="line"/>
      <point x="788" y="0" type="line"/>
      <point x="402" y="0" type="line"/>
      <point x="411" y="50" type="line"/>
      <point x="362" y="-3"/>
      <point x="329" y="-19"/>
      <point x="273" y="-19" type="curve" smooth="yes"/>
      <point x="153" y="-19"/>
      <point x="81" y="75"/>
      <point x="81" y="232" type="curve" smooth="yes"/>
      <point x="81" y="374"/>
      <point x="128" y="531"/>
      <point x="197" y="623" type="curve" smooth="yes"/>
      <point x="255" y="699"/>
      <point x="323" y="737"/>
      <point x="403" y="737" type="curve" smooth="yes"/>
      <point x="459" y="737"/>
      <point x="491" y="720"/>
      <point x="520" y="676" type="curve"/>
      <point x="527" y="718" type="line"/>
      <point x="913" y="718" type="line"/>
      <point x="891" y="591" type="line"/>
    </contour>
    <contour>
      <point x="428" y="196" type="curve" smooth="yes"/>
      <point x="485" y="521" type="line" smooth="yes"/>
      <point x="486" y="528"/>
      <point x="487" y="534"/>
      <point x="487" y="539" type="curve" smooth="yes"/>
      <point x="489" y="581"/>
      <point x="451" y="613"/>
      <point x="399" y="613" type="curve" smooth="yes"/>
      <point x="343" y="613"/>
      <point x="295" y="576"/>
      <point x="260" y="508" type="curve"/>
      <point x="227" y="441"/>
      <point x="204" y="346"/>
      <point x="204" y="269" type="curve" smooth="yes"/>
      <point x="204" y="164"/>
      <point x="241" y="105"/>
      <point x="307" y="105" type="curve" smooth="yes"/>
      <point x="364" y="105"/>
      <point x="420" y="147"/>
    </contour>
  </outline>
</glyph>
<glyph name="Rcaron" format="1">
  <advance width="592"/>
  <unicode hex="0158"/>
  <outline>
    <contour>
      <point x="62" y="0" type="line"/>
      <point x="187" y="718" type="line"/>
      <point x="485" y="718" type="line" smooth="yes"/>
      <point x="582" y="718"/>
      <point x="638" y="660"/>
      <point x="638" y="559" type="curve" smooth="yes"/>
      <point x="638" y="500"/>
      <point x="618" y="440"/>
      <point x="583" y="397" type="curve" smooth="yes"/>
      <point x="562" y="371"/>
      <point x="547" y="359"/>
      <point x="514" y="344" type="curve"/>
      <point x="553" y="320"/>
      <point x="566" y="298"/>
      <point x="566" y="254" type="curve" smooth="yes"/>
      <point x="566" y="221"/>
      <point x="565" y="209"/>
      <point x="547" y="108" type="curve" smooth="yes"/>
      <point x="543" y="85"/>
      <point x="541" y="65"/>
      <point x="541" y="51" type="curve" smooth="yes"/>
      <point x="541" y="35"/>
      <point x="545" y="27"/>
      <point x="558" y="19" type="curve"/>
      <point x="555" y="0" type="line"/>
      <point x="418" y="0" type="line"/>
      <point x="417" y="27" type="line"/>
      <point x="417" y="55"/>
      <point x="421" y="92"/>
      <point x="431" y="145" type="curve" smooth="yes"/>
      <point x="438" y="185"/>
      <point x="440" y="205"/>
      <point x="440" y="220" type="curve" smooth="yes"/>
      <point x="440" y="265"/>
      <point x="418" y="281"/>
      <point x="358" y="281" type="curve" smooth="yes"/>
      <point x="231" y="281" type="line"/>
      <point x="182" y="0" type="line"/>
    </contour>
    <contour>
      <point x="253" y="402" type="line"/>
      <point x="397" y="402" type="line" smooth="yes"/>
      <point x="441" y="402"/>
      <point x="470" y="415"/>
      <point x="488" y="442" type="curve" smooth="yes"/>
      <point x="502" y="463"/>
      <point x="511" y="496"/>
      <point x="511" y="525" type="curve" smooth="yes"/>
      <point x="511" y="570"/>
      <point x="486" y="594"/>
      <point x="439" y="594" type="curve" smooth="yes"/>
      <point x="286" y="594" type="line"/>
    </contour>
    <contour>
      <point x="604" y="936" type="line"/>
      <point x="485" y="790" type="line"/>
      <point x="383" y="790" type="line"/>
      <point x="315" y="936" type="line"/>
      <point x="408" y="936" type="line"/>
      <point x="445" y="854" type="line"/>
      <point x="511" y="936" type="line"/>
    </contour>
  </outline>
</glyph>
<glyph name="Scedilla" format="1">
  <advance width="547"/>
  <unicode hex="015E"/>
  <outline>
    <contour>
      <point x="286" y="-19" type="curve"/>
      <point x="259" y="-55" type="line"/>
      <point x="270" y="-52"/>
      <point x="276" y="-51"/>
      <point x="284" y="-51" type="curve" smooth="yes"/>
      <point x="320" y="-51"/>
      <point x="344" y="-75"/>
      <point x="344" y="-111" type="curve" smooth="yes"/>
      <point x="344" y="-176"/>
      <point x="290" y="-228"/>
      <point x="221" y="-228" type="curve" smooth="yes"/>
      <point x="194" y="-228"/>
      <point x="175" y="-223"/>
      <point x="134" y="-203" type="curve"/>
      <point x="160" y="-155" type="line"/>
      <point x="189" y="-166"/>
      <point x="207" y="-171"/>
      <point x="220" y="-171" type="curve" smooth="yes"/>
      <point x="245" y="-171"/>
      <point x="267" y="-149"/>
      <point x="267" y="-124" type="curve" smooth="yes"/>
      <point x="267" y="-108"/>
      <point x="256" y="-96"/>
      <point x="240" y="-96" type="curve" smooth="yes"/>
      <point x="233" y="-96"/>
      <point x="221" y="-99"/>
      <point x="206" y="-104" type="curve"/>
      <point x="192" y="-84" type="line"/>
      <point x="239" y="-17" type="line"/>
      <point x="182" y="-10"/>
      <point x="141" y="7"/>
      <point x="113" y="36" type="curve" smooth="yes"/>
      <point x="84" y="65"/>
      <point x="66" y="114"/>
      <point x="66" y="162" type="curve" smooth="yes"/>
      <point x="66" y="176"/>
      <point x="68" y="197"/>
      <point x="71" y="221" type="curve"/>
      <point x="189" y="221" type="line"/>
      <point x="188" y="210"/>
      <point x="187" y="201"/>
      <point x="187" y="194" type="curve" smooth="yes"/>
      <point x="187" y="137"/>
      <point x="226" y="105"/>
      <point x="296" y="105" type="curve" smooth="yes"/>
      <point x="379" y="105"/>
      <point x="433" y="148"/>
      <point x="433" y="213" type="curve" smooth="yes"/>
      <point x="433" y="248"/>
      <point x="411" y="266"/>
      <point x="341" y="287" type="curve" smooth="yes"/>
      <point x="281" y="305" type="line" smooth="yes"/>
      <point x="224" y="322"/>
      <point x="182" y="341"/>
      <point x="165" y="358" type="curve" smooth="yes"/>
      <point x="141" y="381"/>
      <point x="126" y="421"/>
      <point x="126" y="463" type="curve" smooth="yes"/>
      <point x="126" y="526"/>
      <point x="149" y="594"/>
      <point x="185" y="642" type="curve" smooth="yes"/>
      <point x="232" y="703"/>
      <point x="305" y="737"/>
      <point x="392" y="737" type="curve" smooth="yes"/>
      <point x="470" y="737"/>
      <point x="527" y="711"/>
      <point x="558" y="663" type="curve"/>
      <point x="576" y="633"/>
      <point x="588" y="592"/>
      <point x="588" y="556" type="curve" smooth="yes"/>
      <point x="588" y="543"/>
      <point x="587" y="526"/>
      <point x="584" y="505" type="curve"/>
      <point x="467" y="505" type="line"/>
      <point x="467" y="526" type="line" smooth="yes"/>
      <point x="467" y="582"/>
      <point x="431" y="613"/>
      <point x="367" y="613" type="curve" smooth="yes"/>
      <point x="295" y="613"/>
      <point x="246" y="571"/>
      <point x="246" y="509" type="curve" smooth="yes"/>
      <point x="246" y="479"/>
      <point x="259" y="464"/>
      <point x="297" y="452" type="curve" smooth="yes"/>
      <point x="433" y="409" type="line" smooth="yes"/>
      <point x="521" y="381"/>
      <point x="557" y="338"/>
      <point x="557" y="262" type="curve" smooth="yes"/>
      <point x="557" y="166"/>
      <point x="510" y="74"/>
      <point x="436" y="26" type="curve" smooth="yes"/>
      <point x="393" y="-2"/>
      <point x="344" y="-16"/>
    </contour>
  </outline>
</glyph>
<glyph name="scedilla" format="1">
  <advance width="456"/>
  <unicode hex="015F"/>
  <outline>
    <contour>
      <point x="244" y="-14" type="curve"/>
      <point x="214" y="-55" type="line"/>
      <point x="224" y="-52"/>
      <point x="231" y="-51"/>
      <point x="239" y="-51" type="curve" smooth="yes"/>
      <point x="274" y="-51"/>
      <point x="298" y="-76"/>
      <point x="298" y="-111" type="curve" smooth="yes"/>
      <point x="298" y="-176"/>
      <point x="244" y="-228"/>
      <point x="175" y="-228" type="curve" smooth="yes"/>
      <point x="148" y="-228"/>
      <point x="130" y="-223"/>
      <point x="88" y="-203" type="curve"/>
      <point x="115" y="-155" type="line"/>
      <point x="144" y="-166"/>
      <point x="161" y="-171"/>
      <point x="174" y="-171" type="curve" smooth="yes"/>
      <point x="199" y="-171"/>
      <point x="221" y="-149"/>
      <point x="221" y="-124" type="curve" smooth="yes"/>
      <point x="221" y="-108"/>
      <point x="210" y="-96"/>
      <point x="194" y="-96" type="curve" smooth="yes"/>
      <point x="187" y="-96"/>
      <point x="175" y="-99"/>
      <point x="160" y="-104" type="curve"/>
      <point x="146" y="-84" type="line"/>
      <point x="197" y="-12" type="line"/>
      <point x="102" y="-1"/>
      <point x="52" y="48"/>
      <point x="52" y="129" type="curve" smooth="yes"/>
      <point x="52" y="140"/>
      <point x="53" y="155"/>
      <point x="54" y="170" type="curve"/>
      <point x="172" y="170" type="line"/>
      <point x="171" y="162"/>
      <point x="171" y="155"/>
      <point x="171" y="150" type="curve" smooth="yes"/>
      <point x="171" y="113"/>
      <point x="200" y="92"/>
      <point x="251" y="92" type="curve" smooth="yes"/>
      <point x="302" y="92"/>
      <point x="338" y="118"/>
      <point x="338" y="154" type="curve" smooth="yes"/>
      <point x="338" y="177"/>
      <point x="308" y="195"/>
      <point x="252" y="206" type="curve" smooth="yes"/>
      <point x="151" y="225"/>
      <point x="101" y="268"/>
      <point x="101" y="335" type="curve" smooth="yes"/>
      <point x="101" y="368"/>
      <point x="111" y="405"/>
      <point x="127" y="437" type="curve" smooth="yes"/>
      <point x="164" y="509"/>
      <point x="229" y="546"/>
      <point x="317" y="546" type="curve" smooth="yes"/>
      <point x="425" y="546"/>
      <point x="479" y="499"/>
      <point x="479" y="404" type="curve" smooth="yes"/>
      <point x="479" y="398"/>
      <point x="479" y="384"/>
      <point x="478" y="370" type="curve"/>
      <point x="365" y="370" type="line"/>
      <point x="365" y="377" type="line"/>
      <point x="365" y="388" type="line"/>
      <point x="363" y="423"/>
      <point x="342" y="440"/>
      <point x="298" y="440" type="curve" smooth="yes"/>
      <point x="251" y="440"/>
      <point x="220" y="417"/>
      <point x="220" y="382" type="curve" smooth="yes"/>
      <point x="220" y="360"/>
      <point x="249" y="343"/>
      <point x="305" y="331" type="curve"/>
      <point x="373" y="318"/>
      <point x="428" y="288"/>
      <point x="446" y="255" type="curve" smooth="yes"/>
      <point x="455" y="238"/>
      <point x="459" y="221"/>
      <point x="459" y="200" type="curve" smooth="yes"/>
      <point x="459" y="129"/>
      <point x="421" y="58"/>
      <point x="364" y="22" type="curve" smooth="yes"/>
      <point x="329" y="0"/>
      <point x="294" y="-10"/>
    </contour>
  </outline>
</glyph>
<glyph name="scaron" format="1">
  <advance width="456"/>
  <unicode hex="0161"/>
  <outline>
    <contour>
      <point x="478" y="370" type="curve"/>
      <point x="365" y="370" type="line"/>
      <point x="365" y="377" type="line"/>
      <point x="365" y="388" type="line"/>
      <point x="363" y="423"/>
      <point x="342" y="440"/>
      <point x="298" y="440" type="curve" smooth="yes"/>
      <point x="251" y="440"/>
      <point x="220" y="417"/>
      <point x="220" y="382" type="curve" smooth="yes"/>
      <point x="220" y="360"/>
      <point x="249" y="343"/>
      <point x="305" y="331" type="curve"/>
      <point x="409" y="311"/>
      <point x="459" y="268"/>
      <point x="459" y="200" type="curve" smooth="yes"/>
      <point x="459" y="146"/>
      <point x="434" y="86"/>
      <point x="397" y="48" type="curve" smooth="yes"/>
      <point x="357" y="8"/>
      <point x="297" y="-14"/>
      <point x="230" y="-14" type="curve" smooth="yes"/>
      <point x="119" y="-14"/>
      <point x="52" y="40"/>
      <point x="52" y="129" type="curve" smooth="yes"/>
      <point x="52" y="140"/>
      <point x="53" y="155"/>
      <point x="54" y="170" type="curve"/>
      <point x="172" y="170" type="line"/>
      <point x="171" y="162"/>
      <point x="171" y="155"/>
      <point x="171" y="150" type="curve" smooth="yes"/>
      <point x="171" y="113"/>
      <point x="200" y="92"/>
      <point x="251" y="92" type="curve" smooth="yes"/>
      <point x="302" y="92"/>
      <point x="338" y="118"/>
      <point x="338" y="154" type="curve" smooth="yes"/>
      <point x="338" y="177"/>
      <point x="308" y="195"/>
      <point x="252" y="206" type="curve" smooth="yes"/>
      <point x="151" y="225"/>
      <point x="101" y="268"/>
      <point x="101" y="335" type="curve" smooth="yes"/>
      <point x="101" y="368"/>
      <point x="111" y="405"/>
      <point x="127" y="437" type="curve" smooth="yes"/>
      <point x="164" y="509"/>
      <point x="229" y="546"/>
      <point x="317" y="546" type="curve" smooth="yes"/>
      <point x="425" y="546"/>
      <point x="479" y="499"/>
      <point x="479" y="404" type="curve" smooth="yes"/>
      <point x="479" y="398"/>
      <point x="479" y="384"/>
    </contour>
    <contour>
      <point x="503" y="750" type="line"/>
      <point x="384" y="604" type="line"/>
      <point x="282" y="604" type="line"/>
      <point x="214" y="750" type="line"/>
      <point x="307" y="750" type="line"/>
      <point x="344" y="668" type="line"/>
      <point x="410" y="750" type="line"/>
    </contour>
  </outline>
</glyph>
<glyph name="Tcommaaccent" format="1">
  <advance width="501"/>
  <unicode hex="0162"/>
  <outline>
    <contour>
      <point x="415" y="591" type="line"/>
      <point x="312" y="0" type="line"/>
      <point x="189" y="0" type="line"/>
      <point x="292" y="591" type="line"/>
      <point x="114" y="591" type="line"/>
      <point x="136" y="718" type="line"/>
      <point x="615" y="718" type="line"/>
      <point x="593" y="591" type="line"/>
    </contour>
    <contour>
      <point x="191" y="-60" type="line"/>
      <point x="289" y="-60" type="line"/>
      <point x="272" y="-155" type="line"/>
      <point x="263" y="-233"/>
      <point x="212" y="-292"/>
      <point x="149" y="-298" type="curve"/>
      <point x="157" y="-255" type="line"/>
      <point x="195" y="-247"/>
      <point x="223" y="-213"/>
      <point x="228" y="-167" type="curve"/>
      <point x="172" y="-167" type="line"/>
    </contour>
  </outline>
</glyph>
<glyph name="Tcaron" format="1">
  <advance width="501"/>
  <unicode hex="0164"/>
  <outline>
    <contour>
      <point x="415" y="591" type="line"/>
      <point x="312" y="0" type="line"/>
      <point x="189" y="0" type="line"/>
      <point x="292" y="591" type="line"/>
      <point x="114" y="591" type="line"/>
      <point x="136" y="718" type="line"/>
      <point x="615" y="718" type="line"/>
      <point x="593" y="591" type="line"/>
    </contour>
    <contour>
      <point x="558" y="936" type="line"/>
      <point x="439" y="790" type="line"/>
      <point x="337" y="790" type="line"/>
      <point x="269" y="936" type="line"/>
      <point x="362" y="936" type="line"/>
      <point x="399" y="854" type="line"/>
      <point x="465" y="936" type="line"/>
    </contour>
  </outline>
</glyph>
<glyph name="tcaron" format="1">
  <advance width="312"/>
  <unicode hex="0165"/>
  <outline>
    <contour>
      <point x="275" y="532" type="line"/>
      <point x="343" y="532" type="line"/>
      <point x="374" y="553"/>
      <point x="384" y="572"/>
      <point x="390" y="611" type="curve"/>
      <point x="335" y="611" type="line"/>
      <point x="354" y="718" type="line"/>
      <point x="452" y="718" type="line"/>
      <point x="435" y="623" type="line"/>
      <point x="425" y="554"/>
      <point x="393" y="509"/>
      <point x="338" y="485" type="curve"/>
      <point x="329" y="432" type="line"/>
      <point x="257" y="432" type="line"/>
      <point x="207" y="143" type="line" smooth="yes"/>
      <point x="205" y="134"/>
      <point x="204" y="125"/>
      <point x="204" y="120" type="curve" smooth="yes"/>
      <point x="204" y="106"/>
      <point x="216" y="100"/>
      <point x="246" y="100" type="curve" smooth="yes"/>
      <point x="252" y="100"/>
      <point x="259" y="101"/>
      <point x="271" y="102" type="curve"/>
      <point x="252" y="-4" type="line"/>
      <point x="212" y="-6"/>
      <point x="211" y="-6"/>
      <point x="198" y="-6" type="curve" smooth="yes"/>
      <point x="183" y="-6" type="line" smooth="yes"/>
      <point x="113" y="-6"/>
      <point x="82" y="17"/>
      <point x="82" y="68" type="curve" smooth="yes"/>
      <point x="82" y="81"/>
      <point x="83" y="95"/>
      <point x="86" y="109" type="curve" smooth="yes"/>
      <point x="142" y="432" type="line"/>
      <point x="83" y="432" type="line"/>
      <point x="100" y="532" type="line"/>
      <point x="160" y="532" type="line"/>
      <point x="185" y="676" type="line"/>
      <point x="300" y="676" type="line"/>
    </contour>
  </outline>
</glyph>
<glyph name="Tbar" format="1">
  <advance width="501"/>
  <unicode hex="0166"/>
  <outline>
    <contour>
      <point x="264" y="429" type="line"/>
      <point x="292" y="591" type="line"/>
      <point x="114" y="591" type="line"/>
      <point x="136" y="718" type="line"/>
      <point x="615" y="718" type="line"/>
      <point x="593" y="591" type="line"/>
      <point x="415" y="591" type="line"/>
      <point x="387" y="429" type="line"/>
      <point x="530" y="429" type="line"/>
      <point x="510" y="317" type="line"/>
      <point x="367" y="317" type="line"/>
      <point x="312" y="0" type="line"/>
      <point x="189" y="0" type="line"/>
      <point x="244" y="317" type="line"/>
      <point x="97" y="317" type="line"/>
      <point x="117" y="429" type="line"/>
    </contour>
  </outline>
</glyph>
<glyph name="Utilde" format="1">
  <advance width="592"/>
  <unicode hex="0168"/>
  <outline>
    <contour>
      <point x="559" y="945" type="curve"/>
      <point x="612" y="945" type="line"/>
      <point x="585" y="865"/>
      <point x="548" y="825"/>
      <point x="502" y="825" type="curve" smooth="yes"/>
      <point x="485" y="825"/>
      <point x="457" y="834"/>
      <point x="423" y="850" type="curve" smooth="yes"/>
      <point x="405" y="858"/>
      <point x="395" y="861"/>
      <point x="387" y="861" type="curve" smooth="yes"/>
      <point x="368" y="861"/>
      <point x="352" y="846"/>
      <point x="341" y="818" type="curve"/>
      <point x="289" y="818" type="line"/>
      <point x="319" y="903"/>
      <point x="356" y="941"/>
      <point x="409" y="941" type="curve" smooth="yes"/>
      <point x="425" y="941"/>
      <point x="433" y="938"/>
      <point x="465" y="922" type="curve" smooth="yes"/>
      <point x="492" y="909"/>
      <point x="502" y="905"/>
      <point x="513" y="905" type="curve" smooth="yes"/>
      <point x="534" y="905"/>
      <point x="548" y="917"/>
    </contour>
    <contour>
      <point x="659" y="718" type="line"/>
      <point x="578" y="251" type="line" smooth="yes"/>
      <point x="547" y="76"/>
      <point x="448" y="-19"/>
      <point x="294" y="-19" type="curve" smooth="yes"/>
      <point x="167" y="-19"/>
      <point x="96" y="49"/>
      <point x="96" y="169" type="curve" smooth="yes"/>
      <point x="96" y="194"/>
      <point x="98" y="218"/>
      <point x="102" y="242" type="curve" smooth="yes"/>
      <point x="185" y="718" type="line"/>
      <point x="310" y="718" type="line"/>
      <point x="229" y="252" type="line" smooth="yes"/>
      <point x="227" y="237"/>
      <point x="225" y="220"/>
      <point x="225" y="208" type="curve" smooth="yes"/>
      <point x="225" y="142"/>
      <point x="256" y="108"/>
      <point x="314" y="108" type="curve" smooth="yes"/>
      <point x="388" y="108"/>
      <point x="436" y="155"/>
      <point x="451" y="245" type="curve" smooth="yes"/>
      <point x="534" y="718" type="line"/>
    </contour>
  </outline>
</glyph>
<glyph name="utilde" format="1">
  <advance width="501"/>
  <unicode hex="0169"/>
  <outline>
    <contour>
      <point x="480" y="759" type="curve"/>
      <point x="533" y="759" type="line"/>
      <point x="506" y="679"/>
      <point x="469" y="639"/>
      <point x="423" y="639" type="curve" smooth="yes"/>
      <point x="406" y="639"/>
      <point x="378" y="648"/>
      <point x="344" y="664" type="curve" smooth="yes"/>
      <point x="326" y="672"/>
      <point x="316" y="675"/>
      <point x="308" y="675" type="curve" smooth="yes"/>
      <point x="289" y="675"/>
      <point x="273" y="660"/>
      <point x="262" y="632" type="curve"/>
      <point x="210" y="632" type="line"/>
      <point x="240" y="717"/>
      <point x="277" y="755"/>
      <point x="330" y="755" type="curve" smooth="yes"/>
      <point x="346" y="755"/>
      <point x="354" y="752"/>
      <point x="386" y="736" type="curve" smooth="yes"/>
      <point x="413" y="723"/>
      <point x="423" y="719"/>
      <point x="434" y="719" type="curve" smooth="yes"/>
      <point x="455" y="719"/>
      <point x="469" y="731"/>
    </contour>
    <contour>
      <point x="540" y="532" type="line"/>
      <point x="447" y="0" type="line"/>
      <point x="337" y="0" type="line"/>
      <point x="351" y="78" type="line"/>
      <point x="306" y="13"/>
      <point x="262" y="-14"/>
      <point x="199" y="-14" type="curve" smooth="yes"/>
      <point x="123" y="-14"/>
      <point x="80" y="34"/>
      <point x="80" y="120" type="curve" smooth="yes"/>
      <point x="80" y="140"/>
      <point x="82" y="161"/>
      <point x="85" y="182" type="curve" smooth="yes"/>
      <point x="147" y="532" type="line"/>
      <point x="262" y="532" type="line"/>
      <point x="204" y="202" type="line" smooth="yes"/>
      <point x="202" y="191"/>
      <point x="201" y="180"/>
      <point x="201" y="168" type="curve" smooth="yes"/>
      <point x="201" y="126"/>
      <point x="221" y="104"/>
      <point x="260" y="104" type="curve" smooth="yes"/>
      <point x="316" y="104"/>
      <point x="358" y="150"/>
      <point x="371" y="225" type="curve" smooth="yes"/>
      <point x="425" y="532" type="line"/>
    </contour>
  </outline>
</glyph>
<glyph name="Ubreve" format="1">
  <advance width="592"/>
  <unicode hex="016C"/>
  <outline>
    <contour>
      <point x="550" y="964" type="curve"/>
      <point x="603" y="964" type="line"/>
      <point x="576" y="867"/>
      <point x="519" y="818"/>
      <point x="435" y="818" type="curve" smooth="yes"/>
      <point x="365" y="818"/>
      <point x="326" y="860"/>
      <point x="326" y="936" type="curve" smooth="yes"/>
      <point x="326" y="942"/>
      <point x="326" y="952"/>
      <point x="327" y="964" type="curve"/>
      <point x="381" y="964" type="line"/>
      <point x="381" y="958" type="line" smooth="yes"/>
      <point x="381" y="913"/>
      <point x="402" y="894"/>
      <point x="453" y="894" type="curve" smooth="yes"/>
      <point x="506" y="894"/>
      <point x="530" y="911"/>
    </contour>
    <contour>
      <point x="659" y="718" type="line"/>
      <point x="578" y="251" type="line" smooth="yes"/>
      <point x="547" y="76"/>
      <point x="448" y="-19"/>
      <point x="294" y="-19" type="curve" smooth="yes"/>
      <point x="167" y="-19"/>
      <point x="96" y="49"/>
      <point x="96" y="169" type="curve" smooth="yes"/>
      <point x="96" y="194"/>
      <point x="98" y="218"/>
      <point x="102" y="242" type="curve" smooth="yes"/>
      <point x="185" y="718" type="line"/>
      <point x="310" y="718" type="line"/>
      <point x="229" y="252" type="line" smooth="yes"/>
      <point x="227" y="237"/>
      <point x="225" y="220"/>
      <point x="225" y="208" type="curve" smooth="yes"/>
      <point x="225" y="142"/>
      <point x="256" y="108"/>
      <point x="314" y="108" type="curve" smooth="yes"/>
      <point x="388" y="108"/>
      <point x="436" y="155"/>
      <point x="451" y="245" type="curve" smooth="yes"/>
      <point x="534" y="718" type="line"/>
    </contour>
  </outline>
</glyph>
<glyph name="ubreve" format="1">
  <advance width="501"/>
  <unicode hex="016D"/>
  <outline>
    <contour>
      <point x="471" y="778" type="curve"/>
      <point x="524" y="778" type="line"/>
      <point x="497" y="681"/>
      <point x="440" y="632"/>
      <point x="356" y="632" type="curve" smooth="yes"/>
      <point x="286" y="632"/>
      <point x="247" y="674"/>
      <point x="247" y="750" type="curve" smooth="yes"/>
      <point x="247" y="756"/>
      <point x="247" y="766"/>
      <point x="248" y="778" type="curve"/>
      <point x="302" y="778" type="line"/>
      <point x="302" y="772" type="line" smooth="yes"/>
      <point x="302" y="727"/>
      <point x="323" y="708"/>
      <point x="374" y="708" type="curve" smooth="yes"/>
      <point x="427" y="708"/>
      <point x="451" y="725"/>
    </contour>
    <contour>
      <point x="540" y="532" type="line"/>
      <point x="447" y="0" type="line"/>
      <point x="337" y="0" type="line"/>
      <point x="351" y="78" type="line"/>
      <point x="306" y="13"/>
      <point x="262" y="-14"/>
      <point x="199" y="-14" type="curve" smooth="yes"/>
      <point x="123" y="-14"/>
      <point x="80" y="34"/>
      <point x="80" y="120" type="curve" smooth="yes"/>
      <point x="80" y="140"/>
      <point x="82" y="161"/>
      <point x="85" y="182" type="curve" smooth="yes"/>
      <point x="147" y="532" type="line"/>
      <point x="262" y="532" type="line"/>
      <point x="204" y="202" type="line" smooth="yes"/>
      <point x="202" y="191"/>
      <point x="201" y="180"/>
      <point x="201" y="168" type="curve" smooth="yes"/>
      <point x="201" y="126"/>
      <point x="221" y="104"/>
      <point x="260" y="104" type="curve" smooth="yes"/>
      <point x="316" y="104"/>
      <point x="358" y="150"/>
      <point x="371" y="225" type="curve" smooth="yes"/>
      <point x="425" y="532" type="line"/>
    </contour>
  </outline>
</glyph>
<glyph name="uring" format="1">
  <advance width="501"/>
  <unicode hex="016F"/>
  <outline>
    <contour>
      <point x="540" y="532" type="line"/>
      <point x="447" y="0" type="line"/>
      <point x="337" y="0" type="line"/>
      <point x="351" y="78" type="line"/>
      <point x="306" y="13"/>
      <point x="262" y="-14"/>
      <point x="199" y="-14" type="curve" smooth="yes"/>
      <point x="123" y="-14"/>
      <point x="80" y="34"/>
      <point x="80" y="120" type="curve" smooth="yes"/>
      <point x="80" y="140"/>
      <point x="82" y="161"/>
      <point x="85" y="182" type="curve" smooth="yes"/>
      <point x="147" y="532" type="line"/>
      <point x="262" y="532" type="line"/>
      <point x="204" y="202" type="line" smooth="yes"/>
      <point x="202" y="191"/>
      <point x="201" y="180"/>
      <point x="201" y="168" type="curve" smooth="yes"/>
      <point x="201" y="126"/>
      <point x="221" y="104"/>
      <point x="260" y="104" type="curve" smooth="yes"/>
      <point x="316" y="104"/>
      <point x="358" y="150"/>
      <point x="371" y="225" type="curve" smooth="yes"/>
      <point x="425" y="532" type="line"/>
    </contour>
    <contour>
      <point x="386" y="776" type="curve" smooth="yes"/>
      <point x="426" y="776"/>
      <point x="458" y="739"/>
      <point x="458" y="693" type="curve" smooth="yes"/>
      <point x="458" y="630"/>
      <point x="404" y="568"/>
      <point x="350" y="568" type="curve" smooth="yes"/>
      <point x="310" y="568"/>
      <point x="278" y="605"/>
      <point x="278" y="651" type="curve" smooth="yes"/>
      <point x="278" y="714"/>
      <point x="332" y="776"/>
    </contour>
    <contour>
      <point x="377" y="724" type="curve" smooth="yes"/>
      <point x="350" y="724"/>
      <point x="325" y="694"/>
      <point x="325" y="661" type="curve" smooth="yes"/>
      <point x="325" y="637"/>
      <point x="339" y="620"/>
      <point x="359" y="620" type="curve" smooth="yes"/>
      <point x="386" y="620"/>
      <point x="411" y="650"/>
      <point x="411" y="683" type="curve" smooth="yes"/>
      <point x="411" y="707"/>
      <point x="397" y="724"/>
    </contour>
  </outline>
</glyph>
<glyph name="wcircumflex" format="1">
  <advance width="638"/>
  <unicode hex="0175"/>
  <outline>
    <contour>
      <point x="507" y="778" type="line"/>
      <point x="575" y="632" type="line"/>
      <point x="482" y="632" type="line"/>
      <point x="444" y="714" type="line"/>
      <point x="378" y="632" type="line"/>
      <point x="285" y="632" type="line"/>
      <point x="404" y="778" type="line"/>
    </contour>
    <contour>
      <point x="723" y="532" type="line"/>
      <point x="505" y="0" type="line"/>
      <point x="387" y="0" type="line"/>
      <point x="387" y="393" type="line"/>
      <point x="249" y="0" type="line"/>
      <point x="131" y="0" type="line"/>
      <point x="101" y="532" type="line"/>
      <point x="223" y="532" type="line"/>
      <point x="225" y="145" type="line"/>
      <point x="354" y="532" type="line"/>
      <point x="470" y="532" type="line"/>
      <point x="470" y="145" type="line"/>
      <point x="605" y="532" type="line"/>
    </contour>
  </outline>
</glyph>
<glyph name="Ydieresis" format="1">
  <advance width="547"/>
  <unicode hex="0178"/>
  <outline>
    <contour>
      <point x="385" y="269" type="line"/>
      <point x="339" y="0" type="line"/>
      <point x="215" y="0" type="line"/>
      <point x="263" y="271" type="line"/>
      <point x="137" y="718" type="line"/>
      <point x="282" y="718" type="line"/>
      <point x="350" y="406" type="line"/>
      <point x="521" y="718" type="line"/>
      <point x="661" y="718" type="line"/>
    </contour>
    <contour>
      <point x="404" y="915" type="line"/>
      <point x="384" y="800" type="line"/>
      <point x="281" y="800" type="line"/>
      <point x="301" y="915" type="line"/>
    </contour>
    <contour>
      <point x="564" y="915" type="line"/>
      <point x="544" y="800" type="line"/>
      <point x="441" y="800" type="line"/>
      <point x="461" y="915" type="line"/>
    </contour>
  </outline>
</glyph>
<glyph name="zacute" format="1">
  <advance width="410"/>
  <unicode hex="017A"/>
  <outline>
    <contour>
      <point x="458" y="417" type="line"/>
      <point x="185" y="115" type="line"/>
      <point x="414" y="115" type="line"/>
      <point x="393" y="0" type="line"/>
      <point x="16" y="0" type="line"/>
      <point x="35" y="109" type="line"/>
      <point x="313" y="420" type="line"/>
      <point x="105" y="420" type="line"/>
      <point x="124" y="532" type="line"/>
      <point x="478" y="532" type="line"/>
    </contour>
    <contour>
      <point x="492" y="750" type="line"/>
      <point x="346" y="604" type="line"/>
      <point x="263" y="604" type="line"/>
      <point x="366" y="750" type="line"/>
    </contour>
  </outline>
</glyph>
<glyph name="zdotaccent" format="1">
  <advance width="410"/>
  <unicode hex="017C"/>
  <outline>
    <contour>
      <point x="458" y="417" type="line"/>
      <point x="185" y="115" type="line"/>
      <point x="414" y="115" type="line"/>
      <point x="393" y="0" type="line"/>
      <point x="16" y="0" type="line"/>
      <point x="35" y="109" type="line"/>
      <point x="313" y="420" type="line"/>
      <point x="105" y="420" type="line"/>
      <point x="124" y="532" type="line"/>
      <point x="478" y="532" type="line"/>
    </contour>
    <contour>
      <point x="385" y="729" type="line"/>
      <point x="365" y="614" type="line"/>
      <point x="261" y="614" type="line"/>
      <point x="281" y="729" type="line"/>
    </contour>
  </outline>
</glyph>
<glyph name="Zcaron" format="1">
  <advance width="501"/>
  <unicode hex="017D"/>
  <outline>
    <contour>
      <point x="503" y="127" type="line"/>
      <point x="480" y="0" type="line"/>
      <point x="20" y="0" type="line"/>
      <point x="42" y="127" type="line"/>
      <point x="428" y="591" type="line"/>
      <point x="131" y="591" type="line"/>
      <point x="153" y="718" type="line"/>
      <point x="604" y="718" type="line"/>
      <point x="583" y="600" type="line"/>
      <point x="192" y="127" type="line"/>
    </contour>
    <contour>
      <point x="558" y="936" type="line"/>
      <point x="439" y="790" type="line"/>
      <point x="337" y="790" type="line"/>
      <point x="269" y="936" type="line"/>
      <point x="362" y="936" type="line"/>
      <point x="399" y="854" type="line"/>
      <point x="465" y="936" type="line"/>
    </contour>
  </outline>
</glyph>
<glyph name="zcaron" format="1">
  <advance width="410"/>
  <unicode hex="017E"/>
  <outline>
    <contour>
      <point x="458" y="417" type="line"/>
      <point x="185" y="115" type="line"/>
      <point x="414" y="115" type="line"/>
      <point x="393" y="0" type="line"/>
      <point x="16" y="0" type="line"/>
      <point x="35" y="109" type="line"/>
      <point x="313" y="420" type="line"/>
      <point x="105" y="420" type="line"/>
      <point x="124" y="532" type="line"/>
      <point x="478" y="532" type="line"/>
    </contour>
    <contour>
      <point x="480" y="750" type="line"/>
      <point x="361" y="604" type="line"/>
      <point x="259" y="604" type="line"/>
      <point x="191" y="750" type="line"/>
      <point x="284" y="750" type="line"/>
      <point x="321" y="668" type="line"/>
      <point x="387" y="750" type="line"/>
    </contour>
  </outline>
</glyph>
<glyph name="florin" format="1">
  <advance width="456"/>
  <unicode hex="0192"/>
  <outline>
    <contour>
      <point x="472" y="477" type="line"/>
      <point x="456" y="380" type="line"/>
      <point x="346" y="380" type="line"/>
      <point x="235" y="21" type="line" smooth="yes"/>
      <point x="186" y="-137"/>
      <point x="124" y="-210"/>
      <point x="37" y="-210" type="curve" smooth="yes"/>
      <point x="15" y="-210"/>
      <point x="0" y="-206"/>
      <point x="-41" y="-189" type="curve"/>
      <point x="-2" y="-78" type="line"/>
      <point x="16" y="-92"/>
      <point x="23" y="-95"/>
      <point x="38" y="-95" type="curve" smooth="yes"/>
      <point x="75" y="-95"/>
      <point x="89" y="-72"/>
      <point x="126" y="46" type="curve" smooth="yes"/>
      <point x="231" y="380" type="line"/>
      <point x="131" y="380" type="line"/>
      <point x="148" y="477" type="line"/>
      <point x="260" y="477" type="line"/>
      <point x="291" y="564" type="line" smooth="yes"/>
      <point x="333" y="684"/>
      <point x="387" y="737"/>
      <point x="466" y="737" type="curve" smooth="yes"/>
      <point x="492" y="737"/>
      <point x="516" y="731"/>
      <point x="548" y="718" type="curve"/>
      <point x="509" y="610" type="line"/>
      <point x="494" y="620"/>
      <point x="479" y="625"/>
      <point x="466" y="625" type="curve" smooth="yes"/>
      <point x="438" y="625"/>
      <point x="413" y="602"/>
      <point x="402" y="565" type="curve" smooth="yes"/>
      <point x="374" y="477" type="line"/>
    </contour>
  </outline>
</glyph>
<glyph name="scommaaccent" format="1">
  <advance width="456"/>
  <unicode hex="0219"/>
  <outline>
    <contour>
      <point x="478" y="370" type="curve"/>
      <point x="365" y="370" type="line"/>
      <point x="365" y="377" type="line"/>
      <point x="365" y="388" type="line"/>
      <point x="363" y="423"/>
      <point x="342" y="440"/>
      <point x="298" y="440" type="curve" smooth="yes"/>
      <point x="251" y="440"/>
      <point x="220" y="417"/>
      <point x="220" y="382" type="curve" smooth="yes"/>
      <point x="220" y="360"/>
      <point x="249" y="343"/>
      <point x="305" y="331" type="curve"/>
      <point x="409" y="311"/>
      <point x="459" y="268"/>
      <point x="459" y="200" type="curve" smooth="yes"/>
      <point x="459" y="146"/>
      <point x="434" y="86"/>
      <point x="397" y="48" type="curve" smooth="yes"/>
      <point x="357" y="8"/>
      <point x="297" y="-14"/>
      <point x="230" y="-14" type="curve" smooth="yes"/>
      <point x="119" y="-14"/>
      <point x="52" y="40"/>
      <point x="52" y="129" type="curve" smooth="yes"/>
      <point x="52" y="140"/>
      <point x="53" y="155"/>
      <point x="54" y="170" type="curve"/>
      <point x="172" y="170" type="line"/>
      <point x="171" y="162"/>
      <point x="171" y="155"/>
      <point x="171" y="150" type="curve" smooth="yes"/>
      <point x="171" y="113"/>
      <point x="200" y="92"/>
      <point x="251" y="92" type="curve" smooth="yes"/>
      <point x="302" y="92"/>
      <point x="338" y="118"/>
      <point x="338" y="154" type="curve" smooth="yes"/>
      <point x="338" y="177"/>
      <point x="308" y="195"/>
      <point x="252" y="206" type="curve" smooth="yes"/>
      <point x="151" y="225"/>
      <point x="101" y="268"/>
      <point x="101" y="335" type="curve" smooth="yes"/>
      <point x="101" y="368"/>
      <point x="111" y="405"/>
      <point x="127" y="437" type="curve" smooth="yes"/>
      <point x="164" y="509"/>
      <point x="229" y="546"/>
      <point x="317" y="546" type="curve" smooth="yes"/>
      <point x="425" y="546"/>
      <point x="479" y="499"/>
      <point x="479" y="404" type="curve" smooth="yes"/>
      <point x="479" y="398"/>
      <point x="479" y="384"/>
    </contour>
    <contour>
      <point x="168" y="-60" type="line"/>
      <point x="266" y="-60" type="line"/>
      <point x="249" y="-155" type="line"/>
      <point x="240" y="-233"/>
      <point x="189" y="-292"/>
      <point x="126" y="-298" type="curve"/>
      <point x="134" y="-255" type="line"/>
      <point x="172" y="-247"/>
      <point x="200" y="-213"/>
      <point x="205" y="-167" type="curve"/>
      <point x="149" y="-167" type="line"/>
    </contour>
  </outline>
</glyph>
<glyph name="caron" format="1">
  <advance width="273"/>
  <unicode hex="02C7"/>
  <outline>
    <contour>
      <point x="412" y="750" type="line"/>
      <point x="293" y="604" type="line"/>
      <point x="191" y="604" type="line"/>
      <point x="123" y="750" type="line"/>
      <point x="216" y="750" type="line"/>
      <point x="253" y="668" type="line"/>
      <point x="319" y="750" type="line"/>
    </contour>
  </outline>
</glyph>
<glyph name="dotaccent" format="1">
  <advance width="273"/>
  <unicode hex="02D9"/>
  <outline>
    <contour>
      <point x="316" y="729" type="line"/>
      <point x="296" y="614" type="line"/>
      <point x="192" y="614" type="line"/>
      <point x="212" y="729" type="line"/>
    </contour>
  </outline>
</glyph>
<glyph name="ring" format="1">
  <advance width="273"/>
  <unicode hex="02DA"/>
  <outline>
    <contour>
      <point x="272" y="776" type="curve" smooth="yes"/>
      <point x="312" y="776"/>
      <point x="344" y="739"/>
      <point x="344" y="693" type="curve" smooth="yes"/>
      <point x="344" y="630"/>
      <point x="290" y="568"/>
      <point x="236" y="568" type="curve" smooth="yes"/>
      <point x="196" y="568"/>
      <point x="164" y="605"/>
      <point x="164" y="651" type="curve" smooth="yes"/>
      <point x="164" y="714"/>
      <point x="218" y="776"/>
    </contour>
    <contour>
      <point x="263" y="724" type="curve" smooth="yes"/>
      <point x="236" y="724"/>
      <point x="211" y="694"/>
      <point x="211" y="661" type="curve" smooth="yes"/>
      <point x="211" y="637"/>
      <point x="225" y="620"/>
      <point x="245" y="620" type="curve" smooth="yes"/>
      <point x="272" y="620"/>
      <point x="297" y="650"/>
      <point x="297" y="683" type="curve" smooth="yes"/>
      <point x="297" y="707"/>
      <point x="283" y="724"/>
    </contour>
  </outline>
</glyph>
<glyph name="ogonek" format="1">
  <advance width="273"/>
  <unicode hex="02DB"/>
  <outline>
    <contour>
      <point x="207" y="-155" type="curve"/>
      <point x="213" y="-204" type="line"/>
      <point x="169" y="-222"/>
      <point x="148" y="-228"/>
      <point x="121" y="-228" type="curve" smooth="yes"/>
      <point x="69" y="-228"/>
      <point x="33" y="-197"/>
      <point x="33" y="-151" type="curve" smooth="yes"/>
      <point x="33" y="-122"/>
      <point x="47" y="-85"/>
      <point x="70" y="-57" type="curve" smooth="yes"/>
      <point x="90" y="-32"/>
      <point x="108" y="-19"/>
      <point x="147" y="0" type="curve"/>
      <point x="216" y="0" type="line"/>
      <point x="215" y="-4" type="line"/>
      <point x="151" y="-45"/>
      <point x="112" y="-95"/>
      <point x="112" y="-136" type="curve" smooth="yes"/>
      <point x="112" y="-157"/>
      <point x="125" y="-172"/>
      <point x="142" y="-172" type="curve" smooth="yes"/>
      <point x="157" y="-172"/>
      <point x="181" y="-166"/>
    </contour>
  </outline>
</glyph>
<glyph name="tilde" format="1">
  <advance width="273"/>
  <unicode hex="02DC"/>
  <outline>
    <contour>
      <point x="362" y="737" type="curve"/>
      <point x="415" y="737" type="line"/>
      <point x="388" y="657"/>
      <point x="351" y="617"/>
      <point x="305" y="617" type="curve" smooth="yes"/>
      <point x="288" y="617"/>
      <point x="260" y="626"/>
      <point x="226" y="642" type="curve" smooth="yes"/>
      <point x="208" y="650"/>
      <point x="198" y="653"/>
      <point x="190" y="653" type="curve" smooth="yes"/>
      <point x="171" y="653"/>
      <point x="155" y="638"/>
      <point x="144" y="610" type="curve"/>
      <point x="92" y="610" type="line"/>
      <point x="122" y="695"/>
      <point x="159" y="733"/>
      <point x="212" y="733" type="curve" smooth="yes"/>
      <point x="228" y="733"/>
      <point x="236" y="730"/>
      <point x="268" y="714" type="curve" smooth="yes"/>
      <point x="295" y="701"/>
      <point x="305" y="697"/>
      <point x="316" y="697" type="curve" smooth="yes"/>
      <point x="337" y="697"/>
      <point x="351" y="709"/>
    </contour>
  </outline>
</glyph>
<glyph name="mu" format="1">
  <advance width="501"/>
  <unicode hex="03BC"/>
  <outline>
    <contour>
      <point x="540" y="532" type="line"/>
      <point x="447" y="0" type="line"/>
      <point x="337" y="0" type="line"/>
      <point x="351" y="78" type="line"/>
      <point x="308" y="14"/>
      <point x="270" y="-14"/>
      <point x="226" y="-14" type="curve" smooth="yes"/>
      <point x="200" y="-14"/>
      <point x="185" y="-7"/>
      <point x="171" y="12" type="curve"/>
      <point x="133" y="-207" type="line"/>
      <point x="18" y="-207" type="line"/>
      <point x="147" y="532" type="line"/>
      <point x="262" y="532" type="line"/>
      <point x="204" y="202" type="line" smooth="yes"/>
      <point x="202" y="191"/>
      <point x="201" y="177"/>
      <point x="201" y="168" type="curve" smooth="yes"/>
      <point x="201" y="126"/>
      <point x="221" y="104"/>
      <point x="260" y="104" type="curve" smooth="yes"/>
      <point x="316" y="104"/>
      <point x="358" y="150"/>
      <point x="372" y="225" type="curve"/>
      <point x="425" y="532" type="line"/>
    </contour>
  </outline>
</glyph>
<glyph name="afii10052" format="1">
  <advance width="501"/>
  <unicode hex="0403"/>
  <outline>
    <contour>
      <point x="457" y="922" type="line"/>
      <point x="311" y="776" type="line"/>
      <point x="228" y="776" type="line"/>
      <point x="331" y="922" type="line"/>
    </contour>
    <contour>
      <point x="185" y="0" type="line"/>
      <point x="62" y="0" type="line"/>
      <point x="187" y="718" type="line"/>
      <point x="606" y="718" type="line"/>
      <point x="584" y="591" type="line"/>
      <point x="288" y="591" type="line"/>
    </contour>
  </outline>
</glyph>
<glyph name="afii10056" format="1">
  <advance width="228"/>
  <unicode hex="0407"/>
  <outline>
    <contour>
      <point x="300" y="718" type="line"/>
      <point x="175" y="0" type="line"/>
      <point x="52" y="0" type="line"/>
      <point x="177" y="718" type="line"/>
    </contour>
    <contour>
      <point x="245" y="915" type="line"/>
      <point x="225" y="800" type="line"/>
      <point x="122" y="800" type="line"/>
      <point x="142" y="915" type="line"/>
    </contour>
    <contour>
      <point x="405" y="915" type="line"/>
      <point x="385" y="800" type="line"/>
      <point x="282" y="800" type="line"/>
      <point x="302" y="915" type="line"/>
    </contour>
  </outline>
</glyph>
<glyph name="afii10058" format="1">
  <advance width="838"/>
  <unicode hex="0409"/>
  <outline>
    <contour>
      <point x="353" y="0" type="line"/>
      <point x="459" y="595" type="line"/>
      <point x="293" y="595" type="line"/>
      <point x="274" y="485" type="line"/>
      <point x="239" y="276"/>
      <point x="128" y="0"/>
      <point x="-48" y="0" type="curve"/>
      <point x="-27" y="121" type="line"/>
      <point x="35" y="120"/>
      <point x="121" y="312"/>
      <point x="152" y="490" type="curve" smooth="yes"/>
      <point x="192" y="718" type="line"/>
      <point x="602" y="718" type="line"/>
      <point x="556" y="458" type="line"/>
      <point x="697" y="458" type="line" smooth="yes"/>
      <point x="793" y="458"/>
      <point x="850" y="392"/>
      <point x="850" y="285" type="curve" smooth="yes"/>
      <point x="850" y="130"/>
      <point x="751" y="0"/>
      <point x="622" y="0" type="curve" smooth="yes"/>
    </contour>
    <contour>
      <point x="535" y="335" type="line"/>
      <point x="497" y="123" type="line"/>
      <point x="595" y="123" type="line" smooth="yes"/>
      <point x="686" y="123"/>
      <point x="725" y="180"/>
      <point x="725" y="261" type="curve" smooth="yes"/>
      <point x="725" y="311"/>
      <point x="700" y="335"/>
      <point x="649" y="335" type="curve" smooth="yes"/>
    </contour>
  </outline>
</glyph>
<glyph name="afii10059" format="1">
  <advance width="874"/>
  <unicode hex="040A"/>
  <outline>
    <contour>
      <point x="660" y="718" type="line"/>
      <point x="614" y="458" type="line"/>
      <point x="755" y="458" type="line" smooth="yes"/>
      <point x="851" y="458"/>
      <point x="908" y="392"/>
      <point x="908" y="285" type="curve" smooth="yes"/>
      <point x="908" y="130"/>
      <point x="809" y="0"/>
      <point x="680" y="0" type="curve" smooth="yes"/>
      <point x="411" y="0" type="line"/>
      <point x="467" y="322" type="line"/>
      <point x="237" y="322" type="line"/>
      <point x="181" y="0" type="line"/>
      <point x="58" y="0" type="line"/>
      <point x="183" y="718" type="line"/>
      <point x="306" y="718" type="line"/>
      <point x="259" y="446" type="line"/>
      <point x="489" y="446" type="line"/>
      <point x="536" y="718" type="line"/>
    </contour>
    <contour>
      <point x="593" y="335" type="line"/>
      <point x="555" y="123" type="line"/>
      <point x="653" y="123" type="line" smooth="yes"/>
      <point x="744" y="123"/>
      <point x="783" y="180"/>
      <point x="783" y="261" type="curve" smooth="yes"/>
      <point x="783" y="311"/>
      <point x="758" y="335"/>
      <point x="707" y="335" type="curve" smooth="yes"/>
    </contour>
  </outline>
</glyph>
<glyph name="afii10060" format="1">
  <advance width="650"/>
  <unicode hex="040B"/>
  <outline>
    <contour>
      <point x="347" y="429" type="line"/>
      <point x="389" y="476"/>
      <point x="442" y="470"/>
      <point x="491" y="470" type="curve" smooth="yes"/>
      <point x="597" y="470"/>
      <point x="657" y="424"/>
      <point x="657" y="332" type="curve" smooth="yes"/>
      <point x="657" y="316"/>
      <point x="655" y="299"/>
      <point x="652" y="281" type="curve" smooth="yes"/>
      <point x="603" y="0" type="line"/>
      <point x="480" y="0" type="line"/>
      <point x="529" y="277" type="line" smooth="yes"/>
      <point x="530" y="281"/>
      <point x="530" y="284"/>
      <point x="530" y="288" type="curve" smooth="yes"/>
      <point x="530" y="323"/>
      <point x="494" y="347"/>
      <point x="431" y="347" type="curve" smooth="yes"/>
      <point x="387" y="347"/>
      <point x="331" y="332"/>
      <point x="320" y="272" type="curve" smooth="yes"/>
      <point x="272" y="0" type="line"/>
      <point x="149" y="0" type="line"/>
      <point x="252" y="591" type="line"/>
      <point x="114" y="591" type="line"/>
      <point x="136" y="718" type="line"/>
      <point x="535" y="718" type="line"/>
      <point x="513" y="591" type="line"/>
      <point x="375" y="591" type="line"/>
    </contour>
  </outline>
</glyph>
<glyph name="afii10061" format="1">
  <advance width="593"/>
  <unicode hex="040C"/>
  <outline>
    <contour>
      <point x="457" y="922" type="line"/>
      <point x="311" y="776" type="line"/>
      <point x="228" y="776" type="line"/>
      <point x="331" y="922" type="line"/>
    </contour>
    <contour>
      <point x="194" y="0" type="line"/>
      <point x="71" y="0" type="line"/>
      <point x="197" y="718" type="line"/>
      <point x="320" y="718" type="line"/>
      <point x="275" y="460" type="line"/>
      <point x="545" y="718" type="line"/>
      <point x="704" y="718" type="line"/>
      <point x="346" y="374" type="line"/>
      <point x="592" y="0" type="line"/>
      <point x="434" y="0" type="line"/>
      <point x="244" y="284" type="line"/>
    </contour>
  </outline>
</glyph>
<glyph name="uni040D" format="1">
  <advance width="596"/>
  <unicode hex="040D"/>
  <outline>
    <contour>
      <point x="460" y="818" type="line"/>
      <point x="365" y="964" type="line"/>
      <point x="491" y="964" type="line"/>
      <point x="543" y="818" type="line"/>
    </contour>
    <contour>
      <point x="512" y="504" type="line"/>
      <point x="187" y="0" type="line"/>
      <point x="58" y="0" type="line"/>
      <point x="184" y="718" type="line"/>
      <point x="298" y="718" type="line"/>
      <point x="207" y="203" type="line"/>
      <point x="541" y="718" type="line"/>
      <point x="663" y="718" type="line"/>
      <point x="537" y="0" type="line"/>
      <point x="423" y="0" type="line"/>
    </contour>
  </outline>
</glyph>
<glyph name="afii10062" format="1">
  <advance width="547"/>
  <unicode hex="040E"/>
  <outline>
    <contour>
      <point x="547" y="936" type="curve"/>
      <point x="600" y="936" type="line"/>
      <point x="573" y="839"/>
      <point x="516" y="790"/>
      <point x="432" y="790" type="curve" smooth="yes"/>
      <point x="362" y="790"/>
      <point x="323" y="832"/>
      <point x="323" y="908" type="curve" smooth="yes"/>
      <point x="323" y="914"/>
      <point x="323" y="924"/>
      <point x="324" y="936" type="curve"/>
      <point x="378" y="936" type="line"/>
      <point x="378" y="930" type="line" smooth="yes"/>
      <point x="378" y="885"/>
      <point x="399" y="866"/>
      <point x="450" y="866" type="curve" smooth="yes"/>
      <point x="503" y="866"/>
      <point x="527" y="883"/>
    </contour>
    <contour>
      <point x="225" y="0" type="line"/>
      <point x="86" y="0" type="line"/>
      <point x="263" y="282" type="line"/>
      <point x="138" y="718" type="line"/>
      <point x="283" y="718" type="line"/>
      <point x="359" y="428" type="line"/>
      <point x="522" y="718" type="line"/>
      <point x="661" y="718" type="line"/>
    </contour>
  </outline>
</glyph>
<glyph name="afii10145" format="1">
  <advance width="590"/>
  <unicode hex="040F"/>
  <outline>
    <contour>
      <point x="248" y="0" type="line"/>
      <point x="57" y="0" type="line"/>
      <point x="183" y="718" type="line"/>
      <point x="306" y="718" type="line"/>
      <point x="201" y="123" type="line"/>
      <point x="431" y="123" type="line"/>
      <point x="536" y="718" type="line"/>
      <point x="659" y="718" type="line"/>
      <point x="533" y="0" type="line"/>
      <point x="355" y="0" type="line"/>
      <point x="334" y="-120" type="line"/>
      <point x="227" y="-120" type="line"/>
    </contour>
  </outline>
</glyph>
<glyph name="afii10018" format="1">
  <advance width="592"/>
  <unicode hex="0411"/>
  <outline>
    <contour>
      <point x="522" y="591" type="line"/>
      <point x="221" y="591" type="line"/>
      <point x="194" y="437" type="line"/>
      <point x="338" y="437" type="line" smooth="yes"/>
      <point x="525" y="437"/>
      <point x="528" y="293"/>
      <point x="528" y="262" type="curve" smooth="yes"/>
      <point x="528" y="174"/>
      <point x="494" y="112"/>
      <point x="446" y="64" type="curve" smooth="yes"/>
      <point x="396" y="15"/>
      <point x="350" y="0"/>
      <point x="248" y="0" type="curve" smooth="yes"/>
      <point x="-1" y="0" type="line"/>
      <point x="125" y="718" type="line"/>
      <point x="544" y="718" type="line"/>
    </contour>
    <contour>
      <point x="172" y="315" type="line"/>
      <point x="138" y="123" type="line"/>
      <point x="289" y="123" type="line" smooth="yes"/>
      <point x="358" y="123"/>
      <point x="404" y="178"/>
      <point x="404" y="247" type="curve" smooth="yes"/>
      <point x="404" y="290"/>
      <point x="377" y="315"/>
      <point x="329" y="315" type="curve" smooth="yes"/>
    </contour>
  </outline>
</glyph>
<glyph name="afii10021" format="1">
  <advance width="712"/>
  <unicode hex="0414"/>
  <outline>
    <contour>
      <point x="-48" y="-120" type="line"/>
      <point x="-6" y="120" type="line"/>
      <point x="59" y="120" type="line" smooth="yes"/>
      <point x="121" y="120"/>
      <point x="206" y="312"/>
      <point x="237" y="490" type="curve" smooth="yes"/>
      <point x="277" y="718" type="line"/>
      <point x="689" y="718" type="line"/>
      <point x="585" y="120" type="line"/>
      <point x="656" y="120" type="line"/>
      <point x="614" y="-120" type="line"/>
      <point x="507" y="-120" type="line"/>
      <point x="528" y="0" type="line"/>
      <point x="80" y="0" type="line"/>
      <point x="59" y="-120" type="line"/>
    </contour>
    <contour>
      <point x="226" y="123" type="curve"/>
      <point x="462" y="123" type="line"/>
      <point x="545" y="595" type="line"/>
      <point x="379" y="595" type="line"/>
      <point x="359" y="485" type="line"/>
      <point x="339" y="365"/>
      <point x="294" y="222"/>
    </contour>
  </outline>
</glyph>
<glyph name="afii10026" format="1">
  <advance width="596"/>
  <unicode hex="0418"/>
  <outline>
    <contour>
      <point x="512" y="504" type="line"/>
      <point x="187" y="0" type="line"/>
      <point x="58" y="0" type="line"/>
      <point x="184" y="718" type="line"/>
      <point x="298" y="718" type="line"/>
      <point x="207" y="203" type="line"/>
      <point x="541" y="718" type="line"/>
      <point x="663" y="718" type="line"/>
      <point x="537" y="0" type="line"/>
      <point x="423" y="0" type="line"/>
    </contour>
  </outline>
</glyph>
<glyph name="afii10027" format="1">
  <advance width="596"/>
  <unicode hex="0419"/>
  <outline>
    <contour>
      <point x="559" y="936" type="curve"/>
      <point x="612" y="936" type="line"/>
      <point x="585" y="839"/>
      <point x="528" y="790"/>
      <point x="444" y="790" type="curve" smooth="yes"/>
      <point x="374" y="790"/>
      <point x="335" y="832"/>
      <point x="335" y="908" type="curve" smooth="yes"/>
      <point x="335" y="914"/>
      <point x="335" y="924"/>
      <point x="336" y="936" type="curve"/>
      <point x="390" y="936" type="line"/>
      <point x="390" y="930" type="line" smooth="yes"/>
      <point x="390" y="885"/>
      <point x="411" y="866"/>
      <point x="462" y="866" type="curve" smooth="yes"/>
      <point x="515" y="866"/>
      <point x="539" y="883"/>
    </contour>
    <contour>
      <point x="512" y="504" type="line"/>
      <point x="187" y="0" type="line"/>
      <point x="58" y="0" type="line"/>
      <point x="184" y="718" type="line"/>
      <point x="298" y="718" type="line"/>
      <point x="207" y="203" type="line"/>
      <point x="541" y="718" type="line"/>
      <point x="663" y="718" type="line"/>
      <point x="537" y="0" type="line"/>
      <point x="423" y="0" type="line"/>
    </contour>
  </outline>
</glyph>
<glyph name="afii10029" format="1">
  <advance width="592"/>
  <unicode hex="041B"/>
  <outline>
    <contour>
      <point x="459" y="595" type="line"/>
      <point x="293" y="595" type="line"/>
      <point x="274" y="485" type="line"/>
      <point x="239" y="276"/>
      <point x="128" y="0"/>
      <point x="-48" y="0" type="curve"/>
      <point x="-27" y="121" type="line"/>
      <point x="35" y="120"/>
      <point x="121" y="312"/>
      <point x="152" y="490" type="curve" smooth="yes"/>
      <point x="192" y="718" type="line"/>
      <point x="604" y="718" type="line"/>
      <point x="478" y="0" type="line"/>
      <point x="355" y="0" type="line"/>
    </contour>
  </outline>
</glyph>
